<?xml version="1.0" encoding="utf-8"?>
<!-- Generator: Adobe Illustrator 16.0.0, SVG Export Plug-In . SVG Version: 6.00 Build 0)  -->
<!DOCTYPE svg PUBLIC "-//W3C//DTD SVG 1.1//EN" "http://www.w3.org/Graphics/SVG/1.1/DTD/svg11.dtd">
<svg version="1.1" xmlns="http://www.w3.org/2000/svg" xmlns:xlink="http://www.w3.org/1999/xlink" x="0px" y="0px" width="640px"
	 height="447.531px" viewBox="0 0 640 447.531" enable-background="new 0 0 640 447.531" xml:space="preserve">
<pattern  x="171" y="13.235" width="5.669" height="5.67" patternUnits="userSpaceOnUse" id="New_Pattern" viewBox="0.71 -6.38 5.669 5.67" overflow="visible">
	<g>
		<polygon fill="none" points="0.71,-6.38 6.379,-6.38 6.379,-0.71 0.71,-0.71 		"/>
		<path fill="#FFFFFF" d="M5.67-0.709C5.67-0.317,5.353,0,4.961,0S4.252-0.317,4.252-0.709s0.317-0.709,0.709-0.709
			S5.67-1.101,5.67-0.709z"/>
		<path fill="#FFFFFF" d="M2.835-0.709C2.835-0.317,2.518,0,2.126,0S1.417-0.317,1.417-0.709s0.317-0.709,0.709-0.709
			S2.835-1.101,2.835-0.709z"/>
		<path fill="#FFFFFF" d="M7.087-3.544c0,0.392-0.317,0.709-0.709,0.709S5.669-3.152,5.669-3.544s0.317-0.709,0.709-0.709
			S7.087-3.936,7.087-3.544z"/>
		<path fill="#FFFFFF" d="M4.253-3.544c0,0.392-0.317,0.709-0.709,0.709S2.835-3.152,2.835-3.544s0.317-0.709,0.709-0.709
			S4.253-3.936,4.253-3.544z"/>
		<path fill="#FFFFFF" d="M1.418-3.544c0,0.392-0.317,0.709-0.709,0.709S0-3.152,0-3.544s0.317-0.709,0.709-0.709
			S1.418-3.936,1.418-3.544z"/>
		<path fill="#FFFFFF" d="M5.67-6.379c0,0.392-0.317,0.709-0.709,0.709S4.252-5.987,4.252-6.379s0.317-0.709,0.709-0.709
			S5.67-6.771,5.67-6.379z"/>
		<path fill="#FFFFFF" d="M2.835-6.379c0,0.392-0.317,0.709-0.709,0.709S1.417-5.987,1.417-6.379s0.317-0.709,0.709-0.709
			S2.835-6.771,2.835-6.379z"/>
	</g>
</pattern>
<g id="Layer_1">
</g>
<g id="Layer_2">
	
		<line fill="none" stroke="#FFFFFF" stroke-width="2" stroke-linejoin="round" stroke-miterlimit="10" x1="0" y1="353.64" x2="147.26" y2="390.415"/>
	
		<line fill="none" stroke="#FFFFFF" stroke-width="2" stroke-linejoin="round" stroke-miterlimit="10" x1="123.873" y1="384.394" x2="139.007" y2="0"/>
	
		<line fill="none" stroke="#FFFFFF" stroke-width="2" stroke-linejoin="round" stroke-miterlimit="10" x1="-7" y1="119.616" x2="240.622" y2="128.384"/>
	<path fill="none" stroke="#FFFFFF" stroke-width="2" stroke-linejoin="round" stroke-miterlimit="10" d="M158.287,353.64
		C182.99,284.741,240.622,124,240.622,124L263.833,0"/>
	
		<line fill="none" stroke="#FFFFFF" stroke-width="2" stroke-linejoin="round" stroke-miterlimit="10" x1="130.408" y1="209.882" x2="206.182" y2="220.057"/>
	
		<line fill="none" stroke="#FFFFFF" stroke-width="2" stroke-linejoin="round" stroke-miterlimit="10" x1="0" y1="36.57" x2="255.768" y2="43.085"/>
	
		<line fill="none" stroke="#FFFFFF" stroke-width="2" stroke-linejoin="round" stroke-miterlimit="10" x1="183.329" y1="126.355" x2="211.06" y2="0"/>
	
		<line fill="none" stroke="#FFFFFF" stroke-width="2" stroke-linejoin="round" stroke-miterlimit="10" x1="192.746" y1="83.014" x2="97.742" y2="83.014"/>
	
		<line fill="none" stroke="#FFFFFF" stroke-width="2" stroke-linejoin="round" stroke-miterlimit="10" x1="198.325" y1="241.969" x2="500.589" y2="443.544"/>
	
		<line fill="none" stroke="#FFFFFF" stroke-width="2" stroke-linejoin="round" stroke-miterlimit="10" x1="233.595" y1="143.598" x2="576.413" y2="384.394"/>
	<polyline fill="none" stroke="#FFFFFF" stroke-width="2" stroke-linejoin="round" stroke-miterlimit="10" points="531.021,0 
		496.979,65.73 290.138,410.017 268.811,418.897 	"/>
	
		<line fill="none" stroke="#FFFFFF" stroke-width="2" stroke-linejoin="round" stroke-miterlimit="10" x1="405.004" y1="4.572" x2="640" y2="165.522"/>
	
		<line fill="none" stroke="#FFFFFF" stroke-width="2" stroke-linejoin="round" stroke-miterlimit="10" x1="390.722" y1="440.965" x2="624.898" y2="22.644"/>
	<polyline fill="none" stroke="#FFFFFF" stroke-width="2" stroke-linejoin="round" stroke-miterlimit="10" points="640,22.644 
		523.196,15.109 495.431,0 	"/>
	
		<line fill="none" stroke="#FFFFFF" stroke-width="2" stroke-linejoin="round" stroke-miterlimit="10" x1="367.993" y1="36.57" x2="630.057" y2="220.057"/>
	
		<line fill="none" stroke="#FFFFFF" stroke-width="2" stroke-linejoin="round" stroke-miterlimit="10" x1="340.243" y1="85.679" x2="471.703" y2="178.418"/>
	
		<line fill="none" stroke="#FFFFFF" stroke-width="2" stroke-linejoin="round" stroke-miterlimit="10" x1="494.687" y1="194.508" x2="602.321" y2="270.466"/>
	<polyline fill="none" stroke="#FFFFFF" stroke-width="2" stroke-linejoin="round" stroke-miterlimit="10" points="312.242,135.233 
		576.413,317.687 640,307.601 	"/>
	
		<line fill="none" stroke="#FFFFFF" stroke-width="2" stroke-linejoin="round" stroke-miterlimit="10" x1="499.025" y1="447.531" x2="637.664" y2="209.882"/>
	<polyline fill="none" stroke="#FFFFFF" stroke-width="2" stroke-linejoin="round" stroke-miterlimit="10" points="258.038,229.819 
		576.413,447.531 640,429.535 	"/>
	<polyline fill="none" stroke="#FFFFFF" stroke-width="2" stroke-linejoin="round" stroke-miterlimit="10" points="147.26,390.415 
		303.549,427.038 357.709,462.629 	"/>
	
		<line fill="none" stroke="#FFFFFF" stroke-width="2" stroke-linejoin="round" stroke-miterlimit="10" x1="290.138" y1="410.017" x2="303.549" y2="427.038"/>
	
		<line fill="none" stroke="#FFFFFF" stroke-width="2" stroke-linejoin="round" stroke-miterlimit="10" x1="531.021" y1="15.57" x2="640" y2="101.704"/>
	<g>
		<path fill="url(#New_Pattern)" d="M500.362,175.647c2.558,1.783,3.191,5.335,1.407,7.893l-13.703,19.65
			c-1.784,2.558-5.336,3.191-7.894,1.408l-13.123-9.152c-2.558-1.783-3.191-5.335-1.407-7.893l13.703-19.65
			c1.784-2.558,5.336-3.191,7.894-1.408L500.362,175.647z"/>
		<path fill="none" stroke="#FFFFFF" stroke-width="2" stroke-linejoin="round" stroke-miterlimit="10" d="M500.362,175.647
			c2.558,1.783,3.191,5.335,1.407,7.893l-13.703,19.65c-1.784,2.558-5.336,3.191-7.894,1.408l-13.123-9.152
			c-2.558-1.783-3.191-5.335-1.407-7.893l13.703-19.65c1.784-2.558,5.336-3.191,7.894-1.408L500.362,175.647z"/>
	</g>
	<path fill="none" stroke="#FFFFFF" stroke-width="2" stroke-linejoin="round" stroke-miterlimit="10" d="M477.989,202.21
		c-11.95,17.682-21.886,32.382-21.886,32.382"/>
	<path fill="none" stroke="#FFFFFF" stroke-width="2" stroke-linejoin="round" stroke-miterlimit="10" d="M518.648,142.053
		c0,0-9.64,14.263-21.351,31.59"/>
	<g>
		<path fill="#FFFFFF" d="M146.552,325.915l2.173-5.711l8.87,3.376l-0.486,1.275l-7.655-2.913l-1.202,3.159l5.578,2.122
			c1.154,0.439,1.898,1.627,1.344,3.085l-0.214,0.197l-1.094-0.417l0.093-0.242c0.23-0.608,0.005-1.111-0.603-1.342L146.552,325.915
			z"/>
		<path fill="#FFFFFF" d="M152.623,319.462l0.453-1.189l3.888,1.479l-3.023-3.753l0.532-1.396l5.711,2.173l-0.453,1.191
			l-3.889-1.479l3.024,3.751l-0.532,1.397L152.623,319.462z"/>
		<path fill="#FFFFFF" d="M155.073,313.023l1.572-4.131l1.093,0.416l-1.109,2.916l4.618,1.757l-0.463,1.215L155.073,313.023z"/>
		<path fill="#FFFFFF" d="M157.772,305.565c0.602-1.58,2.348-2.516,4.109-1.846c1.762,0.671,2.445,2.531,1.844,4.111
			c-0.601,1.579-2.348,2.514-4.109,1.844S157.171,307.145,157.772,305.565z M162.633,307.415c0.439-1.155-0.181-2.086-1.213-2.479
			c-1.033-0.394-2.114-0.11-2.554,1.045c-0.439,1.154,0.18,2.084,1.213,2.478S162.193,308.569,162.633,307.415z"/>
		<path fill="#FFFFFF" d="M159.489,301.42l0.924-2.43c0.509-1.337,1.455-1.812,2.427-1.441c0.45,0.171,0.782,0.575,0.896,1.119
			c0.474-0.403,1.021-0.528,1.52-0.339c1.033,0.394,1.401,1.438,0.893,2.773l-0.947,2.49L159.489,301.42z M162.745,299.808
			c0.162-0.426,0.118-0.859-0.307-1.021c-0.426-0.162-0.772,0.054-0.957,0.54l-0.495,1.301l1.264,0.48L162.745,299.808z
			 M165.149,300.583c0.185-0.485,0.008-0.9-0.356-1.039c-0.485-0.185-0.807,0.109-0.969,0.535l-0.541,1.422l1.324,0.504
			L165.149,300.583z"/>
		<path fill="#FFFFFF" d="M167.487,294.657c0.277-0.729,0.004-1.473-0.408-1.852l0.991-0.778c0.67,0.798,0.927,1.952,0.487,3.107
			c-0.583,1.53-2.325,2.454-4.087,1.783s-2.45-2.519-1.867-4.049c0.439-1.155,1.394-1.835,2.425-1.985l0.224,1.24
			c-0.56,0.009-1.254,0.371-1.531,1.1c-0.439,1.154,0.171,2.11,1.203,2.504C165.957,296.12,167.048,295.812,167.487,294.657z"/>
		<path fill="#FFFFFF" d="M165.453,285.747l0.601-1.58l1.702,3.791l4.056-1.739l-0.602,1.579l-3.354,1.506l2.431,0.925l-0.463,1.215
			l-5.711-2.174l0.463-1.215l2.309,0.879L165.453,285.747z"/>
		<path fill="#FFFFFF" d="M166.378,283.316l0.453-1.19l3.888,1.479l-3.023-3.752l0.532-1.397l5.711,2.173l-0.453,1.191l-3.889-1.479
			l3.023,3.751l-0.531,1.397L166.378,283.316z"/>
		<path fill="#FFFFFF" d="M167.063,275.19l-0.072-0.028l0.374-0.983l0.024,0.01c0.304,0.115,0.703,0.016,0.869-0.421
			c0.167-0.438-0.066-0.776-0.369-0.892l-0.025-0.01l0.375-0.984l0.072,0.028c0.73,0.277,1.227,1.162,0.834,2.194
			C168.753,275.138,167.793,275.468,167.063,275.19z M174.539,279.05l0.532-1.396l-3.024-3.752l3.889,1.479l0.453-1.19l-5.711-2.174
			l-0.532,1.397l3.023,3.753l-3.888-1.48l-0.453,1.19L174.539,279.05z"/>
		<path fill="#FFFFFF" d="M172.435,267.4l1.85-4.86l5.711,2.173l-0.463,1.216l-4.617-1.757l-0.925,2.43l4.617,1.757l-0.462,1.215
			L172.435,267.4z"/>
		<path fill="#FFFFFF" d="M174.885,260.961l0.416-1.094l0.527,0.076l0.089-0.05l-0.038-0.084c-0.226-0.504-0.237-1.203-0.006-1.811
			c0.601-1.579,2.324-2.454,4.087-1.783c1.762,0.67,2.467,2.47,1.866,4.049c-0.227,0.596-0.705,1.122-1.208,1.349l-0.084,0.037
			l0.033,0.096l3.062,1.165l-0.458,1.203L174.885,260.961z M180.71,259.909c0.439-1.154-0.181-2.085-1.213-2.479
			c-1.033-0.393-2.114-0.109-2.554,1.045c-0.393,1.033,0.181,2.086,1.213,2.479S180.317,260.942,180.71,259.909z"/>
		<path fill="#FFFFFF" d="M178.438,251.256c0.602-1.58,2.348-2.515,4.109-1.844s2.445,2.529,1.845,4.109
			c-0.602,1.579-2.348,2.515-4.109,1.845C178.521,254.695,177.838,252.835,178.438,251.256z M183.299,253.105
			c0.439-1.155-0.18-2.085-1.213-2.479c-1.032-0.394-2.114-0.11-2.554,1.045c-0.439,1.154,0.181,2.085,1.213,2.478
			C181.778,254.543,182.859,254.26,183.299,253.105z"/>
		<path fill="#FFFFFF" d="M185.889,246.301c0.277-0.729,0.004-1.473-0.408-1.853l0.991-0.777c0.67,0.798,0.926,1.953,0.486,3.107
			c-0.582,1.53-2.324,2.453-4.086,1.783s-2.449-2.519-1.867-4.049c0.439-1.154,1.394-1.834,2.424-1.985l0.225,1.239
			c-0.561,0.01-1.254,0.371-1.531,1.101c-0.439,1.155,0.171,2.11,1.203,2.503C184.358,247.763,185.449,247.456,185.889,246.301z"/>
		<path fill="#FFFFFF" d="M182.514,240.913l1.85-4.86l5.711,2.174l-0.463,1.216l-4.618-1.758l-0.924,2.43l4.617,1.758l-0.462,1.215
			L182.514,240.913z"/>
		<path fill="#FFFFFF" d="M188.956,236.411l0.555-1.458l1.58,0.601l-0.555,1.459L188.956,236.411z"/>
	</g>
	<g>
		<path fill="#FFFFFF" d="M284.239,144.832l2.964-5.194l1.129,0.645l-2.287,4.008l7.113,4.06l-0.676,1.186L284.239,144.832z"/>
		<path fill="#FFFFFF" d="M290.461,140.749l0.58-1.017l0.51,0.156l0.095-0.036l-0.024-0.088c-0.146-0.531-0.049-1.225,0.273-1.79
			c0.837-1.467,2.676-2.066,4.312-1.131c1.638,0.934,2.058,2.821,1.221,4.289c-0.316,0.554-0.871,1.001-1.402,1.146l-0.089,0.023
			l0.018,0.1l2.846,1.624l-0.638,1.118L290.461,140.749z M296.379,140.608c0.612-1.072,0.144-2.089-0.815-2.636
			c-0.96-0.548-2.073-0.434-2.686,0.639c-0.547,0.959-0.144,2.088,0.816,2.636S295.831,141.568,296.379,140.608z"/>
		<path fill="#FFFFFF" d="M297.585,135.085c0.79,0.451,1.79,0.273,2.338-0.687c0.387-0.678,0.312-1.333-0.044-1.761l0.993-0.691
			c0.533,0.902,0.646,2.015,0.034,3.088c-0.806,1.411-2.611,1.953-4.248,1.019c-1.638-0.935-2.122-2.708-1.285-4.176
			c0.773-1.355,2.491-1.872,4.128-0.938l0.274,0.306L297.585,135.085z M296.623,134.462l1.547-2.71
			c-0.619-0.279-1.394,0.028-1.78,0.706C295.938,133.248,296.133,133.957,296.623,134.462z"/>
		<path fill="#FFFFFF" d="M305.207,127.236l-0.645,1.129l-2.031-1.16l-0.089,0.023l0.024,0.089c0.177,0.476,0.146,1.056-0.145,1.564
			c-0.741,1.299-2.063,1.518-3.306,0.809l-1.694-0.967l0.645-1.129l1.582,0.902c0.79,0.451,1.467,0.312,1.854-0.364
			c0.373-0.654,0.189-1.434-0.453-1.83l-1.693-0.967l0.645-1.129L305.207,127.236z"/>
		<path fill="#FFFFFF" d="M304.061,123.738c0.789,0.451,1.789,0.274,2.337-0.686c0.387-0.678,0.312-1.334-0.043-1.761l0.993-0.691
			c0.532,0.902,0.646,2.015,0.033,3.088c-0.805,1.412-2.61,1.953-4.248,1.019c-1.638-0.935-2.121-2.708-1.284-4.176
			c0.773-1.355,2.49-1.873,4.128-0.938l0.274,0.306L304.061,123.738z M303.099,123.115l1.546-2.71
			c-0.619-0.28-1.393,0.027-1.779,0.705C302.414,121.901,302.607,122.61,303.099,123.115z"/>
		<path fill="#FFFFFF" d="M309.78,117.123c0.387-0.677,0.231-1.454-0.117-1.893l1.1-0.615c0.539,0.892,0.613,2.072,0.001,3.145
			c-0.812,1.422-2.675,2.066-4.312,1.131c-1.637-0.935-2.031-2.866-1.22-4.289c0.612-1.073,1.659-1.597,2.702-1.587l0.029,1.259
			c-0.555-0.077-1.297,0.173-1.684,0.851c-0.611,1.073-0.156,2.111,0.804,2.659C308.043,118.332,309.168,118.196,309.78,117.123z"/>
		<path fill="#FFFFFF" d="M309.146,108.006l0.838-1.469l1.096,4.009l4.276-1.093l-0.838,1.468l-3.547,0.969l2.258,1.289
			l-0.645,1.129l-5.307-3.029l0.645-1.129l2.145,1.225L309.146,108.006z"/>
		<path fill="#FFFFFF" d="M310.435,105.747l0.631-1.106l3.613,2.062l-2.407-4.174l0.74-1.299l5.307,3.028l-0.631,1.107l-3.613-2.062
			l2.408,4.173l-0.74,1.298L310.435,105.747z"/>
		<path fill="#FFFFFF" d="M312.367,97.824l-0.068-0.039l0.521-0.914l0.023,0.013c0.281,0.161,0.691,0.126,0.924-0.281
			c0.231-0.406,0.054-0.777-0.229-0.938l-0.022-0.013l0.521-0.914l0.067,0.039c0.678,0.387,1.033,1.337,0.486,2.297
			C314.043,98.033,313.045,98.211,312.367,97.824z M319.156,102.792l0.741-1.298l-2.409-4.173l3.613,2.062l0.632-1.107l-5.308-3.029
			l-0.74,1.299l2.408,4.174l-3.613-2.062l-0.631,1.105L319.156,102.792z"/>
		<path fill="#FFFFFF" d="M318.875,90.956l2.577-4.517l5.308,3.029l-0.645,1.129l-4.291-2.449l-1.289,2.259l4.291,2.449
			l-0.645,1.129L318.875,90.956z"/>
		<path fill="#FFFFFF" d="M322.289,84.973l0.58-1.017l0.51,0.156l0.096-0.036l-0.025-0.088c-0.146-0.531-0.049-1.225,0.273-1.79
			c0.838-1.467,2.676-2.066,4.313-1.131c1.638,0.934,2.057,2.821,1.22,4.289c-0.316,0.554-0.871,1.001-1.402,1.146l-0.088,0.023
			l0.018,0.1l2.845,1.624l-0.638,1.118L322.289,84.973z M328.207,84.832c0.612-1.072,0.145-2.089-0.815-2.636
			c-0.96-0.548-2.073-0.434-2.685,0.639c-0.548,0.959-0.145,2.088,0.816,2.636C326.482,86.019,327.66,85.792,328.207,84.832z"/>
		<path fill="#FFFFFF" d="M327.299,75.932c0.838-1.468,2.707-2.123,4.346-1.188c1.637,0.934,2.025,2.877,1.188,4.345
			c-0.838,1.468-2.709,2.123-4.346,1.188C326.849,79.343,326.461,77.4,327.299,75.932z M331.815,78.509
			c0.612-1.072,0.144-2.088-0.815-2.635c-0.961-0.548-2.072-0.435-2.686,0.638c-0.611,1.073-0.143,2.088,0.816,2.636
			C330.091,79.695,331.203,79.582,331.815,78.509z"/>
		<path fill="#FFFFFF" d="M335.424,72.187c0.387-0.678,0.23-1.455-0.117-1.894l1.1-0.615c0.539,0.892,0.613,2.072,0.001,3.145
			c-0.812,1.422-2.675,2.066-4.312,1.131s-2.032-2.866-1.22-4.289c0.611-1.073,1.66-1.598,2.701-1.587l0.03,1.259
			c-0.556-0.077-1.296,0.173-1.683,0.851c-0.613,1.073-0.157,2.111,0.803,2.659C333.686,73.395,334.812,73.259,335.424,72.187z"/>
		<path fill="#FFFFFF" d="M332.92,66.342l2.578-4.517l5.307,3.029l-0.645,1.129l-4.291-2.449l-1.288,2.259l4.291,2.449l-0.645,1.129
			L332.92,66.342z"/>
		<path fill="#FFFFFF" d="M339.98,62.889l0.773-1.355l1.469,0.837l-0.773,1.355L339.98,62.889z"/>
	</g>
	<g>
		<path fill="#FFFFFF" d="M34.782,342.317l1.32,0.35l-2.417,9.176l-1.32-0.348l1.06-4.023l-3.52-0.926l-1.06,4.023l-1.32-0.35
			l2.417-9.176l1.32,0.348l-1.027,3.896l3.52,0.928L34.782,342.317z"/>
		<path fill="#FFFFFF" d="M37.146,349.933c-0.232,0.879,0.198,1.799,1.266,2.08c0.755,0.199,1.369-0.043,1.69-0.496l0.923,0.781
			c-0.734,0.748-1.78,1.145-2.975,0.83c-1.571-0.414-2.561-2.02-2.08-3.842c0.48-1.822,2.069-2.748,3.703-2.318
			c1.509,0.398,2.452,1.924,1.972,3.746l-0.226,0.344L37.146,349.933z M37.5,348.843l3.017,0.795c0.11-0.67-0.387-1.34-1.141-1.539
			C38.496,347.868,37.861,348.237,37.5,348.843z"/>
		<path fill="#FFFFFF" d="M43.601,348.138l2.514,0.662c1.384,0.363,1.955,1.254,1.69,2.26c-0.123,0.465-0.49,0.838-1.018,1.008
			c0.451,0.43,0.635,0.961,0.499,1.477c-0.282,1.068-1.282,1.545-2.664,1.18l-2.577-0.678L43.601,348.138z M45.031,353.677
			c0.502,0.133,0.896-0.088,0.996-0.465c0.132-0.502-0.194-0.791-0.635-0.906l-1.472-0.387l-0.361,1.369L45.031,353.677z
			 M45.548,351.204c0.44,0.115,0.867,0.027,0.982-0.412c0.116-0.441-0.135-0.764-0.638-0.895l-1.346-0.355l-0.344,1.309
			L45.548,351.204z"/>
		<path fill="#FFFFFF" d="M51.172,355.374c0.754,0.199,1.465-0.15,1.798-0.602l0.878,0.904c-0.722,0.75-1.843,1.127-3.038,0.812
			c-1.583-0.418-2.686-2.053-2.206-3.875s2.245-2.701,3.828-2.285c1.195,0.314,1.972,1.191,2.231,2.201l-1.209,0.354
			c-0.069-0.557-0.502-1.207-1.257-1.406c-1.195-0.314-2.08,0.393-2.361,1.461S49.977,355.06,51.172,355.374z"/>
		<path fill="#FFFFFF" d="M59.816,352.409l1.635,0.43l-3.59,2.094l2.159,3.848l-1.635-0.43l-1.852-3.176l-0.662,2.514l-1.257-0.332
			l1.557-5.908l1.257,0.332l-0.629,2.389L59.816,352.409z"/>
		<path fill="#FFFFFF" d="M62.331,353.071l1.231,0.324l-1.06,4.023l3.411-3.404l1.446,0.381l-1.557,5.908l-1.232-0.324l1.06-4.023
			l-3.41,3.404l-1.446-0.381L62.331,353.071z"/>
		<path fill="#FFFFFF" d="M68.994,354.827l1.231,0.324l-1.06,4.021l3.411-3.402l1.445,0.381l-1.556,5.908l-1.232-0.324l1.06-4.023
			l-3.41,3.404l-1.446-0.381L68.994,354.827z M71.784,354.849c1.068,0.281,1.896-0.307,2.095-1.061l0.02-0.076l-1.018-0.268
			l-0.007,0.025c-0.083,0.312-0.396,0.582-0.848,0.461c-0.453-0.119-0.592-0.506-0.51-0.82l0.007-0.025l-1.018-0.268l-0.02,0.076
			C70.286,353.647,70.715,354.567,71.784,354.849z"/>
		<path fill="#FFFFFF" d="M78.799,357.409l5.028,1.324l-1.556,5.91l-1.257-0.332l1.258-4.777l-2.515-0.662l-1.258,4.777
			l-1.257-0.332L78.799,357.409z"/>
		<path fill="#FFFFFF" d="M85.462,359.165l1.132,0.297l-0.02,0.533l0.06,0.082l0.079-0.045c0.477-0.279,1.171-0.363,1.8-0.199
			c1.634,0.432,2.687,2.053,2.206,3.875c-0.48,1.824-2.195,2.717-3.829,2.285c-0.617-0.162-1.19-0.582-1.469-1.059l-0.046-0.078
			l-0.092,0.041l-0.834,3.168l-1.245-0.326L85.462,359.165z M87.125,364.845c1.194,0.316,2.054-0.398,2.335-1.467
			c0.281-1.068-0.115-2.115-1.309-2.43c-1.068-0.281-2.055,0.4-2.336,1.469S86.057,364.563,87.125,364.845z"/>
		<path fill="#FFFFFF" d="M95.489,361.673c1.635,0.43,2.749,2.066,2.269,3.891c-0.48,1.822-2.256,2.699-3.891,2.268
			c-1.635-0.43-2.75-2.068-2.269-3.891S93.854,361.241,95.489,361.673z M94.165,366.7c1.194,0.314,2.055-0.4,2.336-1.469
			s-0.115-2.113-1.31-2.428c-1.195-0.314-2.055,0.398-2.336,1.469C92.574,365.341,92.97,366.386,94.165,366.7z"/>
		<path fill="#FFFFFF" d="M101.204,368.554c0.754,0.199,1.465-0.15,1.798-0.6l0.878,0.902c-0.722,0.75-1.843,1.127-3.038,0.812
			c-1.584-0.416-2.687-2.051-2.206-3.875c0.48-1.822,2.245-2.701,3.829-2.285c1.194,0.316,1.972,1.193,2.23,2.201l-1.209,0.354
			c-0.069-0.555-0.502-1.207-1.257-1.406c-1.194-0.314-2.08,0.393-2.361,1.463C99.588,367.188,100.01,368.239,101.204,368.554z"/>
		<path fill="#FFFFFF" d="M106.204,364.628l5.028,1.326l-1.556,5.908l-1.257-0.332l1.259-4.777l-2.515-0.662l-1.259,4.777
			l-1.257-0.33L106.204,364.628z"/>
		<path fill="#FFFFFF" d="M111.362,370.56l1.509,0.396l-0.43,1.635l-1.509-0.398L111.362,370.56z"/>
	</g>
	<g>
		<path fill="#FFFFFF" d="M110.602,217.809l4.504-1.72l-4.325-2.176l0.068-1.493l9.284,4.719l-0.066,1.455l-3.384-1.704
			l-6.149,2.413L110.602,217.809z"/>
		<path fill="#FFFFFF" d="M114.243,212.184l0.22-4.806l6.104,0.279l-0.06,1.3l-4.936-0.226l-0.102,2.208l3.183,0.146
			c1.299,0.06,1.977,0.872,1.92,2.104l-0.139,0.189l-1.168-0.053l0.012-0.259c0.018-0.391-0.23-0.663-0.62-0.68L114.243,212.184z"/>
		<path fill="#FFFFFF" d="M118.938,206.284l0.071-1.56l1.688,0.077l-0.071,1.56L118.938,206.284z"/>
		<path fill="#FFFFFF" d="M111.438,199.564l0.154-3.377c0.077-1.688,1.176-2.94,2.733-2.869c0.871,0.04,1.577,0.528,1.974,1.249
			c0.438-0.761,1.215-1.232,2.253-1.185c1.624,0.074,2.604,1.419,2.526,3.108l-0.16,3.507L111.438,199.564z M115.62,196.306
			c0.036-0.779-0.318-1.576-1.292-1.62c-0.975-0.044-1.399,0.716-1.436,1.495l-0.095,2.078l2.728,0.125L115.62,196.306z
			 M119.782,196.366c0.035-0.779-0.448-1.581-1.357-1.623c-1.039-0.048-1.464,0.713-1.5,1.492l-0.101,2.208l2.856,0.13
			L119.782,196.366z"/>
		<path fill="#FFFFFF" d="M115.18,188.868c0.077-1.688,1.444-3.121,3.327-3.035c1.884,0.086,3.113,1.638,3.036,3.326
			s-1.443,3.124-3.327,3.037C116.333,192.11,115.103,190.556,115.18,188.868z M120.375,189.105c0.057-1.233-0.823-1.924-1.927-1.975
			c-1.104-0.05-2.043,0.557-2.1,1.791c-0.057,1.234,0.823,1.925,1.927,1.975C119.38,190.947,120.318,190.34,120.375,189.105z"/>
		<path fill="#FFFFFF" d="M120.708,181.834c0.035-0.779-0.457-1.401-0.967-1.632l0.698-1.048c0.887,0.547,1.49,1.564,1.434,2.799
			c-0.075,1.636-1.441,3.058-3.324,2.972c-1.884-0.086-3.114-1.627-3.039-3.263c0.057-1.234,0.751-2.179,1.683-2.644l0.6,1.108
			c-0.529,0.183-1.075,0.744-1.11,1.523c-0.057,1.234,0.822,1.951,1.926,2.001C119.711,183.702,120.651,183.068,120.708,181.834z"/>
		<path fill="#FFFFFF" d="M121.011,175.211c0.035-0.779-0.457-1.4-0.967-1.632l0.699-1.048c0.886,0.547,1.489,1.564,1.433,2.799
			c-0.074,1.636-1.44,3.058-3.324,2.972c-1.883-0.086-3.113-1.627-3.039-3.263c0.057-1.234,0.751-2.178,1.684-2.644l0.6,1.108
			c-0.529,0.184-1.075,0.744-1.111,1.523c-0.057,1.234,0.822,1.951,1.926,2.001C120.015,177.079,120.954,176.445,121.011,175.211z"
			/>
		<path fill="#FFFFFF" d="M116.098,171.668l0.237-5.195l1.169,0.054l-0.09,1.948l4.936,0.226L122.29,170l-4.936-0.226l-0.089,1.948
			L116.098,171.668z"/>
		<path fill="#FFFFFF" d="M122.745,160.064l-0.054,1.169l-0.525,0.106l-0.067,0.062l0.062,0.068
			c0.372,0.407,0.602,1.069,0.571,1.718c-0.077,1.688-1.44,3.058-3.324,2.972c-1.883-0.086-3.116-1.575-3.039-3.263
			c0.03-0.649,0.319-1.288,0.728-1.659l0.067-0.062l-0.062-0.067l-0.514-0.154l0.054-1.169L122.745,160.064z M117.54,162.884
			c-0.057,1.234,0.823,1.938,1.927,1.989c1.104,0.051,2.043-0.57,2.1-1.804c0.051-1.104-0.823-1.924-1.927-1.975
			C118.536,161.043,117.591,161.78,117.54,162.884z"/>
		<path fill="#FFFFFF" d="M116.719,158.096l0.06-1.298l2.338,0.107l0.118-2.599l-2.338-0.107l0.06-1.298l6.104,0.279l-0.06,1.298
			l-2.598-0.119l-0.119,2.599l2.598,0.119l-0.06,1.298L116.719,158.096z"/>
		<path fill="#FFFFFF" d="M117.033,151.214l0.059-1.272l4.155,0.19l-4.044-2.619l0.068-1.494l6.104,0.279l-0.058,1.273l-4.156-0.19
			l4.045,2.618l-0.068,1.494L117.033,151.214z"/>
		<path fill="#FFFFFF" d="M123.44,144.871l-0.13-0.006l-2.271-2.134c-0.161,1.243-1.038,1.918-1.83,1.881
			c-1.104-0.05-1.838-0.799-1.77-2.293l0.116-2.532l6.104,0.279l-0.055,1.195l-2.493-0.114l-0.011,0.232l2.401,2.128L123.44,144.871
			z M120.036,142.477l0.064-1.402l-1.559-0.071l-0.067,1.467c-0.025,0.559,0.285,0.885,0.739,0.906
			C119.682,143.397,120.011,143.034,120.036,142.477z"/>
	</g>
	<g>
		<path fill="#FFFFFF" d="M396.098,36.653c0,0-3.378,1.785-7.404,4.844l-1.067-0.741l0.148-0.214
			c3.095-2.266,6.083-4.037,7.181-4.682l-3.982-2.769l0.734-1.057l5.125,3.562L396.098,36.653z"/>
		<path fill="#FFFFFF" d="M396.82,41.762l-0.816,1.174l-2.775-1.929l0.815-1.174L396.82,41.762z"/>
		<path fill="#FFFFFF" d="M394.992,45.874l0.074-0.106l3.016-0.785c-0.966-0.798-1.07-1.899-0.617-2.551
			c0.63-0.907,1.654-1.13,2.883-0.276l2.082,1.447l-3.488,5.018l-0.982-0.683l1.426-2.05l-0.192-0.133l-3.079,0.898L394.992,45.874z
			 M398.832,44.268l1.152,0.801l0.891-1.281l-1.207-0.838c-0.459-0.318-0.9-0.229-1.16,0.145
			C398.241,43.478,398.373,43.95,398.832,44.268z"/>
		<path fill="#FFFFFF" d="M412.459,46.139c1.174,0.816,1.977,2.166,2.057,3.646l-1.267,0.228c-0.015-1.118-0.457-2.075-1.472-2.78
			c-1.814-1.261-3.852-0.697-5.047,1.021c-1.194,1.719-1.012,3.824,0.856,5.123c1.014,0.705,2.065,0.785,3.118,0.41l0.229,1.266
			c-1.415,0.441-2.959,0.16-4.135-0.656c-2.348-1.633-2.795-4.635-1.207-6.92C407.187,45.182,410.163,44.543,412.459,46.139z"/>
		<path fill="#FFFFFF" d="M416.967,53.547c1.389,0.965,1.873,2.885,0.798,4.434c-1.075,1.547-3.045,1.762-4.433,0.797
			c-1.389-0.965-1.874-2.885-0.799-4.433C413.609,52.797,415.579,52.583,416.967,53.547z M414,57.818
			c1.014,0.705,2.066,0.328,2.697-0.579s0.617-2.025-0.398-2.73c-1.014-0.705-2.066-0.328-2.697,0.579
			C412.972,55.995,412.985,57.113,414,57.818z"/>
		<path fill="#FFFFFF" d="M420.576,56.214l2.135,1.483c1.175,0.816,1.406,1.849,0.812,2.703c-0.273,0.395-0.747,0.619-1.302,0.599
			c0.278,0.557,0.267,1.119-0.038,1.557c-0.631,0.907-1.732,1.013-2.906,0.196l-2.188-1.521L420.576,56.214z M420.022,61.909
			c0.427,0.296,0.872,0.226,1.095-0.095c0.296-0.427,0.088-0.81-0.286-1.069l-1.249-0.868l-0.809,1.163L420.022,61.909z
			 M421.355,59.763c0.373,0.26,0.805,0.322,1.064-0.052c0.26-0.373,0.133-0.762-0.293-1.059l-1.143-0.794l-0.771,1.11
			L421.355,59.763z"/>
		<path fill="#FFFFFF" d="M424.625,63.145c-0.519,0.747-0.431,1.758,0.477,2.389c0.642,0.445,1.301,0.43,1.758,0.113l0.6,1.051
			c-0.945,0.45-2.064,0.465-3.078-0.24c-1.335-0.928-1.714-2.774-0.639-4.322c1.076-1.549,2.887-1.873,4.273-0.909
			c1.282,0.891,1.645,2.646,0.568,4.194l-0.329,0.247L424.625,63.145z M425.331,62.243l2.562,1.78
			c0.333-0.593,0.095-1.391-0.546-1.836C426.602,61.667,425.877,61.797,425.331,62.243z"/>
		<path fill="#FFFFFF" d="M430.557,63.151l4.271,2.967l-0.668,0.961l-1.601-1.113l-2.82,4.058l-1.066-0.741l2.818-4.058
			l-1.602-1.113L430.557,63.151z"/>
		<path fill="#FFFFFF" d="M434.922,72.359c0.641,0.445,1.429,0.359,1.896,0.052l0.516,1.148c-0.936,0.459-2.119,0.428-3.133-0.277
			c-1.346-0.934-1.82-2.848-0.744-4.396c1.075-1.548,3.035-1.77,4.379-0.835c1.016,0.705,1.444,1.795,1.342,2.832l-1.257-0.082
			c0.126-0.546-0.058-1.307-0.698-1.752c-1.015-0.705-2.089-0.344-2.72,0.564C433.873,70.52,433.908,71.654,434.922,72.359z"/>
		<path fill="#FFFFFF" d="M444.061,72.536l1.389,0.965l-4.091,0.735l0.71,4.356l-1.389-0.965l-0.65-3.619l-1.484,2.135l-1.066-0.742
			l3.486-5.018l1.068,0.742l-1.41,2.029L444.061,72.536z"/>
		<path fill="#FFFFFF" d="M447.299,82.227l-0.961-0.668l0.19-0.501l-0.016-0.091l-0.091,0.017c-0.543,0.099-1.225-0.06-1.76-0.431
			c-1.387-0.965-1.819-2.848-0.744-4.396c1.076-1.548,2.993-1.799,4.381-0.835c0.533,0.371,0.919,0.956,1.017,1.499l0.017,0.09
			l0.09-0.016l0.404-0.354l0.96,0.668L447.299,82.227z M447.684,76.321c-1.014-0.705-2.078-0.336-2.709,0.57
			c-0.63,0.908-0.605,2.033,0.41,2.738c0.907,0.631,2.066,0.328,2.697-0.578C448.713,78.143,448.592,76.952,447.684,76.321z"/>
		<path fill="#FFFFFF" d="M448.473,83.043l0.074-0.107l3.017-0.785c-0.966-0.798-1.07-1.9-0.618-2.551
			c0.631-0.908,1.656-1.129,2.883-0.276l2.082,1.446l-3.486,5.018l-0.982-0.682l1.424-2.051l-0.191-0.133l-3.08,0.9L448.473,83.043z
			 M452.312,81.437l1.153,0.802l0.89-1.281l-1.205-0.839c-0.46-0.319-0.901-0.229-1.161,0.144
			C451.723,80.647,451.854,81.118,452.312,81.437z"/>
		<path fill="#FFFFFF" d="M462.85,85.593l1.067,0.741l-7.64,5.299l-1.068-0.742l2.99-2.07l1.341-5.527l1.079,0.75l-0.982,3.781
			L462.85,85.593z"/>
		<path fill="#FFFFFF" d="M464.824,86.965l3.949,2.746l-3.486,5.018l-1.068-0.743l2.818-4.058l-1.814-1.261l-1.817,2.616
			c-0.741,1.067-1.79,1.209-2.804,0.505l-0.087-0.219l0.668-0.96l0.214,0.148c0.32,0.223,0.682,0.157,0.904-0.163L464.824,86.965z"
			/>
		<path fill="#FFFFFF" d="M467.317,94.083l1.282,0.891l-0.965,1.387l-1.281-0.891L467.317,94.083z"/>
	</g>
	<g>
		<path fill="#FFFFFF" d="M365.66,82.006c1.281,0.891,1.654,2.496,0.717,3.822l-1.068-0.742c0.557-0.8,0.299-1.613-0.396-2.096
			c-1.419-0.986-3.052,0.634-3.772,1.715c0.696-0.227,1.621-0.281,2.422,0.275c1.547,1.075,1.639,2.881,0.711,4.215
			c-0.89,1.281-2.672,1.863-4.221,0.787c-0.938-0.652-1.381-1.656-1.34-2.672c0.043-1.064,0.608-2.174,1.369-3.244
			C361.512,82.052,363.664,80.619,365.66,82.006z M363.206,88.453c0.594-0.854,0.452-1.902-0.445-2.525
			c-0.854-0.594-1.857-0.357-2.458,0.508c-0.557,0.801-0.424,1.906,0.431,2.5S362.613,89.307,363.206,88.453z"/>
		<path fill="#FFFFFF" d="M368.543,90.342l-0.815,1.174l-2.776-1.929l0.816-1.174L368.543,90.342z"/>
		<path fill="#FFFFFF" d="M366.715,94.454l0.074-0.106l3.016-0.787c-0.967-0.797-1.07-1.898-0.618-2.551
			c0.63-0.906,1.655-1.129,2.883-0.275l2.082,1.447l-3.487,5.018l-0.982-0.684l1.425-2.049l-0.192-0.134l-3.079,0.899
			L366.715,94.454z M370.554,92.848l1.153,0.801l0.89-1.281l-1.206-0.838c-0.459-0.319-0.9-0.23-1.16,0.144
			C369.963,92.057,370.095,92.528,370.554,92.848z"/>
		<path fill="#FFFFFF" d="M384.182,94.719c1.174,0.816,1.977,2.166,2.057,3.646l-1.268,0.227c-0.014-1.117-0.457-2.074-1.471-2.779
			c-1.815-1.261-3.853-0.698-5.047,1.021c-1.195,1.718-1.013,3.824,0.855,5.123c1.016,0.705,2.066,0.785,3.119,0.41l0.229,1.266
			c-1.416,0.441-2.96,0.16-4.135-0.656c-2.348-1.633-2.795-4.635-1.207-6.92C378.909,93.762,381.886,93.124,384.182,94.719z"/>
		<path fill="#FFFFFF" d="M388.689,102.127c1.389,0.965,1.874,2.885,0.799,4.434c-1.076,1.548-3.047,1.762-4.435,0.797
			s-1.874-2.885-0.798-4.434C385.332,101.376,387.301,101.162,388.689,102.127z M385.722,106.396
			c1.015,0.705,2.067,0.328,2.698-0.578c0.631-0.908,0.616-2.025-0.398-2.73c-1.014-0.705-2.066-0.328-2.697,0.578
			C384.693,104.574,384.707,105.691,385.722,106.396z"/>
		<path fill="#FFFFFF" d="M392.299,104.793l2.135,1.484c1.174,0.816,1.406,1.848,0.812,2.702c-0.274,0.396-0.748,0.62-1.303,0.599
			c0.278,0.557,0.268,1.12-0.036,1.558c-0.631,0.907-1.733,1.013-2.907,0.196l-2.189-1.521L392.299,104.793z M391.744,110.487
			c0.427,0.297,0.872,0.227,1.095-0.094c0.296-0.427,0.088-0.81-0.286-1.069l-1.249-0.869l-0.809,1.164L391.744,110.487z
			 M393.077,108.343c0.374,0.259,0.805,0.321,1.064-0.052s0.134-0.762-0.293-1.059l-1.143-0.795l-0.771,1.111L393.077,108.343z"/>
		<path fill="#FFFFFF" d="M396.348,111.725c-0.52,0.746-0.432,1.758,0.477,2.389c0.641,0.445,1.301,0.429,1.758,0.113l0.6,1.05
			c-0.946,0.45-2.064,0.465-3.079-0.24c-1.335-0.927-1.714-2.774-0.638-4.321c1.076-1.549,2.887-1.873,4.273-0.91
			c1.281,0.891,1.645,2.647,0.568,4.195l-0.33,0.246L396.348,111.725z M397.053,110.821l2.562,1.78
			c0.333-0.592,0.096-1.391-0.545-1.836C398.323,110.247,397.6,110.377,397.053,110.821z"/>
		<path fill="#FFFFFF" d="M402.279,111.729l4.27,2.968l-0.668,0.961l-1.602-1.113l-2.818,4.057l-1.067-0.741l2.819-4.058
			l-1.602-1.113L402.279,111.729z"/>
		<path fill="#FFFFFF" d="M406.645,120.938c0.641,0.445,1.428,0.359,1.896,0.052l0.516,1.149c-0.936,0.458-2.118,0.428-3.133-0.277
			c-1.345-0.935-1.819-2.848-0.744-4.396c1.075-1.548,3.035-1.77,4.38-0.834c1.015,0.705,1.444,1.795,1.342,2.832l-1.258-0.082
			c0.126-0.547-0.058-1.307-0.698-1.752c-1.015-0.705-2.089-0.344-2.72,0.564C405.595,119.1,405.631,120.232,406.645,120.938z"/>
		<path fill="#FFFFFF" d="M415.783,121.115l1.389,0.965l-4.09,0.736l0.709,4.355l-1.389-0.965l-0.65-3.619l-1.484,2.135
			l-1.066-0.741l3.486-5.018l1.068,0.741l-1.41,2.029L415.783,121.115z"/>
		<path fill="#FFFFFF" d="M419.021,130.807l-0.961-0.668l0.189-0.502l-0.016-0.09l-0.09,0.016c-0.543,0.099-1.226-0.059-1.76-0.431
			c-1.387-0.964-1.82-2.848-0.744-4.396c1.076-1.549,2.992-1.799,4.38-0.836c0.534,0.372,0.919,0.957,1.017,1.499l0.018,0.091
			l0.09-0.017l0.403-0.353l0.96,0.668L419.021,130.807z M419.406,124.899c-1.015-0.705-2.078-0.336-2.709,0.571
			s-0.605,2.033,0.409,2.738c0.907,0.631,2.067,0.328,2.698-0.579S420.312,125.529,419.406,124.899z"/>
		<path fill="#FFFFFF" d="M420.195,131.623l0.074-0.107l3.016-0.785c-0.965-0.799-1.07-1.9-0.617-2.551
			c0.63-0.908,1.655-1.13,2.883-0.276l2.082,1.446l-3.488,5.018l-0.981-0.683l1.425-2.05l-0.191-0.133l-3.08,0.899L420.195,131.623z
			 M424.035,130.016l1.152,0.802l0.891-1.281l-1.206-0.838c-0.46-0.319-0.901-0.229-1.161,0.144
			C423.445,129.227,423.576,129.697,424.035,130.016z"/>
		<path fill="#FFFFFF" d="M434.572,134.172l1.066,0.742l-7.64,5.299l-1.067-0.742l2.989-2.07l1.341-5.527l1.079,0.749l-0.982,3.781
			L434.572,134.172z"/>
		<path fill="#FFFFFF" d="M436.546,135.545l3.95,2.745l-3.487,5.018l-1.068-0.743l2.819-4.057l-1.814-1.262l-1.818,2.617
			c-0.741,1.066-1.789,1.209-2.803,0.504l-0.088-0.219l0.668-0.96l0.214,0.148c0.321,0.224,0.683,0.157,0.905-0.163L436.546,135.545
			z"/>
		<path fill="#FFFFFF" d="M439.039,142.661l1.282,0.891l-0.964,1.388l-1.282-0.891L439.039,142.661z"/>
	</g>
	<g>
		<path fill="#FFFFFF" d="M336.232,136.197c-1.076,1.548-3.174,1.831-4.668,0.792c-1.548-1.075-1.922-3.156-0.92-4.597l1.066,0.741
			c-0.631,0.907-0.383,2.124,0.588,2.799c0.973,0.676,2.161,0.536,2.865-0.478c0.742-1.068,0.472-2.158-0.521-2.896
			c-0.626-0.465-1.106-0.752-1.905-1.244l0.225-1.348l2.65-1.879l3.577,2.486l-0.734,1.057l-2.903-2.018l-1.619,1.075
			c0.268,0.14,0.953,0.521,1.414,0.856C336.981,132.727,337.383,134.542,336.232,136.197z"/>
		<path fill="#FFFFFF" d="M340.566,137.705l-0.815,1.174l-2.776-1.93l0.816-1.174L340.566,137.705z"/>
		<path fill="#FFFFFF" d="M338.737,141.816l0.074-0.107l3.017-0.785c-0.967-0.797-1.07-1.899-0.618-2.551
			c0.63-0.907,1.655-1.129,2.883-0.275l2.082,1.446l-3.487,5.018l-0.982-0.683l1.425-2.05l-0.191-0.134l-3.08,0.9L338.737,141.816z
			 M342.577,140.211l1.153,0.801l0.89-1.281l-1.206-0.838c-0.459-0.32-0.9-0.23-1.16,0.143
			C341.986,139.42,342.118,139.892,342.577,140.211z"/>
		<path fill="#FFFFFF" d="M356.205,142.082c1.174,0.816,1.978,2.166,2.057,3.646l-1.266,0.228c-0.015-1.118-0.458-2.075-1.473-2.78
			c-1.814-1.261-3.852-0.698-5.047,1.021c-1.193,1.718-1.012,3.824,0.857,5.123c1.014,0.705,2.064,0.785,3.118,0.41l0.229,1.266
			c-1.415,0.441-2.96,0.16-4.135-0.656c-2.349-1.633-2.795-4.635-1.208-6.919C350.934,141.126,353.91,140.487,356.205,142.082z"/>
		<path fill="#FFFFFF" d="M360.714,149.49c1.388,0.965,1.874,2.885,0.798,4.434c-1.076,1.548-3.045,1.762-4.434,0.797
			s-1.873-2.885-0.798-4.433S359.326,148.525,360.714,149.49z M357.746,153.761c1.015,0.705,2.067,0.328,2.697-0.579
			c0.631-0.907,0.617-2.025-0.397-2.73s-2.067-0.328-2.698,0.579C356.718,151.938,356.732,153.056,357.746,153.761z"/>
		<path fill="#FFFFFF" d="M364.322,152.156l2.135,1.484c1.175,0.816,1.406,1.848,0.812,2.701c-0.274,0.396-0.748,0.621-1.302,0.6
			c0.278,0.557,0.267,1.119-0.038,1.557c-0.631,0.908-1.732,1.013-2.906,0.197l-2.188-1.521L364.322,152.156z M363.768,157.851
			c0.428,0.296,0.873,0.226,1.096-0.095c0.296-0.426,0.087-0.809-0.287-1.068l-1.249-0.869l-0.809,1.164L363.768,157.851z
			 M365.102,155.705c0.373,0.26,0.804,0.322,1.063-0.051c0.26-0.374,0.134-0.763-0.292-1.059l-1.144-0.795l-0.771,1.11
			L365.102,155.705z"/>
		<path fill="#FFFFFF" d="M368.371,159.087c-0.52,0.747-0.432,1.759,0.477,2.39c0.641,0.445,1.301,0.428,1.758,0.113l0.6,1.05
			c-0.945,0.45-2.064,0.465-3.079-0.24c-1.334-0.927-1.713-2.774-0.638-4.321c1.076-1.549,2.887-1.874,4.273-0.91
			c1.281,0.891,1.645,2.646,0.568,4.195l-0.33,0.246L368.371,159.087z M369.077,158.185l2.562,1.78
			c0.333-0.592,0.096-1.391-0.545-1.836C370.347,157.609,369.623,157.74,369.077,158.185z"/>
		<path fill="#FFFFFF" d="M374.303,159.093l4.27,2.968l-0.668,0.961l-1.601-1.113l-2.819,4.057l-1.067-0.742l2.819-4.057
			l-1.602-1.113L374.303,159.093z"/>
		<path fill="#FFFFFF" d="M378.669,168.302c0.641,0.445,1.429,0.358,1.896,0.052l0.516,1.148c-0.936,0.458-2.118,0.428-3.133-0.277
			c-1.345-0.935-1.82-2.848-0.744-4.396s3.035-1.771,4.38-0.835c1.015,0.705,1.444,1.795,1.341,2.832l-1.256-0.082
			c0.125-0.546-0.059-1.307-0.699-1.752c-1.014-0.705-2.088-0.344-2.719,0.564C377.619,166.463,377.654,167.597,378.669,168.302z"/>
		<path fill="#FFFFFF" d="M387.807,168.479l1.389,0.965l-4.09,0.735l0.709,4.355l-1.387-0.964l-0.652-3.619l-1.484,2.135
			l-1.066-0.742l3.486-5.018l1.068,0.742l-1.41,2.028L387.807,168.479z"/>
		<path fill="#FFFFFF" d="M391.045,178.17l-0.961-0.668l0.191-0.501l-0.016-0.091l-0.092,0.017c-0.543,0.098-1.225-0.06-1.759-0.431
			c-1.388-0.965-1.819-2.849-0.744-4.396c1.075-1.549,2.993-1.799,4.38-0.835c0.534,0.371,0.92,0.956,1.018,1.499l0.016,0.09
			l0.09-0.016l0.404-0.354l0.961,0.668L391.045,178.17z M391.431,172.263c-1.015-0.704-2.078-0.335-2.709,0.571
			c-0.63,0.908-0.605,2.033,0.409,2.738c0.906,0.631,2.066,0.328,2.697-0.579S392.338,172.893,391.431,172.263z"/>
		<path fill="#FFFFFF" d="M392.219,178.985l0.074-0.106l3.016-0.786c-0.965-0.798-1.07-1.899-0.617-2.551
			c0.631-0.907,1.655-1.129,2.883-0.276l2.082,1.447l-3.487,5.018l-0.982-0.683l1.425-2.05l-0.191-0.133l-3.08,0.898
			L392.219,178.985z M396.059,177.379l1.152,0.802l0.891-1.281l-1.206-0.839c-0.46-0.318-0.901-0.229-1.161,0.145
			C395.469,176.589,395.6,177.061,396.059,177.379z"/>
		<path fill="#FFFFFF" d="M406.596,181.535l1.066,0.742l-7.64,5.298l-1.067-0.741l2.99-2.07l1.34-5.528l1.079,0.749l-0.982,3.782
			L406.596,181.535z"/>
		<path fill="#FFFFFF" d="M408.57,182.908l3.95,2.745l-3.487,5.018l-1.068-0.742l2.819-4.058l-1.814-1.261l-1.817,2.616
			c-0.742,1.067-1.791,1.209-2.805,0.504l-0.086-0.218l0.668-0.96l0.213,0.148c0.32,0.223,0.682,0.157,0.904-0.163L408.57,182.908z"
			/>
		<path fill="#FFFFFF" d="M411.064,190.024l1.281,0.891l-0.965,1.388l-1.281-0.891L411.064,190.024z"/>
	</g>
	<g>
		<path fill="#FFFFFF" d="M303.144,177.792c3.761-1.425,6.504-2.525,6.504-2.525l1.388,0.965l-3.301,4.75l0.854,0.594l-0.705,1.015
			l-0.854-0.594l-1.41,2.028l-1.068-0.742l1.41-2.028l-3.523-2.448L303.144,177.792z M306.667,180.239l2.367-3.405
			c-1.257,0.487-2.994,1.165-4.694,1.788L306.667,180.239z"/>
		<path fill="#FFFFFF" d="M312.413,183.362l-0.816,1.174l-2.776-1.929l0.816-1.174L312.413,183.362z"/>
		<path fill="#FFFFFF" d="M310.584,187.475l0.074-0.106l3.016-0.787c-0.966-0.797-1.07-1.898-0.618-2.551
			c0.63-0.906,1.655-1.129,2.883-0.275l2.082,1.447l-3.487,5.018l-0.982-0.684l1.425-2.049l-0.192-0.134l-3.08,0.899
			L310.584,187.475z M314.423,185.868l1.153,0.801l0.89-1.281l-1.206-0.838c-0.459-0.319-0.901-0.23-1.161,0.144
			C313.833,185.077,313.964,185.549,314.423,185.868z"/>
		<path fill="#FFFFFF" d="M328.051,187.739c1.174,0.816,1.977,2.166,2.057,3.646l-1.267,0.227c-0.015-1.117-0.457-2.074-1.472-2.779
			c-1.814-1.261-3.852-0.698-5.047,1.021c-1.194,1.718-1.012,3.824,0.856,5.123c1.015,0.705,2.065,0.785,3.118,0.41l0.229,1.266
			c-1.415,0.441-2.959,0.16-4.135-0.656c-2.348-1.633-2.794-4.635-1.207-6.92C322.779,186.782,325.756,186.145,328.051,187.739z"/>
		<path fill="#FFFFFF" d="M332.559,195.147c1.389,0.965,1.875,2.885,0.799,4.434c-1.076,1.548-3.046,1.762-4.434,0.797
			c-1.389-0.965-1.874-2.885-0.799-4.434C329.201,194.396,331.171,194.183,332.559,195.147z M329.592,199.417
			c1.014,0.705,2.066,0.328,2.697-0.578c0.631-0.908,0.617-2.025-0.398-2.73c-1.014-0.705-2.066-0.328-2.697,0.578
			C328.563,197.595,328.577,198.712,329.592,199.417z"/>
		<path fill="#FFFFFF" d="M336.168,197.813l2.135,1.484c1.175,0.816,1.406,1.848,0.812,2.702c-0.273,0.396-0.747,0.62-1.302,0.599
			c0.278,0.557,0.267,1.12-0.036,1.558c-0.631,0.907-1.734,1.013-2.908,0.196l-2.188-1.521L336.168,197.813z M335.614,203.508
			c0.427,0.297,0.872,0.227,1.095-0.094c0.296-0.427,0.088-0.81-0.286-1.069l-1.249-0.869l-0.809,1.164L335.614,203.508z
			 M336.947,201.363c0.373,0.259,0.805,0.321,1.064-0.052s0.133-0.762-0.293-1.059l-1.143-0.795l-0.771,1.111L336.947,201.363z"/>
		<path fill="#FFFFFF" d="M340.217,204.745c-0.519,0.746-0.431,1.758,0.477,2.389c0.641,0.445,1.301,0.429,1.758,0.113l0.6,1.05
			c-0.945,0.45-2.064,0.465-3.078-0.24c-1.335-0.927-1.714-2.774-0.639-4.321c1.076-1.549,2.887-1.873,4.273-0.91
			c1.282,0.891,1.645,2.647,0.568,4.195l-0.329,0.246L340.217,204.745z M340.923,203.842l2.562,1.78
			c0.333-0.592,0.095-1.391-0.546-1.836C342.193,203.268,341.469,203.397,340.923,203.842z"/>
		<path fill="#FFFFFF" d="M346.148,204.75l4.271,2.968l-0.668,0.961l-1.602-1.113l-2.819,4.057l-1.066-0.741l2.818-4.058
			l-1.602-1.113L346.148,204.75z"/>
		<path fill="#FFFFFF" d="M350.514,213.958c0.641,0.445,1.429,0.359,1.896,0.052l0.516,1.149c-0.936,0.458-2.119,0.428-3.133-0.277
			c-1.346-0.935-1.82-2.848-0.744-4.396c1.075-1.548,3.035-1.77,4.379-0.834c1.016,0.705,1.445,1.795,1.342,2.832l-1.257-0.082
			c0.126-0.547-0.058-1.307-0.698-1.752c-1.015-0.705-2.089-0.344-2.72,0.564C349.465,212.12,349.5,213.253,350.514,213.958z"/>
		<path fill="#FFFFFF" d="M359.653,214.136l1.388,0.965l-4.09,0.736l0.709,4.355l-1.388-0.965l-0.651-3.619l-1.483,2.135
			l-1.067-0.741l3.487-5.018l1.067,0.741l-1.41,2.029L359.653,214.136z"/>
		<path fill="#FFFFFF" d="M362.891,223.827l-0.961-0.668l0.19-0.502l-0.016-0.09l-0.091,0.016c-0.543,0.099-1.225-0.059-1.76-0.431
			c-1.387-0.964-1.819-2.848-0.744-4.396c1.076-1.549,2.993-1.799,4.381-0.836c0.533,0.372,0.919,0.957,1.017,1.499l0.017,0.091
			l0.09-0.017l0.404-0.353l0.96,0.668L362.891,223.827z M363.275,217.92c-1.014-0.705-2.078-0.336-2.709,0.571
			c-0.63,0.907-0.605,2.033,0.41,2.738c0.906,0.631,2.066,0.328,2.697-0.579S364.183,218.55,363.275,217.92z"/>
		<path fill="#FFFFFF" d="M364.065,224.644l0.074-0.107l3.016-0.785c-0.966-0.799-1.071-1.9-0.618-2.551
			c0.631-0.908,1.656-1.13,2.883-0.276l2.082,1.446l-3.487,5.018l-0.981-0.683l1.424-2.05l-0.191-0.133l-3.08,0.899L364.065,224.644
			z M367.904,223.036l1.153,0.802l0.89-1.281l-1.205-0.838c-0.46-0.319-0.901-0.229-1.161,0.144
			C367.314,222.247,367.445,222.718,367.904,223.036z"/>
		<path fill="#FFFFFF" d="M378.441,227.192l1.066,0.742l-7.639,5.299l-1.068-0.742l2.99-2.07l1.341-5.527l1.079,0.749l-0.982,3.781
			L378.441,227.192z"/>
		<path fill="#FFFFFF" d="M380.416,228.565l3.949,2.745l-3.486,5.018l-1.068-0.743l2.818-4.057l-1.814-1.262l-1.817,2.617
			c-0.741,1.066-1.79,1.209-2.804,0.504l-0.087-0.219l0.668-0.96l0.214,0.148c0.32,0.224,0.682,0.157,0.904-0.163L380.416,228.565z"
			/>
		<path fill="#FFFFFF" d="M382.909,235.682l1.282,0.891l-0.965,1.388l-1.281-0.891L382.909,235.682z"/>
	</g>
	<g>
		<path fill="#FFFFFF" d="M281.721,226.227l-3.568,0.26c1.347,1.045,1.627,2.76,0.663,4.148c-0.853,1.228-2.757,1.805-4.306,0.729
			c-1.494-1.039-1.784-2.902-0.893-4.183l1.068,0.742c-0.556,0.8-0.324,1.833,0.53,2.427c0.854,0.593,1.977,0.344,2.533-0.457
			c0.668-0.961,0.382-2.029-0.526-2.66l-1.078-0.749l0.668-0.962l3.467-0.297l-3.256-2.263l0.734-1.057l4.056,2.819L281.721,226.227
			z"/>
		<path fill="#FFFFFF" d="M283.299,231.93l-0.816,1.174l-2.776-1.929l0.816-1.174L283.299,231.93z"/>
		<path fill="#FFFFFF" d="M281.47,236.042l0.074-0.106l3.016-0.787c-0.966-0.797-1.07-1.898-0.618-2.551
			c0.63-0.906,1.655-1.129,2.883-0.275l2.082,1.447l-3.487,5.018l-0.982-0.684l1.425-2.049l-0.192-0.134l-3.08,0.899L281.47,236.042
			z M285.31,234.436l1.153,0.801l0.89-1.281l-1.206-0.838c-0.459-0.319-0.901-0.23-1.161,0.144
			C284.719,233.645,284.851,234.116,285.31,234.436z"/>
		<path fill="#FFFFFF" d="M298.937,236.307c1.174,0.816,1.977,2.166,2.057,3.646l-1.267,0.227c-0.014-1.117-0.457-2.074-1.472-2.779
			c-1.815-1.261-3.852-0.698-5.047,1.021c-1.194,1.718-1.012,3.824,0.856,5.123c1.015,0.705,2.066,0.785,3.119,0.41l0.229,1.266
			c-1.416,0.441-2.96,0.16-4.135-0.656c-2.348-1.633-2.795-4.635-1.208-6.92C293.665,235.35,296.642,234.712,298.937,236.307z"/>
		<path fill="#FFFFFF" d="M303.445,243.715c1.388,0.965,1.874,2.885,0.798,4.434c-1.076,1.548-3.046,1.762-4.434,0.797
			s-1.874-2.885-0.798-4.434C300.087,242.964,302.057,242.75,303.445,243.715z M300.478,247.984
			c1.015,0.705,2.067,0.328,2.698-0.578c0.631-0.908,0.617-2.025-0.398-2.73c-1.014-0.705-2.066-0.328-2.697,0.578
			C299.45,246.162,299.463,247.279,300.478,247.984z"/>
		<path fill="#FFFFFF" d="M307.054,246.381l2.135,1.484c1.175,0.816,1.407,1.848,0.813,2.702c-0.274,0.396-0.748,0.62-1.302,0.599
			c0.278,0.557,0.267,1.12-0.037,1.558c-0.631,0.907-1.733,1.013-2.908,0.196l-2.188-1.521L307.054,246.381z M306.5,252.075
			c0.426,0.297,0.872,0.227,1.094-0.094c0.296-0.427,0.088-0.81-0.286-1.069l-1.25-0.869l-0.809,1.164L306.5,252.075z
			 M307.833,249.931c0.374,0.259,0.805,0.321,1.064-0.052s0.134-0.762-0.293-1.059l-1.143-0.795l-0.771,1.111L307.833,249.931z"/>
		<path fill="#FFFFFF" d="M311.104,253.312c-0.519,0.746-0.431,1.758,0.477,2.389c0.641,0.445,1.301,0.429,1.758,0.113l0.6,1.05
			c-0.946,0.45-2.064,0.465-3.079-0.24c-1.334-0.927-1.713-2.774-0.638-4.321c1.076-1.549,2.886-1.873,4.273-0.91
			c1.282,0.891,1.644,2.647,0.568,4.195l-0.33,0.246L311.104,253.312z M311.809,252.409l2.562,1.78
			c0.333-0.592,0.095-1.391-0.545-1.836C313.079,251.835,312.355,251.965,311.809,252.409z"/>
		<path fill="#FFFFFF" d="M317.035,253.317l4.27,2.968l-0.667,0.961l-1.602-1.113l-2.819,4.057l-1.067-0.741l2.819-4.058
			l-1.602-1.113L317.035,253.317z"/>
		<path fill="#FFFFFF" d="M321.4,262.525c0.641,0.445,1.428,0.359,1.896,0.052l0.516,1.149c-0.936,0.458-2.118,0.428-3.133-0.277
			c-1.345-0.935-1.82-2.848-0.744-4.396c1.075-1.548,3.035-1.77,4.38-0.834c1.015,0.705,1.444,1.795,1.342,2.832l-1.258-0.082
			c0.126-0.547-0.058-1.307-0.698-1.752c-1.015-0.705-2.089-0.344-2.719,0.564C320.351,260.688,320.386,261.82,321.4,262.525z"/>
		<path fill="#FFFFFF" d="M330.539,262.703l1.389,0.965l-4.09,0.736l0.709,4.355l-1.389-0.965l-0.65-3.619l-1.484,2.135
			l-1.066-0.741l3.486-5.018l1.068,0.741l-1.41,2.029L330.539,262.703z"/>
		<path fill="#FFFFFF" d="M333.777,272.395l-0.961-0.668l0.189-0.502l-0.016-0.09l-0.09,0.016c-0.543,0.099-1.226-0.059-1.76-0.431
			c-1.387-0.964-1.82-2.848-0.744-4.396c1.076-1.549,2.992-1.799,4.38-0.836c0.534,0.372,0.919,0.957,1.017,1.499l0.018,0.091
			l0.09-0.017l0.403-0.353l0.96,0.668L333.777,272.395z M334.162,266.487c-1.015-0.705-2.078-0.336-2.709,0.571
			s-0.605,2.033,0.409,2.738c0.907,0.631,2.067,0.328,2.698-0.579S335.068,267.117,334.162,266.487z"/>
		<path fill="#FFFFFF" d="M334.951,273.211l0.074-0.107l3.016-0.785c-0.965-0.799-1.07-1.9-0.617-2.551
			c0.63-0.908,1.655-1.13,2.883-0.276l2.082,1.446l-3.488,5.018l-0.981-0.683l1.425-2.05l-0.191-0.133l-3.08,0.899L334.951,273.211z
			 M338.791,271.604l1.152,0.802l0.891-1.281l-1.206-0.838c-0.46-0.319-0.901-0.229-1.161,0.144
			C338.201,270.814,338.332,271.285,338.791,271.604z"/>
		<path fill="#FFFFFF" d="M349.328,275.76l1.066,0.742l-7.64,5.299l-1.067-0.742l2.989-2.07l1.341-5.527l1.079,0.749l-0.982,3.781
			L349.328,275.76z"/>
		<path fill="#FFFFFF" d="M351.302,277.133l3.95,2.745l-3.487,5.018l-1.068-0.743l2.819-4.057l-1.814-1.262l-1.818,2.617
			c-0.741,1.066-1.789,1.209-2.803,0.504l-0.088-0.219l0.668-0.96l0.214,0.148c0.321,0.224,0.683,0.157,0.905-0.163L351.302,277.133
			z"/>
		<path fill="#FFFFFF" d="M353.795,284.249l1.282,0.891l-0.964,1.388l-1.282-0.891L353.795,284.249z"/>
	</g>
	<g>
		<path fill="#FFFFFF" d="M253.808,261.151c0.965-1.387,2.806-1.531,4.087-0.643c1.281,0.891,1.862,2.561,0.823,4.055
			c-0.667,0.961-1.717,1.15-2.477,1.287c-2.171,0.391-3.914,0.051-4.329,0.648l3.576,2.484l-0.735,1.059l-4.91-3.412l0.371-0.535
			c1.001-1.441,3.554-1.012,5.725-1.404c0.616-0.109,1.23-0.174,1.712-0.867c0.594-0.855,0.219-1.795-0.476-2.279
			c-0.694-0.48-1.717-0.512-2.311,0.342l-0.223,0.32l-1.057-0.734L253.808,261.151z"/>
		<path fill="#FFFFFF" d="M261.013,269.009l-0.816,1.174l-2.776-1.93l0.816-1.174L261.013,269.009z"/>
		<path fill="#FFFFFF" d="M259.184,273.12l0.074-0.105l3.016-0.787c-0.966-0.797-1.07-1.898-0.618-2.551
			c0.63-0.906,1.655-1.129,2.883-0.275l2.082,1.447l-3.487,5.018l-0.982-0.684l1.425-2.049l-0.192-0.135l-3.08,0.9L259.184,273.12z
			 M263.023,271.515l1.153,0.801l0.89-1.281l-1.206-0.838c-0.459-0.32-0.901-0.23-1.161,0.143
			C262.433,270.724,262.564,271.194,263.023,271.515z"/>
		<path fill="#FFFFFF" d="M276.65,273.386c1.174,0.816,1.977,2.166,2.057,3.646l-1.267,0.227c-0.014-1.117-0.457-2.074-1.472-2.779
			c-1.815-1.262-3.852-0.699-5.047,1.021c-1.194,1.717-1.012,3.824,0.856,5.123c1.015,0.705,2.066,0.785,3.119,0.41l0.229,1.266
			c-1.416,0.441-2.96,0.16-4.135-0.656c-2.348-1.633-2.795-4.635-1.208-6.92C271.378,272.429,274.355,271.79,276.65,273.386z"/>
		<path fill="#FFFFFF" d="M281.159,280.794c1.388,0.965,1.874,2.885,0.798,4.434c-1.076,1.547-3.046,1.762-4.434,0.797
			s-1.874-2.885-0.798-4.434S279.771,279.829,281.159,280.794z M278.191,285.063c1.015,0.705,2.067,0.328,2.698-0.578
			c0.631-0.908,0.617-2.025-0.398-2.73c-1.014-0.705-2.066-0.328-2.697,0.578C277.163,283.241,277.177,284.358,278.191,285.063z"/>
		<path fill="#FFFFFF" d="M284.768,283.46l2.135,1.484c1.175,0.816,1.407,1.848,0.813,2.701c-0.274,0.396-0.748,0.621-1.302,0.6
			c0.278,0.557,0.267,1.119-0.037,1.557c-0.631,0.908-1.733,1.014-2.908,0.197l-2.188-1.521L284.768,283.46z M284.214,289.153
			c0.426,0.297,0.872,0.227,1.094-0.094c0.296-0.426,0.088-0.809-0.286-1.068l-1.25-0.869l-0.809,1.164L284.214,289.153z
			 M285.546,287.009c0.374,0.26,0.805,0.322,1.064-0.051s0.134-0.762-0.293-1.059l-1.143-0.795l-0.771,1.111L285.546,287.009z"/>
		<path fill="#FFFFFF" d="M288.817,290.392c-0.519,0.746-0.431,1.758,0.477,2.389c0.641,0.445,1.301,0.428,1.758,0.113l0.6,1.049
			c-0.946,0.451-2.064,0.465-3.079-0.24c-1.334-0.926-1.713-2.773-0.638-4.32c1.076-1.549,2.886-1.873,4.273-0.91
			c1.282,0.891,1.644,2.646,0.568,4.195l-0.33,0.246L288.817,290.392z M289.522,289.487l2.562,1.781
			c0.333-0.592,0.095-1.391-0.545-1.836C290.792,288.913,290.069,289.044,289.522,289.487z"/>
		<path fill="#FFFFFF" d="M294.749,290.396l4.27,2.969l-0.668,0.961l-1.602-1.113l-2.819,4.057l-1.067-0.742l2.819-4.057
			l-1.602-1.113L294.749,290.396z"/>
		<path fill="#FFFFFF" d="M299.114,299.604c0.641,0.445,1.428,0.359,1.896,0.051l0.516,1.15c-0.936,0.457-2.118,0.428-3.133-0.277
			c-1.345-0.936-1.82-2.848-0.744-4.396s3.035-1.77,4.38-0.834c1.015,0.705,1.444,1.795,1.341,2.832l-1.257-0.082
			c0.125-0.547-0.058-1.307-0.699-1.752c-1.014-0.705-2.088-0.344-2.719,0.564C298.064,297.767,298.1,298.899,299.114,299.604z"/>
		<path fill="#FFFFFF" d="M308.253,299.782l1.388,0.965l-4.09,0.736l0.709,4.355l-1.388-0.965l-0.651-3.619l-1.484,2.135
			l-1.067-0.742l3.487-5.018l1.067,0.742l-1.41,2.029L308.253,299.782z"/>
		<path fill="#FFFFFF" d="M311.49,309.474l-0.96-0.668l0.19-0.502l-0.016-0.09l-0.091,0.016c-0.543,0.098-1.225-0.059-1.759-0.432
			c-1.387-0.963-1.82-2.848-0.744-4.395c1.076-1.549,2.993-1.799,4.38-0.836c0.534,0.371,0.919,0.957,1.017,1.498l0.017,0.092
			l0.09-0.018l0.404-0.352l0.96,0.668L311.49,309.474z M311.875,303.565c-1.015-0.705-2.078-0.336-2.709,0.572
			c-0.63,0.906-0.605,2.033,0.409,2.738c0.907,0.631,2.067,0.328,2.698-0.58C312.904,305.39,312.782,304.196,311.875,303.565z"/>
		<path fill="#FFFFFF" d="M312.665,310.29l0.074-0.107l3.016-0.785c-0.966-0.799-1.071-1.9-0.618-2.551
			c0.63-0.908,1.656-1.131,2.883-0.277l2.082,1.447l-3.487,5.018l-0.982-0.684l1.425-2.049l-0.192-0.133l-3.08,0.898L312.665,310.29
			z M316.504,308.683l1.153,0.801l0.89-1.281l-1.206-0.838c-0.459-0.318-0.901-0.229-1.161,0.145
			C315.914,307.894,316.045,308.364,316.504,308.683z"/>
		<path fill="#FFFFFF" d="M327.041,312.839l1.066,0.742l-7.639,5.299l-1.067-0.742l2.99-2.07l1.341-5.527l1.079,0.748l-0.982,3.781
			L327.041,312.839z"/>
		<path fill="#FFFFFF" d="M329.016,314.212l3.949,2.744l-3.486,5.018l-1.068-0.742l2.818-4.057l-1.814-1.262l-1.817,2.617
			c-0.741,1.066-1.79,1.209-2.804,0.504l-0.087-0.219l0.668-0.961l0.214,0.148c0.32,0.225,0.682,0.158,0.904-0.162L329.016,314.212z
			"/>
		<path fill="#FFFFFF" d="M331.509,321.327l1.282,0.891l-0.965,1.389l-1.281-0.891L331.509,321.327z"/>
	</g>
	
		<line fill="none" stroke="#FFFFFF" stroke-width="2" stroke-linejoin="round" stroke-miterlimit="10" x1="70.13" y1="370.556" x2="50.288" y2="447.531"/>
	<g>
		<g>
			<path fill="#1BB372" d="M140.875,353.486h1.95v9.49h-1.352v-7.657l-2.678,5.577h-1.56l-2.678-5.577v7.657h-1.352v-9.49h1.95
				l2.86,6.058L140.875,353.486z"/>
		</g>
		
			<circle fill="none" stroke="#1BB372" stroke-width="2" stroke-linejoin="round" stroke-miterlimit="10" cx="138.156" cy="358.386" r="9.095"/>
	</g>
	<rect x="507.973" y="102.579" fill="#1BB372" width="72.178" height="22.782"/>
	<polyline fill="#1BB372" points="507.973,124.939 507.973,129.803 511.667,125.418 	"/>
	<g>
		<path fill="#FFFFFF" d="M513.627,114.569l2.471-3.056v1.495l-1.235,1.561l1.235,1.56v1.495L513.627,114.569z M518.178,111.514
			v1.495l-1.235,1.561l1.235,1.56v1.495l-2.471-3.055L518.178,111.514z"/>
		<path fill="#FFFFFF" d="M519.867,108.914h6.37v9.49h-1.364v-8.19h-3.641v8.19h-1.365V108.914z"/>
		<path fill="#FFFFFF" d="M528.187,112.294h1.171l0.116,0.521l0.078,0.064l0.065-0.064c0.39-0.391,1.04-0.65,1.689-0.65
			c1.69,0,3.12,1.3,3.12,3.186c0,1.885-1.43,3.185-3.12,3.185c-0.637,0-1.3-0.26-1.689-0.65l-0.065-0.064l-0.078,0.064v3.276h-1.287
			V112.294z M531.242,117.364c1.235,0,1.885-0.91,1.885-2.015c0-1.105-0.649-2.016-1.885-2.016c-1.105,0-1.885,0.91-1.885,2.016
			C529.357,116.454,530.137,117.364,531.242,117.364z"/>
		<path fill="#FFFFFF" d="M541.577,118.404h-1.17l-0.13-0.521l-0.065-0.064l-0.064,0.064c-0.391,0.391-1.04,0.65-1.69,0.65
			c-1.69,0-3.12-1.3-3.12-3.185c0-1.886,1.43-3.186,3.12-3.186c0.65,0,1.3,0.26,1.69,0.65l0.064,0.064l0.065-0.064l0.13-0.521h1.17
			V118.404z M538.522,113.334c-1.235,0-1.898,0.91-1.898,2.016c0,1.104,0.663,2.015,1.898,2.015c1.104,0,1.885-0.91,1.885-2.015
			C540.407,114.244,539.627,113.334,538.522,113.334z"/>
		<path fill="#FFFFFF" d="M547.037,112.294h1.69l-2.938,2.938l3.068,3.172h-1.69l-2.6-2.601v2.601h-1.301v-6.11h1.301v2.471
			L547.037,112.294z"/>
		<path fill="#FFFFFF" d="M549.117,112.294h5.2v1.17h-1.95v4.94h-1.3v-4.94h-1.95V112.294z"/>
		<path fill="#FFFFFF" d="M555.486,112.294h1.274v4.16l2.432-4.16h1.494v6.11h-1.273v-4.16l-2.432,4.16h-1.495V112.294z"/>
		<path fill="#FFFFFF" d="M566.146,112.294h1.69l-2.938,2.938l3.068,3.172h-1.69l-2.6-2.601v2.601h-1.301v-6.11h1.301v2.471
			L566.146,112.294z"/>
		<path fill="#FFFFFF" d="M570.943,114.569l-2.47,3.055v-1.495l1.235-1.56l-1.235-1.561v-1.495L570.943,114.569z M570.566,117.624
			v-1.495l1.235-1.56l-1.235-1.561v-1.495l2.471,3.056L570.566,117.624z"/>
	</g>
	<polyline fill="none" stroke="#FFFFFF" stroke-width="2" stroke-linejoin="round" stroke-miterlimit="10" points="284.134,412.517 
		193.685,350.697 240.622,270.466 240.622,261.979 388.658,0 	"/>
	<pattern  id="SVGID_1_" xlink:href="#New_Pattern" patternTransform="matrix(0.997 0.0769 -0.0769 0.997 -602.1987 598.5674)">
	</pattern>
	<polygon fill="url(#SVGID_1_)" points="609.736,312.4 614.802,436.667 572.773,446.744 550.011,430.186 577.644,384.628 
		547.849,365.041 576.262,317.876 	"/>
	<circle fill="#231F20" cx="701.089" cy="357.846" r="1.987"/>
	<path fill="none" stroke="#FFFFFF" stroke-width="2" stroke-linejoin="round" stroke-miterlimit="10" d="M158.287,353.64
		l-4.474,12.479c-4.104,11.446-6.552,18.275-6.552,18.275l-14.443,63.138"/>
	<rect x="150.5" y="349.956" opacity="0.8" fill="#231F20" width="124.5" height="16.487"/>
	<g>
		<path fill="#1BB372" d="M154.853,353.486h6.37v9.49h-1.365v-8.19h-3.64v8.19h-1.365V353.486z"/>
		<path fill="#1BB372" d="M163.433,356.866h4.81v6.11h-1.3v-4.94h-2.21v3.186c0,1.3-0.78,2.015-2.015,2.015l-0.195-0.13v-1.17h0.26
			c0.39,0,0.65-0.26,0.65-0.65V356.866z"/>
		<path fill="#1BB372" d="M172.728,356.736c1.69,0,3.185,1.3,3.185,3.186c0,1.885-1.495,3.185-3.185,3.185s-3.185-1.3-3.185-3.185
			C169.542,358.036,171.038,356.736,172.728,356.736z M172.728,361.937c1.235,0,1.885-0.91,1.885-2.015
			c0-1.105-0.65-2.016-1.885-2.016c-1.235,0-1.885,0.91-1.885,2.016C170.842,361.026,171.492,361.937,172.728,361.937z"/>
		<path fill="#1BB372" d="M183.973,356.866h1.3v4.94h0.78v2.729h-1.3v-1.56h-7.541v-6.11h1.3v4.94h2.08v-4.94h1.3v4.94h2.08V356.866
			z"/>
		<path fill="#1BB372" d="M192.942,362.977h-1.17l-0.13-0.521l-0.065-0.064l-0.065,0.064c-0.39,0.391-1.04,0.65-1.69,0.65
			c-1.69,0-3.12-1.3-3.12-3.185c0-1.886,1.43-3.186,3.12-3.186c0.65,0,1.3,0.26,1.69,0.65l0.065,0.064l0.065-0.064l0.13-0.521h1.17
			V362.977z M189.887,357.906c-1.235,0-1.898,0.91-1.898,2.016c0,1.104,0.663,2.015,1.898,2.015c1.105,0,1.885-0.91,1.885-2.015
			C191.772,358.816,190.992,357.906,189.887,357.906z"/>
		<path fill="#1BB372" d="M193.982,361.807h0.403c0.468-0.026,0.767-0.352,0.767-0.91v-4.03h4.81v4.94h0.78v2.729h-1.3v-1.56h-4.16
			v1.56h-1.3V361.807z M198.662,361.807v-3.771h-2.21v2.73c0,0.468-0.182,0.806-0.468,1.04H198.662z"/>
		<path fill="#1BB372" d="M202.042,356.866h1.3v1.82h0.65c1.56,0,2.47,0.91,2.47,2.145c0,1.235-0.91,2.146-2.47,2.146h-1.95V356.866
			z M204.057,361.819c0.715,0,1.118-0.402,1.118-0.988c0-0.585-0.403-0.987-1.118-0.987h-0.715v1.976H204.057z"/>
		<path fill="#1BB372" d="M211.402,353.486h3.38c1.69,0,2.99,1.04,2.99,2.6c0,0.871-0.455,1.6-1.157,2.028
			c0.78,0.403,1.287,1.157,1.287,2.197c0,1.625-1.3,2.665-2.99,2.665h-3.51V353.486z M214.847,357.517c0.78,0,1.56-0.391,1.56-1.365
			s-0.78-1.365-1.56-1.365h-2.08v2.73H214.847z M214.977,361.677c0.78,0,1.56-0.521,1.56-1.431c0-1.04-0.78-1.43-1.56-1.43h-2.21
			v2.86H214.977z"/>
		<path fill="#1BB372" d="M222.257,356.736c1.69,0,3.185,1.3,3.185,3.186c0,1.885-1.495,3.185-3.185,3.185s-3.185-1.3-3.185-3.185
			C219.072,358.036,220.567,356.736,222.257,356.736z M222.257,361.937c1.235,0,1.885-0.91,1.885-2.015
			c0-1.105-0.65-2.016-1.885-2.016c-1.235,0-1.885,0.91-1.885,2.016C220.372,361.026,221.021,361.937,222.257,361.937z"/>
		<path fill="#1BB372" d="M229.537,361.937c0.78,0,1.378-0.52,1.586-1.04l1.079,0.65c-0.507,0.909-1.495,1.56-2.73,1.56
			c-1.638,0-3.12-1.3-3.12-3.185c0-1.886,1.482-3.186,3.12-3.186c1.235,0,2.21,0.65,2.717,1.56l-1.079,0.65
			c-0.208-0.52-0.793-1.04-1.573-1.04c-1.235,0-1.911,0.91-1.911,2.016C227.625,361.026,228.302,361.937,229.537,361.937z"/>
		<path fill="#1BB372" d="M236.167,361.937c0.78,0,1.378-0.52,1.586-1.04l1.079,0.65c-0.507,0.909-1.495,1.56-2.73,1.56
			c-1.638,0-3.12-1.3-3.12-3.185c0-1.886,1.482-3.186,3.12-3.186c1.235,0,2.21,0.65,2.717,1.56l-1.079,0.65
			c-0.208-0.52-0.793-1.04-1.573-1.04c-1.235,0-1.911,0.91-1.911,2.016C234.255,361.026,234.932,361.937,236.167,361.937z"/>
		<path fill="#1BB372" d="M239.481,356.866h5.2v1.17h-1.95v4.94h-1.3v-4.94h-1.95V356.866z"/>
		<path fill="#1BB372" d="M251.377,362.977h-1.17l-0.13-0.521l-0.065-0.064l-0.065,0.064c-0.39,0.391-1.04,0.65-1.69,0.65
			c-1.69,0-3.12-1.3-3.12-3.185c0-1.886,1.43-3.186,3.12-3.186c0.65,0,1.3,0.26,1.69,0.65l0.065,0.064l0.065-0.064l0.13-0.521h1.17
			V362.977z M248.322,357.906c-1.235,0-1.898,0.91-1.898,2.016c0,1.104,0.663,2.015,1.898,2.015c1.105,0,1.885-0.91,1.885-2.015
			C250.207,358.816,249.427,357.906,248.322,357.906z"/>
		<path fill="#1BB372" d="M253.066,356.866h1.3v2.34h2.6v-2.34h1.3v6.11h-1.3v-2.601h-2.6v2.601h-1.3V356.866z"/>
		<path fill="#1BB372" d="M259.956,356.866h1.274v4.16l2.431-4.16h1.495v6.11h-1.274v-4.16l-2.431,4.16h-1.495V356.866z"/>
		<path fill="#1BB372" d="M266.586,362.977v-0.13l2.028-2.366c-1.248-0.104-1.963-0.949-1.963-1.742c0-1.104,0.715-1.872,2.21-1.872
			h2.535v6.11H270.2v-2.496h-0.234l-2.015,2.496H266.586z M268.822,359.467h1.404v-1.561h-1.469c-0.559,0-0.871,0.325-0.871,0.78
			C267.886,359.154,268.263,359.467,268.822,359.467z"/>
	</g>
	<polygon opacity="0.8" fill="#231F20" points="427.708,224.36 362.876,328.382 347.86,319.128 412.692,215.108 	"/>
	<g>
		<path fill="#FFFFFF" d="M354.783,314.489c0.713-1.239,1.988-2.155,3.457-2.361l0.336,1.242c-1.113,0.109-2.029,0.633-2.645,1.704
			c-1.1,1.916-0.365,3.898,1.449,4.94c1.816,1.043,3.898,0.681,5.031-1.292c0.615-1.071,0.605-2.125,0.141-3.143l1.242-0.336
			c0.562,1.372,0.414,2.936-0.299,4.176c-1.426,2.479-4.377,3.182-6.789,1.796C354.283,319.823,353.391,316.913,354.783,314.489z"/>
		<path fill="#FFFFFF" d="M362.053,309.146l0.646-1.128l5.934,7.157l-0.646,1.127l-2.318-2.801l-5.623-0.861l0.654-1.139
			l3.852,0.654L362.053,309.146z"/>
		<path fill="#FFFFFF" d="M363.219,307.116l1.295-2.254c0.713-1.24,1.721-1.561,2.623-1.042c0.416,0.239,0.682,0.691,0.707,1.246
			c0.531-0.325,1.094-0.362,1.555-0.097c0.959,0.551,1.158,1.64,0.445,2.88l-1.328,2.311L363.219,307.116z M366.688,306.036
			c0.227-0.395,0.252-0.83-0.143-1.057s-0.771-0.068-1.029,0.383l-0.693,1.207l1.172,0.673L366.688,306.036z M368.939,307.18
			c0.258-0.45,0.15-0.888-0.189-1.083c-0.449-0.258-0.812-0.018-1.039,0.377l-0.758,1.319l1.229,0.706L368.939,307.18z"/>
		<path fill="#FFFFFF" d="M367.672,299.104c0.842-1.466,2.713-2.114,4.348-1.176c1.635,0.939,2.018,2.884,1.176,4.35
			c-0.844,1.465-2.715,2.114-4.35,1.175C367.211,302.515,366.828,300.57,367.672,299.104z M372.18,301.694
			c0.615-1.07,0.15-2.087-0.809-2.638c-0.957-0.55-2.07-0.44-2.686,0.631s-0.15,2.087,0.809,2.638S371.564,302.767,372.18,301.694z"
			/>
		<path fill="#FFFFFF" d="M370.018,295.28l0.582-1.014l0.51,0.158l0.096-0.036l-0.025-0.089c-0.143-0.532-0.045-1.226,0.279-1.789
			c0.842-1.465,2.682-2.058,4.316-1.119c1.635,0.939,2.049,2.828,1.207,4.293c-0.318,0.553-0.873,0.997-1.406,1.142l-0.088,0.023
			l0.018,0.101l2.842,1.632l-0.643,1.116L370.018,295.28z M375.936,295.158c0.615-1.071,0.15-2.088-0.809-2.638
			c-0.957-0.551-2.07-0.441-2.686,0.63c-0.551,0.958-0.15,2.088,0.809,2.638C374.207,296.339,375.385,296.116,375.936,295.158z"/>
		<path fill="#FFFFFF" d="M375.053,286.255c0.844-1.466,2.715-2.113,4.35-1.175c1.635,0.939,2.018,2.883,1.174,4.349
			c-0.842,1.465-2.713,2.114-4.348,1.175C374.594,289.665,374.211,287.721,375.053,286.255z M379.562,288.846
			c0.615-1.071,0.15-2.088-0.809-2.638c-0.957-0.551-2.07-0.441-2.686,0.63s-0.15,2.087,0.809,2.638
			C377.834,290.026,378.947,289.917,379.562,288.846z"/>
		<path fill="#FFFFFF" d="M377.4,282.431l1.295-2.254c0.713-1.24,1.721-1.561,2.623-1.042c0.418,0.239,0.682,0.691,0.709,1.246
			c0.531-0.325,1.092-0.361,1.553-0.097c0.959,0.551,1.158,1.64,0.447,2.88l-1.328,2.311L377.4,282.431z M380.871,281.351
			c0.227-0.395,0.252-0.83-0.143-1.057c-0.396-0.227-0.771-0.068-1.031,0.383l-0.693,1.207l1.174,0.673L380.871,281.351z
			 M383.121,282.494c0.26-0.45,0.15-0.888-0.188-1.083c-0.451-0.258-0.814-0.018-1.041,0.377l-0.758,1.319l1.229,0.706
			L383.121,282.494z"/>
		<path fill="#FFFFFF" d="M386.363,277.009c0.389-0.676,0.234-1.453-0.111-1.893l1.1-0.611c0.537,0.893,0.607,2.073-0.008,3.145
			c-0.814,1.42-2.68,2.058-4.314,1.118c-1.635-0.938-2.023-2.872-1.209-4.292c0.615-1.071,1.666-1.594,2.707-1.579l0.027,1.26
			c-0.557-0.079-1.297,0.169-1.686,0.846c-0.617,1.071-0.164,2.11,0.795,2.661C384.621,278.213,385.748,278.081,386.363,277.009z"/>
		<path fill="#FFFFFF" d="M385.754,267.89l0.844-1.465l1.084,4.012l4.277-1.081l-0.84,1.465l-3.551,0.96l2.254,1.295l-0.646,1.127
			l-5.299-3.044l0.646-1.127l2.143,1.23L385.754,267.89z"/>
		<path fill="#FFFFFF" d="M387.051,265.635l0.633-1.104l3.607,2.073l-2.395-4.181l0.744-1.297l5.299,3.044l-0.635,1.105
			l-3.607-2.073l2.396,4.181l-0.746,1.296L387.051,265.635z"/>
		<path fill="#FFFFFF" d="M389.006,257.718l-0.068-0.039l0.525-0.912l0.021,0.013c0.281,0.161,0.691,0.127,0.926-0.278
			c0.232-0.406,0.057-0.777-0.227-0.939l-0.021-0.014l0.523-0.912l0.068,0.039c0.676,0.389,1.029,1.341,0.479,2.299
			S389.682,258.106,389.006,257.718z M395.781,262.705l0.744-1.296l-2.396-4.181l3.607,2.072l0.635-1.104l-5.299-3.045l-0.744,1.297
			l2.396,4.181l-3.607-2.072l-0.635,1.104L395.781,262.705z"/>
		<path fill="#FFFFFF" d="M395.533,250.869l2.592-4.509l5.297,3.044l-0.646,1.128l-4.285-2.461l-1.295,2.254l4.283,2.461
			l-0.646,1.127L395.533,250.869z"/>
		<path fill="#FFFFFF" d="M398.965,244.896l0.584-1.015l0.51,0.157l0.094-0.035l-0.023-0.088c-0.143-0.533-0.045-1.226,0.279-1.79
			c0.84-1.465,2.682-2.058,4.314-1.118c1.635,0.938,2.049,2.827,1.209,4.292c-0.318,0.553-0.873,0.997-1.406,1.142l-0.088,0.023
			l0.018,0.101l2.84,1.632l-0.641,1.115L398.965,244.896z M404.885,244.772c0.615-1.071,0.148-2.088-0.809-2.639
			c-0.959-0.55-2.072-0.44-2.688,0.631c-0.549,0.958-0.148,2.088,0.809,2.639C403.156,245.953,404.334,245.729,404.885,244.772z"/>
		<path fill="#FFFFFF" d="M404.002,235.869c0.842-1.466,2.713-2.113,4.348-1.175c1.635,0.939,2.018,2.883,1.176,4.349
			s-2.715,2.114-4.35,1.175C403.543,239.279,403.16,237.335,404.002,235.869z M408.512,238.46c0.615-1.071,0.148-2.088-0.811-2.639
			c-0.957-0.55-2.07-0.44-2.686,0.631s-0.148,2.088,0.809,2.639C406.783,239.641,407.895,239.531,408.512,238.46z"/>
		<path fill="#FFFFFF" d="M412.137,232.147c0.389-0.676,0.236-1.453-0.111-1.893l1.102-0.611c0.535,0.893,0.607,2.073-0.008,3.145
			c-0.816,1.42-2.682,2.058-4.316,1.118c-1.635-0.938-2.023-2.872-1.207-4.292c0.615-1.071,1.664-1.594,2.707-1.579l0.025,1.26
			c-0.555-0.079-1.297,0.169-1.686,0.846c-0.615,1.071-0.164,2.11,0.795,2.661C410.396,233.352,411.521,233.22,412.137,232.147z"/>
		<path fill="#FFFFFF" d="M409.652,226.296l2.59-4.509l5.299,3.044l-0.648,1.128l-4.283-2.461l-1.295,2.254l4.283,2.461
			l-0.648,1.128L409.652,226.296z"/>
		<path fill="#FFFFFF" d="M416.723,222.863l0.777-1.353l1.465,0.842l-0.777,1.353L416.723,222.863z"/>
	</g>
	<polyline fill="none" stroke="#FFFFFF" stroke-width="2" stroke-linejoin="round" stroke-miterlimit="10" points="3.381,246.168 
		106.16,255.304 116.811,241.969 128.735,241.969 	"/>
</g>
</svg>
