<?xml version="1.0" encoding="utf-8"?>
<!-- Generator: Adobe Illustrator 16.0.0, SVG Export Plug-In . SVG Version: 6.00 Build 0)  -->
<!DOCTYPE svg PUBLIC "-//W3C//DTD SVG 1.1//EN" "http://www.w3.org/Graphics/SVG/1.1/DTD/svg11.dtd">
<svg version="1.1" id="Layer_1" xmlns="http://www.w3.org/2000/svg" xmlns:xlink="http://www.w3.org/1999/xlink" x="0px" y="0px"
	 width="490.229px" height="121.789px" viewBox="0 0 490.229 121.789" enable-background="new 0 0 490.229 121.789"
	 xml:space="preserve">
<g>
	<path fill="#FFFFFF" d="M490.229,94.725l-29.095-34.102l26.251-28.417h-17.454l-22.33,26.657V32.207h-13.262v62.519h13.262V64.006
		l25.17,30.719H490.229z M365.706,94.725h12.313l30.988-41.544h0.271v41.544h13.262V32.207h-12.314L379.238,73.75h-0.271V32.207
		h-13.261V94.725z M358.494,32.207h-56.7v12.178h21.652v50.341h13.261V44.384h21.787V32.207z M299.534,94.725L270.44,60.623
		l26.251-28.417h-17.456l-22.327,26.657V32.207h-13.263v62.519h13.263V64.006l25.169,30.719H299.534z M197.341,83.763
		c-11.639,0-19.216-8.389-19.216-20.298c0-11.907,7.577-20.299,19.216-20.299c11.638,0,19.215,8.393,19.215,20.299
		C216.556,75.374,208.979,83.763,197.341,83.763 M194.499,96.755c10.285,0,17.186-4.467,21.111-11.232h0.269v9.202h13.263V32.207
		h-13.263v9.202h-0.269c-3.925-6.766-10.827-11.232-21.111-11.232c-16.509,0-30.447,12.45-30.447,33.289
		C164.051,84.305,177.99,96.755,194.499,96.755 M123.861,83.763c-11.639,0-19.216-8.389-19.216-20.298
		c0-11.907,7.578-20.299,19.216-20.299c11.638,0,19.215,8.393,19.215,20.299C143.076,75.374,135.499,83.763,123.861,83.763
		 M92.061,121.789h13.262V85.523h0.269c3.925,6.765,10.827,11.232,21.112,11.232c16.509,0,30.447-12.451,30.447-33.29
		c0-20.838-13.938-33.289-30.447-33.289c-10.285,0-17.187,4.466-21.112,11.232h-0.269v-9.202H92.061V121.789z M76.863,0H0v94.725
		h14.074V13.261H62.79v81.464h14.074V0z"/>
</g>
</svg>
