<?xml version="1.0" encoding="utf-8"?>
<!-- Generator: Adobe Illustrator 16.0.0, SVG Export Plug-In . SVG Version: 6.00 Build 0)  -->
<!DOCTYPE svg PUBLIC "-//W3C//DTD SVG 1.1//EN" "http://www.w3.org/Graphics/SVG/1.1/DTD/svg11.dtd">
<svg version="1.1" id="Layer_1" xmlns="http://www.w3.org/2000/svg" xmlns:xlink="http://www.w3.org/1999/xlink" x="0px" y="0px"
	 width="391.38px" height="178.613px" viewBox="0 0 391.38 178.613" enable-background="new 0 0 391.38 178.613"
	 xml:space="preserve">
<g>
	<path fill="#ffffff" d="M391.379,178.612H-0.002V0h391.381V178.612z M5.998,172.612h379.38V6H5.998V172.612z"/>
</g>
<g>
	<g>
		<path fill="#ffffff" d="M36.402,113.965h9.766V54.239h26.039v59.726h9.761v-69.03H36.402V113.965z M111.841,69.321
			c-4.647,0-9.296,1.849-12.089,4.642l-0.471,0.471l-0.553-0.471l-0.836-3.718H89.52v63.433h9.209v-23.438l0.553-0.46l0.471,0.46
			c2.793,2.793,7.537,4.652,12.089,4.652c12.092,0,22.329-9.293,22.329-22.789C134.17,78.615,123.933,69.321,111.841,69.321z
			 M111.373,106.51c-7.899,0-13.48-6.507-13.48-14.408c0-7.907,5.581-14.421,13.48-14.421c8.839,0,13.49,6.514,13.49,14.421
			C124.863,100.003,120.212,106.51,111.373,106.51z M172.288,73.963l-0.471,0.471l-0.468-0.471
			c-2.789-2.793-7.436-4.642-12.088-4.642c-12.096,0-22.32,9.294-22.32,22.781c0,13.491,10.225,22.789,22.32,22.789
			c4.652,0,9.299-1.859,12.088-4.652l0.468-0.46l0.471,0.46l0.933,3.727h8.367V70.245h-8.367L172.288,73.963z M159.725,106.51
			c-8.838,0-13.577-6.507-13.577-14.408c0-7.907,4.739-14.421,13.577-14.421c7.902,0,13.492,6.514,13.492,14.421
			C173.217,100.003,167.627,106.51,159.725,106.51z M333.016,91.263l21.025-21.019h-12.098l-17.668,17.678V70.245h-9.299v43.721
			h9.299V95.36l18.611,18.605h12.086L333.016,91.263z M280.439,100.003V70.245h-9.116v43.721h10.698l17.385-29.765v29.765h9.116
			V70.245h-10.696L280.439,100.003z M230.408,78.615h13.943v35.34h9.307v-35.34h13.951V70.24h-37.201V78.615z M228.067,70.245
			h-12.089l-17.667,17.678V70.245h-9.294v43.721h9.294V95.36l18.605,18.605h12.093l-21.959-22.702L228.067,70.245z"/>
	</g>
</g>
</svg>
