<?xml version="1.0" encoding="utf-8"?>
<!-- Generator: Adobe Illustrator 16.0.0, SVG Export Plug-In . SVG Version: 6.00 Build 0)  -->
<!DOCTYPE svg PUBLIC "-//W3C//DTD SVG 1.1//EN" "http://www.w3.org/Graphics/SVG/1.1/DTD/svg11.dtd">
<svg version="1.1" xmlns="http://www.w3.org/2000/svg" xmlns:xlink="http://www.w3.org/1999/xlink" x="0px" y="0px"
	 width="1406.107px" height="916px" viewBox="0 0 1406.107 916" enable-background="new 0 0 1406.107 916" xml:space="preserve">
<g id="Layer_1">
	
		<line fill="none" stroke="#FFFFFF" stroke-width="2" stroke-miterlimit="10" x1="1230.195" y1="659.875" x2="1230.195" y2="617.799"/>
	<polygon fill="none" stroke="#FFFFFF" stroke-width="2" stroke-miterlimit="10" points="927.174,517.781 931.882,659.798 
		866.786,659.798 871.139,792.798 1289.479,792.798 1278.354,517.781 	"/>
	
		<line fill="none" stroke="#FFFFFF" stroke-width="2" stroke-miterlimit="10" x1="1284.094" y1="659.798" x2="926.606" y2="659.798"/>
	<polyline fill="none" stroke="#FFFFFF" stroke-width="2" stroke-miterlimit="10" points="964.925,517.781 966.754,593.711 
		1004.038,617.798 1281.259,617.798 	"/>
	
		<line fill="none" stroke="#FFFFFF" stroke-width="2" stroke-miterlimit="10" x1="1011.183" y1="517.781" x2="1013.537" y2="617.798"/>
	
		<line fill="none" stroke="#FFFFFF" stroke-width="2" stroke-miterlimit="10" x1="1191.701" y1="518.147" x2="1194.055" y2="618.165"/>
	
		<line fill="none" stroke="#FFFFFF" stroke-width="2" stroke-miterlimit="10" x1="1190.034" y1="661.421" x2="1193.126" y2="792.798"/>
	<line fill="none" stroke="#FFFFFF" stroke-width="2" stroke-miterlimit="10" x1="993.93" y1="659.875" x2="996.284" y2="792.798"/>
	
		<line fill="none" stroke="#FFFFFF" stroke-width="2" stroke-miterlimit="10" x1="1087.418" y1="659.875" x2="1089.772" y2="792.798"/>
	
		<line fill="none" stroke="#FFFFFF" stroke-width="2" stroke-miterlimit="10" x1="1082.84" y1="517.781" x2="1085.194" y2="617.798"/>
	<g>
		<path fill="#FFFFFF" d="M1251.631,633.979h3l2.7,7.95l2.43-10.05h2.97l-3.9,14.1h-2.85l-2.85-8.13l-2.85,8.13h-2.85l-3.9-14.1
			h2.97l2.43,10.05L1251.631,633.979z"/>
		<path fill="#FFFFFF" d="M1270.981,643.579c1.8,0,3.18-1.199,3.66-2.399l2.34,1.5c-1.17,2.1-3.3,3.6-6.15,3.6
			c-3.78,0-7.2-3-7.2-7.35s3.42-7.35,7.2-7.35c2.85,0,4.95,1.5,6.12,3.6l-2.34,1.5c-0.48-1.2-1.83-2.399-3.63-2.399
			c-2.85,0-4.41,2.1-4.41,4.649S1268.131,643.579,1270.981,643.579z"/>
	</g>
	<g>
		<line fill="none" stroke="#FFFFFF" stroke-miterlimit="10" x1="1222.925" y1="637.917" x2="1237.463" y2="638.053"/>
	</g>
	<g>
		<line fill="none" stroke="#FFFFFF" stroke-miterlimit="10" x1="1215.521" y1="625.349" x2="1215.656" y2="610.811"/>
	</g>
	<g>
		<line fill="none" stroke="#FFFFFF" stroke-miterlimit="10" x1="1215.521" y1="672.63" x2="1215.656" y2="658.092"/>
	</g>
	<g>
		<line fill="none" stroke="#FFFFFF" stroke-miterlimit="10" x1="1138.354" y1="625.349" x2="1138.49" y2="610.811"/>
	</g>
	<g>
		<line fill="none" stroke="#FFFFFF" stroke-miterlimit="10" x1="1050.354" y1="625.349" x2="1050.49" y2="610.811"/>
	</g>
	<g>
		<line fill="none" stroke="#FFFFFF" stroke-miterlimit="10" x1="1038.883" y1="668.381" x2="1039.019" y2="653.843"/>
	</g>
	<g>
		<line fill="none" stroke="#FFFFFF" stroke-miterlimit="10" x1="1097.043" y1="724.113" x2="1082.505" y2="723.977"/>
	</g>
	<g>
		<line fill="none" stroke="#FFFFFF" stroke-miterlimit="10" x1="1001.954" y1="724.113" x2="987.416" y2="723.977"/>
	</g>
	<g>
		<line fill="none" stroke="#FFFFFF" stroke-miterlimit="10" x1="977.513" y1="608.125" x2="986.296" y2="597.541"/>
	</g>
	<polygon fill="none" stroke="#FFFFFF" stroke-width="2" stroke-miterlimit="10" points="981.903,517.781 871.805,517.781 
		814.276,83.107 925.014,83.107 	"/>
	<polygon fill="none" stroke="#FFFFFF" stroke-width="2" stroke-miterlimit="10" points="962.125,364.13 852.545,372.798 
		846.625,328.23 955.478,319.562 	"/>
	<line fill="none" stroke="#FFFFFF" stroke-width="2" stroke-miterlimit="10" x1="930.79" y1="133.417" x2="821.21" y2="142.085"/>
	<path fill="none" stroke="#FFFFFF" stroke-width="2" stroke-miterlimit="10" d="M881.19,325.235c0,0-7.011-50.79-13.678-99.076
		l-3.163-21.21c-4.741-34.343-8.632-65.65-8.632-65.65"/>
	<path fill="none" stroke="#FFFFFF" stroke-width="2" stroke-miterlimit="10" d="M884.516,372.577
		c6.651,48.173,13.646,98.843,13.646,98.843l29.022,9.271h49.866"/>
	
		<line fill="none" stroke="#FFFFFF" stroke-width="2" stroke-miterlimit="10" x1="906.988" y1="324.952" x2="900.324" y2="276.683"/>
	<path fill="none" stroke="#FFFFFF" stroke-width="2" stroke-miterlimit="10" d="M950.072,271.918c0,0-7.573,0.599-17.903,1.416
		l-13.532,1.07c-20.507,1.622-43.489,3.44-43.489,3.44"/>
	<g>
		<line fill="none" stroke="#FFFFFF" stroke-miterlimit="10" x1="855.716" y1="209.351" x2="872.901" y2="207.835"/>
	</g>
	<g>
		<line fill="none" stroke="#FFFFFF" stroke-miterlimit="10" x1="947.476" y1="471.894" x2="948.991" y2="489.077"/>
	</g>
	<g>
		<line fill="none" stroke="#FFFFFF" stroke-miterlimit="10" x1="839.362" y1="148.145" x2="837.503" y2="134.153"/>
	</g>
	<g>
		<line fill="none" stroke="#FFFFFF" stroke-miterlimit="10" x1="923.434" y1="280.95" x2="921.575" y2="266.958"/>
	</g>
	<g>
		
			<line fill="#FFFFFF" stroke="#FFFFFF" stroke-width="2" stroke-miterlimit="10" x1="881.267" y1="343.831" x2="879.077" y2="327.342"/>
		
			<line fill="#FFFFFF" stroke="#FFFFFF" stroke-width="2" stroke-miterlimit="10" x1="885.501" y1="343.459" x2="883.31" y2="326.971"/>
		
			<line fill="#FFFFFF" stroke="#FFFFFF" stroke-width="2" stroke-miterlimit="10" x1="889.735" y1="343.087" x2="887.544" y2="326.599"/>
		
			<line fill="#FFFFFF" stroke="#FFFFFF" stroke-width="2" stroke-miterlimit="10" x1="893.969" y1="342.716" x2="891.778" y2="326.228"/>
		
			<line fill="#FFFFFF" stroke="#FFFFFF" stroke-width="2" stroke-miterlimit="10" x1="898.202" y1="342.344" x2="896.012" y2="325.856"/>
		
			<line fill="#FFFFFF" stroke="#FFFFFF" stroke-width="2" stroke-miterlimit="10" x1="902.436" y1="341.973" x2="900.245" y2="325.484"/>
		
			<line fill="#FFFFFF" stroke="#FFFFFF" stroke-width="2" stroke-miterlimit="10" x1="906.67" y1="341.601" x2="904.48" y2="325.112"/>
		
			<line fill="#FFFFFF" stroke="#FFFFFF" stroke-width="2" stroke-miterlimit="10" x1="910.904" y1="341.229" x2="908.713" y2="324.741"/>
		
			<line fill="#FFFFFF" stroke="#FFFFFF" stroke-width="2" stroke-miterlimit="10" x1="915.138" y1="340.858" x2="912.947" y2="324.369"/>
		
			<line fill="#FFFFFF" stroke="#FFFFFF" stroke-width="2" stroke-miterlimit="10" x1="919.371" y1="340.486" x2="917.181" y2="323.997"/>
		
			<line fill="#FFFFFF" stroke="#FFFFFF" stroke-width="2" stroke-miterlimit="10" x1="923.604" y1="340.115" x2="921.414" y2="323.626"/>
		
			<line fill="#FFFFFF" stroke="#FFFFFF" stroke-width="2" stroke-miterlimit="10" x1="927.838" y1="339.743" x2="925.648" y2="323.254"/>
		
			<line fill="#FFFFFF" stroke="#FFFFFF" stroke-width="2" stroke-miterlimit="10" x1="932.072" y1="339.372" x2="929.881" y2="322.882"/>
		
			<line fill="#FFFFFF" stroke="#FFFFFF" stroke-width="2" stroke-miterlimit="10" x1="936.305" y1="339" x2="934.115" y2="322.511"/>
		
			<line fill="#FFFFFF" stroke="#FFFFFF" stroke-width="2" stroke-miterlimit="10" x1="940.539" y1="338.628" x2="938.348" y2="322.14"/>
		
			<line fill="#FFFFFF" stroke="#FFFFFF" stroke-width="2" stroke-miterlimit="10" x1="944.772" y1="338.257" x2="942.582" y2="321.768"/>
		
			<line fill="#FFFFFF" stroke="#FFFFFF" stroke-width="2" stroke-miterlimit="10" x1="949.005" y1="337.885" x2="946.815" y2="321.396"/>
	</g>
	<g>
		
			<line fill="#FFFFFF" stroke="#FFFFFF" stroke-width="2" stroke-miterlimit="10" x1="884.52" y1="369.338" x2="882.362" y2="353.089"/>
		
			<line fill="#FFFFFF" stroke="#FFFFFF" stroke-width="2" stroke-miterlimit="10" x1="888.692" y1="368.972" x2="886.534" y2="352.723"/>
		
			<line fill="#FFFFFF" stroke="#FFFFFF" stroke-width="2" stroke-miterlimit="10" x1="892.865" y1="368.606" x2="890.706" y2="352.357"/>
		
			<line fill="#FFFFFF" stroke="#FFFFFF" stroke-width="2" stroke-miterlimit="10" x1="897.037" y1="368.24" x2="894.878" y2="351.991"/>
		
			<line fill="#FFFFFF" stroke="#FFFFFF" stroke-width="2" stroke-miterlimit="10" x1="901.209" y1="367.874" x2="899.051" y2="351.625"/>
		
			<line fill="#FFFFFF" stroke="#FFFFFF" stroke-width="2" stroke-miterlimit="10" x1="905.381" y1="367.507" x2="903.223" y2="351.258"/>
		
			<line fill="#FFFFFF" stroke="#FFFFFF" stroke-width="2" stroke-miterlimit="10" x1="909.553" y1="367.141" x2="907.395" y2="350.892"/>
		
			<line fill="#FFFFFF" stroke="#FFFFFF" stroke-width="2" stroke-miterlimit="10" x1="913.726" y1="366.775" x2="911.567" y2="350.526"/>
		
			<line fill="#FFFFFF" stroke="#FFFFFF" stroke-width="2" stroke-miterlimit="10" x1="917.897" y1="366.409" x2="915.739" y2="350.16"/>
		
			<line fill="#FFFFFF" stroke="#FFFFFF" stroke-width="2" stroke-miterlimit="10" x1="922.069" y1="366.042" x2="919.911" y2="349.793"/>
		
			<line fill="#FFFFFF" stroke="#FFFFFF" stroke-width="2" stroke-miterlimit="10" x1="926.241" y1="365.676" x2="924.083" y2="349.427"/>
		
			<line fill="#FFFFFF" stroke="#FFFFFF" stroke-width="2" stroke-miterlimit="10" x1="930.413" y1="365.31" x2="928.255" y2="349.061"/>
		
			<line fill="#FFFFFF" stroke="#FFFFFF" stroke-width="2" stroke-miterlimit="10" x1="934.585" y1="364.944" x2="932.427" y2="348.695"/>
		
			<line fill="#FFFFFF" stroke="#FFFFFF" stroke-width="2" stroke-miterlimit="10" x1="938.757" y1="364.578" x2="936.599" y2="348.329"/>
		
			<line fill="#FFFFFF" stroke="#FFFFFF" stroke-width="2" stroke-miterlimit="10" x1="942.929" y1="364.211" x2="940.771" y2="347.962"/>
		
			<line fill="#FFFFFF" stroke="#FFFFFF" stroke-width="2" stroke-miterlimit="10" x1="947.101" y1="363.845" x2="944.942" y2="347.596"/>
		
			<line fill="#FFFFFF" stroke="#FFFFFF" stroke-width="2" stroke-miterlimit="10" x1="951.272" y1="363.479" x2="949.114" y2="347.23"/>
	</g>
	<polygon fill="none" stroke="#FFFFFF" stroke-width="2" stroke-miterlimit="10" points="909.326,517.781 871.805,517.781 
		869.437,494.104 906.988,494.104 	"/>
	<g>
		<path fill="#FFFFFF" d="M1023.05,732.391c0-2.47,2.09-4.179,4.37-4.179s4.369,1.52,4.369,4.179c0,1.71-1.102,2.812-1.899,3.609
			c-2.28,2.28-4.654,3.325-4.654,4.389h6.364v1.881h-8.739v-0.95c0-2.564,3.419-4.179,5.699-6.459c0.646-0.646,1.33-1.234,1.33-2.47
			c0-1.52-1.235-2.336-2.47-2.336s-2.489,0.816-2.489,2.336v0.57h-1.881V732.391z"/>
		<path fill="#FFFFFF" d="M1032.36,736.855c3.325-4.845,5.699-8.454,5.699-8.454h2.47v8.454h1.52v1.805h-1.52v3.609h-1.9v-3.609
			h-6.269V736.855z M1038.629,736.855v-6.061c-1.102,1.634-2.622,3.895-4.141,6.061H1038.629z"/>
		<path fill="#FFFFFF" d="M1043,739.8h2.28v2.47H1043V739.8z"/>
		<path fill="#FFFFFF" d="M1056.108,737.615c0,2.755-2.279,4.845-4.939,4.845c-2.755,0-4.939-2.186-4.939-4.75h1.9
			c0,1.615,1.311,2.869,3.04,2.869c1.729,0,3.04-1.159,3.04-2.964c0-1.899-1.235-2.982-3.04-3.04
			c-1.14-0.037-1.957,0.02-3.325,0.096l-0.855-1.805l1.615-4.465h6.364v1.881h-5.167l-1.044,2.641
			c0.437-0.057,1.577-0.171,2.413-0.152C1054.114,732.828,1056.108,734.671,1056.108,737.615z"/>
	</g>
	<g>
		<path fill="#FFFFFF" d="M1131.098,732.391c0-2.47,2.09-4.179,4.37-4.179s4.369,1.52,4.369,4.179c0,1.71-1.102,2.812-1.899,3.609
			c-2.28,2.28-4.654,3.325-4.654,4.389h6.364v1.881h-8.739v-0.95c0-2.564,3.419-4.179,5.699-6.459c0.646-0.646,1.33-1.234,1.33-2.47
			c0-1.52-1.235-2.336-2.47-2.336s-2.489,0.816-2.489,2.336v0.57h-1.881V732.391z"/>
		<path fill="#FFFFFF" d="M1149.717,730.282c0,0-2.564,4.958-4.844,11.987h-1.9v-0.38c1.824-5.3,3.933-9.917,4.711-11.607h-7.086
			v-1.881h9.119V730.282z"/>
		<path fill="#FFFFFF" d="M1150.478,739.8h2.28v2.47h-2.28V739.8z"/>
		<path fill="#FFFFFF" d="M1162.446,730.282c0,0-2.564,4.958-4.844,11.987h-1.9v-0.38c1.824-5.3,3.933-9.917,4.711-11.607h-7.086
			v-1.881h9.119V730.282z"/>
	</g>
	<g>
		<path fill="#FFFFFF" d="M1223.28,732.391c0-2.47,2.09-4.179,4.37-4.179s4.369,1.52,4.369,4.179c0,1.71-1.102,2.812-1.899,3.609
			c-2.28,2.28-4.654,3.325-4.654,4.389h6.364v1.881h-8.739v-0.95c0-2.564,3.419-4.179,5.699-6.459c0.646-0.646,1.33-1.234,1.33-2.47
			c0-1.52-1.235-2.336-2.47-2.336s-2.489,0.816-2.489,2.336v0.57h-1.881V732.391z"/>
		<path fill="#FFFFFF" d="M1236.389,728.401h2.28v13.868h-1.9v-11.398l-1.121,1.71h-1.919v-0.38L1236.389,728.401z"/>
		<path fill="#FFFFFF" d="M1242.089,739.8h2.28v2.47h-2.28V739.8z"/>
		<path fill="#FFFFFF" d="M1254.058,730.282c0,0-2.564,4.958-4.844,11.987h-1.9v-0.38c1.824-5.3,3.933-9.917,4.711-11.607h-7.086
			v-1.881h9.119V730.282z"/>
	</g>
	<g>
		<path fill="#FFFFFF" d="M912.791,736.855c3.325-4.845,5.699-8.454,5.699-8.454h2.47v8.454h1.52v1.805h-1.52v3.609h-1.9v-3.609
			h-6.269V736.855z M919.06,736.855v-6.061c-1.102,1.634-2.622,3.895-4.141,6.061H919.06z"/>
		<path fill="#FFFFFF" d="M923.811,732.391c0-2.47,2.09-4.179,4.37-4.179c2.279,0,4.369,1.52,4.369,4.179
			c0,1.71-1.102,2.812-1.899,3.609c-2.28,2.28-4.654,3.325-4.654,4.389h6.364v1.881h-8.739v-0.95c0-2.564,3.419-4.179,5.699-6.459
			c0.646-0.646,1.33-1.234,1.33-2.47c0-1.52-1.235-2.336-2.47-2.336s-2.489,0.816-2.489,2.336v0.57h-1.881V732.391z"/>
		<path fill="#FFFFFF" d="M933.88,739.8h2.28v2.47h-2.28V739.8z"/>
		<path fill="#FFFFFF" d="M946.989,737.615c0,2.755-2.279,4.845-4.939,4.845c-2.755,0-4.939-2.186-4.939-4.75h1.9
			c0,1.615,1.311,2.869,3.04,2.869c1.729,0,3.04-1.159,3.04-2.964c0-1.899-1.235-2.982-3.04-3.04
			c-1.14-0.037-1.957,0.02-3.325,0.096l-0.855-1.805l1.615-4.465h6.364v1.881h-5.167l-1.045,2.641
			c0.437-0.057,1.577-0.171,2.413-0.152C944.994,732.828,946.989,734.671,946.989,737.615z"/>
	</g>
	<g>
		<path fill="#FFFFFF" d="M1029.52,555.009h2.279v13.868h-1.899v-11.398l-1.121,1.71h-1.919v-0.38L1029.52,555.009z"/>
		<path fill="#FFFFFF" d="M1044.338,564.223c0,2.755-2.279,4.845-4.938,4.845c-2.755,0-4.939-2.186-4.939-4.75h1.899
			c0,1.615,1.311,2.869,3.04,2.869c1.729,0,3.039-1.159,3.039-2.964c0-1.899-1.234-2.982-3.039-3.04
			c-1.141-0.037-1.957,0.02-3.325,0.096l-0.854-1.805l1.614-4.465h6.364v1.881h-5.167l-1.045,2.641
			c0.437-0.057,1.577-0.171,2.413-0.152C1042.344,559.436,1044.338,561.278,1044.338,564.223z"/>
		<path fill="#FFFFFF" d="M1045.669,566.407h2.28v2.47h-2.28V566.407z"/>
		<path fill="#FFFFFF" d="M1058.018,556.89l-4.065,3.286c2.489,0.134,4.256,1.957,4.256,4.427c0,2.185-1.805,4.465-4.56,4.465
			c-2.659,0-4.56-1.995-4.56-4.274h1.9c0,1.425,1.14,2.469,2.659,2.469s2.66-1.234,2.66-2.659c0-1.71-1.235-2.755-2.85-2.755h-1.919
			v-1.709l3.913-3.249h-5.794v-1.881h7.219L1058.018,556.89z"/>
	</g>
	<g>
		<path fill="#FFFFFF" d="M979.98,555.009h2.28v13.868h-1.9v-11.398l-1.12,1.71h-1.919v-0.38L979.98,555.009z"/>
		<path fill="#FFFFFF" d="M990.335,569.067c-3.059,0-4.749-3.04-4.749-7.124c0-4.085,1.69-7.124,4.749-7.124
			c3.04,0,4.75,3.039,4.75,7.124C995.085,566.027,993.375,569.067,990.335,569.067z M990.335,567.243c1.995,0,2.85-2.166,2.85-5.3
			c0-3.135-0.854-5.301-2.85-5.301c-1.994,0-2.85,2.166-2.85,5.301C987.485,565.077,988.341,567.243,990.335,567.243z"/>
	</g>
	<g>
		<path fill="#FFFFFF" d="M881.93,822.289h1.995v13.868h-1.995v-6.079h-5.319v6.079h-1.995v-13.868h1.995v5.89h5.319V822.289z"/>
		<path fill="#FFFFFF" d="M895.135,828.179v1.52h-9.119v-1.52H895.135z M895.135,831.598v1.52h-9.119v-1.52H895.135z"/>
		<path fill="#FFFFFF" d="M905.205,824.17l-4.065,3.286c2.489,0.134,4.255,1.957,4.255,4.427c0,2.185-1.805,4.465-4.559,4.465
			c-2.66,0-4.56-1.995-4.56-4.274h1.9c0,1.425,1.14,2.469,2.66,2.469c1.52,0,2.66-1.234,2.66-2.659c0-1.71-1.235-2.755-2.85-2.755
			h-1.919v-1.709l3.914-3.249h-5.794v-1.881h7.219L905.205,824.17z"/>
		<path fill="#FFFFFF" d="M906.726,833.688h2.28v2.47h-2.28V833.688z"/>
		<path fill="#FFFFFF" d="M919.834,831.503c0,2.755-2.279,4.845-4.939,4.845c-2.755,0-4.939-2.186-4.939-4.75h1.9
			c0,1.615,1.311,2.869,3.04,2.869c1.729,0,3.04-1.159,3.04-2.964c0-1.899-1.235-2.982-3.04-3.04
			c-1.14-0.037-1.957,0.02-3.325,0.096l-0.855-1.805l1.615-4.465h6.364v1.881h-5.167l-1.044,2.641
			c0.437-0.057,1.577-0.171,2.413-0.152C917.84,826.716,919.834,828.559,919.834,831.503z"/>
		<path fill="#FFFFFF" d="M926.143,822.1c2.279,0,4.065,1.614,4.046,3.989h-1.9c0-1.425-0.988-2.185-2.223-2.185
			c-2.526,0-3.134,3.306-3.097,5.205c0.646-0.855,1.71-1.69,3.135-1.69c2.754,0,4.369,2.089,4.369,4.464
			c0,2.279-1.653,4.465-4.407,4.465c-1.672,0-3.04-0.836-3.837-2.09c-0.836-1.312-1.083-3.116-1.064-5.034
			C921.204,825.614,922.59,822.1,926.143,822.1z M928.575,831.883c0-1.52-1.045-2.659-2.641-2.659c-1.52,0-2.527,1.12-2.527,2.659
			c0,1.425,1.083,2.641,2.603,2.641C927.53,834.523,928.575,833.402,928.575,831.883z"/>
	</g>
	<g>
		<path fill="#FFFFFF" d="M901.081,195.471l-4.065,3.286c2.489,0.134,4.255,1.957,4.255,4.427c0,2.185-1.805,4.465-4.559,4.465
			c-2.66,0-4.56-1.995-4.56-4.274h1.9c0,1.425,1.14,2.469,2.66,2.469c1.52,0,2.66-1.234,2.66-2.659c0-1.71-1.235-2.755-2.85-2.755
			h-1.919v-1.709l3.914-3.249h-5.794v-1.881h7.219L901.081,195.471z"/>
		<path fill="#FFFFFF" d="M911.151,195.471c0,0-2.564,4.958-4.844,11.987h-1.9v-0.38c1.824-5.3,3.933-9.917,4.711-11.607h-7.086
			v-1.881h9.119V195.471z"/>
	</g>
	
		<rect x="1044.285" y="792.798" fill="none" stroke="#FFFFFF" stroke-width="2" stroke-miterlimit="10" width="37.9" height="14.751"/>
	
		<rect x="1218.513" y="792.798" fill="none" stroke="#FFFFFF" stroke-width="2" stroke-miterlimit="10" width="37.9" height="14.751"/>
	
		<rect x="911.842" y="792.798" fill="none" stroke="#FFFFFF" stroke-width="2" stroke-miterlimit="10" width="37.901" height="14.751"/>
	<g>
		<line fill="none" stroke="#FFFFFF" stroke-miterlimit="10" x1="863.228" y1="336.611" x2="860.928" y2="319.301"/>
	</g>
	<g>
		<line fill="none" stroke="#FFFFFF" stroke-miterlimit="10" x1="869.002" y1="304.267" x2="886.313" y2="301.967"/>
	</g>
	<g>
		<line fill="none" stroke="#FFFFFF" stroke-miterlimit="10" x1="869.337" y1="379.452" x2="867.038" y2="362.142"/>
	</g>
	<polygon fill="none" stroke="#FFFFFF" stroke-width="2" stroke-miterlimit="10" points="605.684,522.225 495.59,522.225 
		437.851,87.551 548.795,87.551 	"/>
	<polygon fill="none" stroke="#FFFFFF" stroke-width="2" stroke-miterlimit="10" points="585.907,368.574 476.332,377.242 
		470.412,332.674 579.259,324.006 	"/>
	
		<line fill="none" stroke="#FFFFFF" stroke-width="2" stroke-miterlimit="10" x1="554.571" y1="137.861" x2="444.996" y2="146.529"/>
	<path fill="none" stroke="#FFFFFF" stroke-width="2" stroke-miterlimit="10" d="M504.974,329.679c0,0-7.011-50.79-13.677-99.076
		l-3.163-21.21c-4.74-34.343-8.631-65.65-8.631-65.65"/>
	<path fill="none" stroke="#FFFFFF" stroke-width="2" stroke-miterlimit="10" d="M508.299,377.021
		c6.65,48.173,10.9,78.966,10.9,78.966l31.765,29.148h49.866"/>
	<g>
		<line fill="none" stroke="#FFFFFF" stroke-miterlimit="10" x1="479.502" y1="213.795" x2="496.686" y2="212.279"/>
	</g>
	<g>
		<line fill="none" stroke="#FFFFFF" stroke-miterlimit="10" x1="571.257" y1="476.338" x2="572.772" y2="493.521"/>
	</g>
	<g>
		<line fill="none" stroke="#FFFFFF" stroke-miterlimit="10" x1="463.148" y1="152.589" x2="461.29" y2="138.597"/>
	</g>
	<g>
		
			<line fill="#FFFFFF" stroke="#FFFFFF" stroke-width="2" stroke-miterlimit="10" x1="505.333" y1="348.274" x2="503.143" y2="331.786"/>
		
			<line fill="#FFFFFF" stroke="#FFFFFF" stroke-width="2" stroke-miterlimit="10" x1="509.567" y1="347.903" x2="507.376" y2="331.414"/>
		
			<line fill="#FFFFFF" stroke="#FFFFFF" stroke-width="2" stroke-miterlimit="10" x1="513.8" y1="347.531" x2="511.61" y2="331.043"/>
		
			<line fill="#FFFFFF" stroke="#FFFFFF" stroke-width="2" stroke-miterlimit="10" x1="518.034" y1="347.16" x2="515.843" y2="330.671"/>
		
			<line fill="#FFFFFF" stroke="#FFFFFF" stroke-width="2" stroke-miterlimit="10" x1="522.268" y1="346.788" x2="520.077" y2="330.3"/>
		
			<line fill="#FFFFFF" stroke="#FFFFFF" stroke-width="2" stroke-miterlimit="10" x1="526.501" y1="346.416" x2="524.311" y2="329.928"/>
		
			<line fill="#FFFFFF" stroke="#FFFFFF" stroke-width="2" stroke-miterlimit="10" x1="530.734" y1="346.045" x2="528.544" y2="329.556"/>
		
			<line fill="#FFFFFF" stroke="#FFFFFF" stroke-width="2" stroke-miterlimit="10" x1="534.968" y1="345.673" x2="532.777" y2="329.185"/>
		
			<line fill="#FFFFFF" stroke="#FFFFFF" stroke-width="2" stroke-miterlimit="10" x1="539.201" y1="345.302" x2="537.011" y2="328.813"/>
		
			<line fill="#FFFFFF" stroke="#FFFFFF" stroke-width="2" stroke-miterlimit="10" x1="543.435" y1="344.93" x2="541.244" y2="328.441"/>
		
			<line fill="#FFFFFF" stroke="#FFFFFF" stroke-width="2" stroke-miterlimit="10" x1="547.668" y1="344.559" x2="545.478" y2="328.07"/>
		
			<line fill="#FFFFFF" stroke="#FFFFFF" stroke-width="2" stroke-miterlimit="10" x1="551.901" y1="344.187" x2="549.711" y2="327.698"/>
		
			<line fill="#FFFFFF" stroke="#FFFFFF" stroke-width="2" stroke-miterlimit="10" x1="556.135" y1="343.815" x2="553.944" y2="327.326"/>
		
			<line fill="#FFFFFF" stroke="#FFFFFF" stroke-width="2" stroke-miterlimit="10" x1="560.368" y1="343.444" x2="558.178" y2="326.955"/>
		
			<line fill="#FFFFFF" stroke="#FFFFFF" stroke-width="2" stroke-miterlimit="10" x1="564.602" y1="343.072" x2="562.412" y2="326.583"/>
		
			<line fill="#FFFFFF" stroke="#FFFFFF" stroke-width="2" stroke-miterlimit="10" x1="568.835" y1="342.701" x2="566.645" y2="326.211"/>
		
			<line fill="#FFFFFF" stroke="#FFFFFF" stroke-width="2" stroke-miterlimit="10" x1="573.069" y1="342.329" x2="570.878" y2="325.84"/>
	</g>
	<g>
		
			<line fill="#FFFFFF" stroke="#FFFFFF" stroke-width="2" stroke-miterlimit="10" x1="508.304" y1="373.782" x2="506.146" y2="357.533"/>
		
			<line fill="#FFFFFF" stroke="#FFFFFF" stroke-width="2" stroke-miterlimit="10" x1="512.476" y1="373.416" x2="510.317" y2="357.167"/>
		
			<line fill="#FFFFFF" stroke="#FFFFFF" stroke-width="2" stroke-miterlimit="10" x1="516.647" y1="373.05" x2="514.489" y2="356.801"/>
		
			<line fill="#FFFFFF" stroke="#FFFFFF" stroke-width="2" stroke-miterlimit="10" x1="520.819" y1="372.684" x2="518.661" y2="356.435"/>
		
			<line fill="#FFFFFF" stroke="#FFFFFF" stroke-width="2" stroke-miterlimit="10" x1="524.991" y1="372.317" x2="522.833" y2="356.068"/>
		
			<line fill="#FFFFFF" stroke="#FFFFFF" stroke-width="2" stroke-miterlimit="10" x1="529.163" y1="371.951" x2="527.005" y2="355.702"/>
		
			<line fill="#FFFFFF" stroke="#FFFFFF" stroke-width="2" stroke-miterlimit="10" x1="533.335" y1="371.585" x2="531.177" y2="355.336"/>
		
			<line fill="#FFFFFF" stroke="#FFFFFF" stroke-width="2" stroke-miterlimit="10" x1="537.507" y1="371.219" x2="535.349" y2="354.97"/>
		
			<line fill="#FFFFFF" stroke="#FFFFFF" stroke-width="2" stroke-miterlimit="10" x1="541.679" y1="370.853" x2="539.521" y2="354.604"/>
		
			<line fill="#FFFFFF" stroke="#FFFFFF" stroke-width="2" stroke-miterlimit="10" x1="545.851" y1="370.486" x2="543.692" y2="354.237"/>
		
			<line fill="#FFFFFF" stroke="#FFFFFF" stroke-width="2" stroke-miterlimit="10" x1="550.022" y1="370.12" x2="547.864" y2="353.871"/>
		
			<line fill="#FFFFFF" stroke="#FFFFFF" stroke-width="2" stroke-miterlimit="10" x1="554.194" y1="369.754" x2="552.036" y2="353.505"/>
		
			<line fill="#FFFFFF" stroke="#FFFFFF" stroke-width="2" stroke-miterlimit="10" x1="558.366" y1="369.388" x2="556.208" y2="353.139"/>
		
			<line fill="#FFFFFF" stroke="#FFFFFF" stroke-width="2" stroke-miterlimit="10" x1="562.538" y1="369.021" x2="560.38" y2="352.772"/>
		
			<line fill="#FFFFFF" stroke="#FFFFFF" stroke-width="2" stroke-miterlimit="10" x1="566.71" y1="368.655" x2="564.552" y2="352.406"/>
		
			<line fill="#FFFFFF" stroke="#FFFFFF" stroke-width="2" stroke-miterlimit="10" x1="570.882" y1="368.289" x2="568.724" y2="352.04"/>
		
			<line fill="#FFFFFF" stroke="#FFFFFF" stroke-width="2" stroke-miterlimit="10" x1="575.054" y1="367.923" x2="572.896" y2="351.674"/>
	</g>
	<g>
		<line fill="none" stroke="#FFFFFF" stroke-miterlimit="10" x1="490.381" y1="367.744" x2="491.896" y2="384.927"/>
	</g>
	<g>
		<line fill="none" stroke="#FFFFFF" stroke-miterlimit="10" x1="485.113" y1="320.89" x2="486.628" y2="338.072"/>
	</g>
	<g>
		<path fill="#FFFFFF" d="M566.836,732.39c0-2.47,2.09-4.179,4.37-4.179c2.279,0,4.369,1.52,4.369,4.179
			c0,1.71-1.102,2.812-1.899,3.609c-2.28,2.28-4.654,3.325-4.654,4.389h6.363v1.881h-8.738v-0.95c0-2.564,3.419-4.179,5.699-6.459
			c0.646-0.646,1.33-1.234,1.33-2.47c0-1.52-1.235-2.336-2.47-2.336c-1.235,0-2.489,0.816-2.489,2.336v0.57h-1.881V732.39z"/>
		<path fill="#FFFFFF" d="M576.146,736.855c3.324-4.845,5.699-8.454,5.699-8.454h2.47v8.454h1.52v1.805h-1.52v3.609h-1.9v-3.609
			h-6.269V736.855z M582.415,736.855v-6.061c-1.102,1.634-2.621,3.895-4.141,6.061H582.415z"/>
		<path fill="#FFFFFF" d="M586.786,739.799h2.279v2.47h-2.279V739.799z"/>
		<path fill="#FFFFFF" d="M599.135,730.282l-4.065,3.286c2.488,0.134,4.255,1.957,4.255,4.427c0,2.185-1.805,4.465-4.559,4.465
			c-2.66,0-4.56-1.995-4.56-4.274h1.899c0,1.425,1.14,2.469,2.66,2.469c1.52,0,2.659-1.234,2.659-2.659
			c0-1.71-1.234-2.755-2.85-2.755h-1.919v-1.709l3.914-3.249h-5.795v-1.881h7.22L599.135,730.282z"/>
	</g>
	<g>
		<path fill="#FFFFFF" d="M696.433,564.222c0,2.755-2.279,4.845-4.939,4.845c-2.755,0-4.939-2.186-4.939-4.75h1.9
			c0,1.615,1.311,2.869,3.04,2.869c1.729,0,3.04-1.159,3.04-2.964c0-1.899-1.235-2.982-3.04-3.04
			c-1.14-0.037-1.957,0.02-3.325,0.096l-0.855-1.805l1.615-4.465h6.364v1.881h-5.167l-1.045,2.641
			c0.437-0.057,1.577-0.171,2.413-0.152C694.438,559.435,696.433,561.278,696.433,564.222z"/>
		<path fill="#FFFFFF" d="M697.574,558.998c0-2.47,2.09-4.179,4.37-4.179c2.279,0,4.369,1.52,4.369,4.179
			c0,1.71-1.102,2.812-1.899,3.609c-2.28,2.28-4.654,3.325-4.654,4.389h6.364v1.881h-8.739v-0.95c0-2.564,3.419-4.179,5.699-6.459
			c0.646-0.646,1.33-1.234,1.33-2.47c0-1.52-1.235-2.336-2.47-2.336s-2.489,0.816-2.489,2.336v0.57h-1.881V558.998z"/>
		<path fill="#FFFFFF" d="M707.644,566.407h2.28v2.47h-2.28V566.407z"/>
		<path fill="#FFFFFF" d="M711.444,558.998c0-2.47,2.09-4.179,4.37-4.179s4.369,1.52,4.369,4.179c0,1.71-1.102,2.812-1.899,3.609
			c-2.28,2.28-4.654,3.325-4.654,4.389h6.364v1.881h-8.739v-0.95c0-2.564,3.419-4.179,5.699-6.459c0.646-0.646,1.33-1.234,1.33-2.47
			c0-1.52-1.235-2.336-2.47-2.336s-2.489,0.816-2.489,2.336v0.57h-1.881V558.998z"/>
	</g>
	<g>
		<path fill="#FFFFFF" d="M634.15,728.401h2.28v13.868h-1.9v-11.398l-1.12,1.71h-1.919v-0.38L634.15,728.401z"/>
		<path fill="#FFFFFF" d="M639.091,736.855c3.325-4.845,5.699-8.454,5.699-8.454h2.47v8.454h1.52v1.805h-1.52v3.609h-1.899v-3.609
			h-6.27V736.855z M645.36,736.855v-6.061c-1.102,1.634-2.622,3.895-4.142,6.061H645.36z"/>
		<path fill="#FFFFFF" d="M649.73,739.799h2.28v2.47h-2.28V739.799z"/>
		<path fill="#FFFFFF" d="M658.318,728.211c2.279,0,4.065,1.614,4.046,3.989h-1.899c0-1.425-0.988-2.185-2.223-2.185
			c-2.526,0-3.135,3.306-3.097,5.205c0.646-0.855,1.71-1.69,3.135-1.69c2.754,0,4.369,2.089,4.369,4.464
			c0,2.279-1.653,4.465-4.407,4.465c-1.672,0-3.04-0.836-3.838-2.09c-0.836-1.312-1.083-3.116-1.063-5.034
			C653.379,731.726,654.766,728.211,658.318,728.211z M660.75,737.995c0-1.52-1.045-2.659-2.641-2.659
			c-1.521,0-2.527,1.12-2.527,2.659c0,1.425,1.083,2.641,2.603,2.641C659.705,740.635,660.75,739.514,660.75,737.995z"/>
	</g>
	<g>
		<path fill="#FFFFFF" d="M693.622,728.401h2.279v13.868h-1.899v-11.398l-1.121,1.71h-1.919v-0.38L693.622,728.401z"/>
		<path fill="#FFFFFF" d="M698.562,736.855c3.324-4.845,5.699-8.454,5.699-8.454h2.47v8.454h1.52v1.805h-1.52v3.609h-1.9v-3.609
			h-6.269V736.855z M704.831,736.855v-6.061c-1.102,1.634-2.621,3.895-4.141,6.061H704.831z"/>
	</g>
	<polygon fill="none" stroke="#FFFFFF" stroke-width="2" stroke-miterlimit="10" points="552.157,522.225 556.865,664.242 
		543.825,662.225 548.177,795.225 818.108,797.242 816.504,522.225 	"/>
	
		<line fill="none" stroke="#FFFFFF" stroke-width="2" stroke-miterlimit="10" x1="817.333" y1="664.242" x2="551.589" y2="664.242"/>
	<polyline fill="none" stroke="#FFFFFF" stroke-width="2" stroke-miterlimit="10" points="589.907,522.225 591.737,598.155 
		629.021,622.242 816.691,622.242 	"/>
	
		<line fill="none" stroke="#FFFFFF" stroke-width="2" stroke-miterlimit="10" x1="618.912" y1="664.318" x2="621.266" y2="797.242"/>
	<line fill="none" stroke="#FFFFFF" stroke-width="2" stroke-miterlimit="10" x1="673.622" y1="697.98" x2="675.38" y2="797.242"/>
	
		<line fill="none" stroke="#FFFFFF" stroke-width="2" stroke-miterlimit="10" x1="726.292" y1="664.318" x2="728.646" y2="797.242"/>
	
		<line fill="none" stroke="#FFFFFF" stroke-width="2" stroke-miterlimit="10" x1="761.042" y1="664.318" x2="761.042" y2="622.243"/>
	<g>
		<path fill="#FFFFFF" d="M782.094,638.423h3l2.7,7.95l2.43-10.05h2.97l-3.9,14.1h-2.85l-2.85-8.13l-2.85,8.13h-2.85l-3.9-14.1h2.97
			l2.43,10.05L782.094,638.423z"/>
		<path fill="#FFFFFF" d="M801.443,648.022c1.8,0,3.18-1.199,3.66-2.399l2.34,1.5c-1.17,2.1-3.3,3.6-6.15,3.6
			c-3.78,0-7.2-3-7.2-7.35s3.42-7.35,7.2-7.35c2.85,0,4.95,1.5,6.12,3.6l-2.34,1.5c-0.48-1.2-1.83-2.399-3.63-2.399
			c-2.85,0-4.41,2.1-4.41,4.649S798.594,648.022,801.443,648.022z"/>
	</g>
	<g>
		<line fill="none" stroke="#FFFFFF" stroke-miterlimit="10" x1="602.496" y1="612.569" x2="611.278" y2="601.984"/>
	</g>
	
		<line fill="none" stroke="#FFFFFF" stroke-width="2" stroke-miterlimit="10" x1="726.293" y1="696.548" x2="618.748" y2="696.548"/>
	<g>
		<line fill="none" stroke="#FFFFFF" stroke-miterlimit="10" x1="699.884" y1="689.015" x2="699.884" y2="705.246"/>
	</g>
	<g>
		<line fill="none" stroke="#FFFFFF" stroke-miterlimit="10" x1="661.183" y1="653.575" x2="661.183" y2="669.807"/>
	</g>
	<g>
		<line fill="none" stroke="#FFFFFF" stroke-miterlimit="10" x1="742.227" y1="655.856" x2="742.227" y2="672.088"/>
	</g>
	<g>
		<line fill="none" stroke="#FFFFFF" stroke-miterlimit="10" x1="768.874" y1="642.817" x2="752.643" y2="642.817"/>
	</g>
	<g>
		<line fill="none" stroke="#FFFFFF" stroke-miterlimit="10" x1="644.838" y1="689.015" x2="644.838" y2="705.246"/>
	</g>
	<g>
		<line fill="none" stroke="#FFFFFF" stroke-miterlimit="10" x1="576.688" y1="655.855" x2="576.688" y2="672.087"/>
	</g>
	<g>
		<path fill="#FFFFFF" d="M557.917,822.289h1.995v13.868h-1.995v-6.079h-5.319v6.079h-1.995v-13.868h1.995v5.89h5.319V822.289z"/>
		<path fill="#FFFFFF" d="M571.122,828.178v1.52h-9.119v-1.52H571.122z M571.122,831.597v1.52h-9.119v-1.52H571.122z"/>
		<path fill="#FFFFFF" d="M581.192,824.169l-4.065,3.286c2.489,0.134,4.255,1.957,4.255,4.427c0,2.185-1.805,4.465-4.559,4.465
			c-2.66,0-4.56-1.995-4.56-4.274h1.9c0,1.425,1.14,2.469,2.66,2.469c1.52,0,2.66-1.234,2.66-2.659c0-1.71-1.235-2.755-2.85-2.755
			h-1.919v-1.709l3.914-3.249h-5.794v-1.881h7.219L581.192,824.169z"/>
		<path fill="#FFFFFF" d="M582.713,833.687h2.28v2.47h-2.28V833.687z"/>
		<path fill="#FFFFFF" d="M595.821,831.502c0,2.755-2.279,4.845-4.939,4.845c-2.755,0-4.939-2.186-4.939-4.75h1.9
			c0,1.615,1.311,2.869,3.04,2.869c1.729,0,3.04-1.159,3.04-2.964c0-1.899-1.235-2.982-3.04-3.04
			c-1.14-0.037-1.957,0.02-3.325,0.096l-0.855-1.805l1.615-4.465h6.364v1.881h-5.167l-1.044,2.641
			c0.437-0.057,1.577-0.171,2.413-0.152C593.827,826.715,595.821,828.558,595.821,831.502z"/>
		<path fill="#FFFFFF" d="M601.807,822.099c2.28,0,4.274,1.709,4.274,3.799c0,1.292-0.684,2.355-1.729,3.021
			c1.235,0.665,2.014,1.824,2.014,3.438c0,2.185-1.9,3.99-4.56,3.99s-4.559-1.806-4.559-3.99c0-1.614,0.779-2.773,1.995-3.438
			c-1.026-0.665-1.71-1.729-1.71-3.021C597.532,823.808,599.527,822.099,601.807,822.099z M601.807,834.542
			c1.52,0,2.66-0.949,2.66-2.279c0-1.425-1.14-2.375-2.66-2.375c-1.425,0-2.66,0.95-2.66,2.375
			C599.147,833.592,600.287,834.542,601.807,834.542z M601.807,828.121c1.52,0,2.375-1.082,2.375-2.127
			c0-1.235-1.044-2.09-2.375-2.09c-1.33,0-2.375,0.854-2.375,2.09C599.432,827.039,600.287,828.121,601.807,828.121z"/>
	</g>
	<path fill="none" stroke="#FFFFFF" stroke-width="2" stroke-miterlimit="10" d="M214,522.225c-27.634,0-55.379,0-55.379,0
		l-57.74-434.674h110.945l56.889,434.674"/>
	<polygon fill="none" stroke="#FFFFFF" stroke-width="2" stroke-miterlimit="10" points="213.986,522.225 218.694,664.242 
		208.342,664.242 212.694,797.242 439.694,797.242 439.694,522.225 	"/>
	
		<line fill="none" stroke="#FFFFFF" stroke-width="2" stroke-miterlimit="10" x1="439.126" y1="663.676" x2="213.418" y2="663.676"/>
	
		<line fill="none" stroke="#FFFFFF" stroke-width="2" stroke-miterlimit="10" x1="439.126" y1="622.242" x2="260.895" y2="622.242"/>
	<polyline fill="none" stroke="#FFFFFF" stroke-width="2" stroke-miterlimit="10" points="260.895,606.459 327.979,606.459 
		327.979,622.242 	"/>
	<line fill="none" stroke="#FFFFFF" stroke-width="2" stroke-miterlimit="10" x1="258.54" y1="522.225" x2="260.895" y2="622.242"/>
	
		<line fill="none" stroke="#FFFFFF" stroke-width="1.8443" stroke-miterlimit="10" x1="305.976" y1="522.225" x2="308.329" y2="607.277"/>
	
		<line fill="none" stroke="#FFFFFF" stroke-width="2" stroke-miterlimit="10" x1="276.001" y1="664.318" x2="278.355" y2="797.242"/>
	
		<line fill="none" stroke="#FFFFFF" stroke-width="2" stroke-miterlimit="10" x1="325.623" y1="664.318" x2="327.977" y2="797.242"/>
	<line fill="none" stroke="#FFFFFF" stroke-width="2" stroke-miterlimit="10" x1="350.456" y1="522.225" x2="353.8" y2="664.318"/>
	<polygon fill="none" stroke="#FFFFFF" stroke-width="2" stroke-miterlimit="10" points="248.938,368.574 139.362,377.242 
		133.442,332.674 242.29,324.006 	"/>
	
		<line fill="none" stroke="#FFFFFF" stroke-width="2" stroke-miterlimit="10" x1="227.929" y1="204.369" x2="118.638" y2="213.037"/>
	
		<line fill="none" stroke="#FFFFFF" stroke-width="2" stroke-miterlimit="10" x1="231.615" y1="248.353" x2="160.747" y2="253.712"/>
	<line fill="none" stroke="#FFFFFF" stroke-width="2" stroke-miterlimit="10" x1="257.186" y1="419.84" x2="188.182" y2="425.299"/>
	
		<line fill="none" stroke="#FFFFFF" stroke-width="2" stroke-miterlimit="10" x1="171.058" y1="329.679" x2="154.567" y2="210.217"/>
	
		<line fill="none" stroke="#FFFFFF" stroke-width="2" stroke-miterlimit="10" x1="195.654" y1="476.336" x2="180.708" y2="376.359"/>
	<line fill="none" stroke="#FFFFFF" stroke-width="2" stroke-miterlimit="10" x1="261.338" y1="471.14" x2="195.654" y2="476.336"/>
	<g>
		<path fill="#FFFFFF" d="M394.696,638.423h3l2.7,7.95l2.43-10.05h2.97l-3.9,14.1h-2.85l-2.85-8.13l-2.85,8.13h-2.851l-3.899-14.1
			h2.97l2.43,10.05L394.696,638.423z"/>
		<path fill="#FFFFFF" d="M414.046,648.022c1.801,0,3.181-1.199,3.66-2.399l2.34,1.5c-1.17,2.1-3.3,3.6-6.149,3.6
			c-3.78,0-7.2-3-7.2-7.35s3.42-7.35,7.2-7.35c2.85,0,4.949,1.5,6.119,3.6l-2.34,1.5c-0.479-1.2-1.829-2.399-3.63-2.399
			c-2.85,0-4.409,2.1-4.409,4.649S411.196,648.022,414.046,648.022z"/>
	</g>
	<g>
		
			<line fill="#FFFFFF" stroke="#FFFFFF" stroke-width="2" stroke-miterlimit="10" x1="168.081" y1="348.274" x2="165.89" y2="331.786"/>
		
			<line fill="#FFFFFF" stroke="#FFFFFF" stroke-width="2" stroke-miterlimit="10" x1="172.314" y1="347.903" x2="170.124" y2="331.414"/>
		
			<line fill="#FFFFFF" stroke="#FFFFFF" stroke-width="2" stroke-miterlimit="10" x1="176.547" y1="347.531" x2="174.357" y2="331.043"/>
		
			<line fill="#FFFFFF" stroke="#FFFFFF" stroke-width="2" stroke-miterlimit="10" x1="180.781" y1="347.16" x2="178.591" y2="330.671"/>
		
			<line fill="#FFFFFF" stroke="#FFFFFF" stroke-width="2" stroke-miterlimit="10" x1="185.015" y1="346.788" x2="182.824" y2="330.3"/>
		
			<line fill="#FFFFFF" stroke="#FFFFFF" stroke-width="2" stroke-miterlimit="10" x1="189.248" y1="346.416" x2="187.058" y2="329.928"/>
		
			<line fill="#FFFFFF" stroke="#FFFFFF" stroke-width="2" stroke-miterlimit="10" x1="193.481" y1="346.045" x2="191.291" y2="329.556"/>
		
			<line fill="#FFFFFF" stroke="#FFFFFF" stroke-width="2" stroke-miterlimit="10" x1="197.715" y1="345.673" x2="195.524" y2="329.185"/>
		
			<line fill="#FFFFFF" stroke="#FFFFFF" stroke-width="2" stroke-miterlimit="10" x1="201.948" y1="345.302" x2="199.758" y2="328.813"/>
		
			<line fill="#FFFFFF" stroke="#FFFFFF" stroke-width="2" stroke-miterlimit="10" x1="206.182" y1="344.93" x2="203.991" y2="328.441"/>
		
			<line fill="#FFFFFF" stroke="#FFFFFF" stroke-width="2" stroke-miterlimit="10" x1="210.415" y1="344.559" x2="208.225" y2="328.07"/>
		
			<line fill="#FFFFFF" stroke="#FFFFFF" stroke-width="2" stroke-miterlimit="10" x1="214.648" y1="344.187" x2="212.458" y2="327.698"/>
		
			<line fill="#FFFFFF" stroke="#FFFFFF" stroke-width="2" stroke-miterlimit="10" x1="218.882" y1="343.815" x2="216.691" y2="327.326"/>
		
			<line fill="#FFFFFF" stroke="#FFFFFF" stroke-width="2" stroke-miterlimit="10" x1="223.115" y1="343.444" x2="220.925" y2="326.955"/>
		
			<line fill="#FFFFFF" stroke="#FFFFFF" stroke-width="2" stroke-miterlimit="10" x1="227.349" y1="343.072" x2="225.158" y2="326.583"/>
		
			<line fill="#FFFFFF" stroke="#FFFFFF" stroke-width="2" stroke-miterlimit="10" x1="231.583" y1="342.701" x2="229.392" y2="326.211"/>
		
			<line fill="#FFFFFF" stroke="#FFFFFF" stroke-width="2" stroke-miterlimit="10" x1="235.816" y1="342.329" x2="233.625" y2="325.84"/>
	</g>
	<g>
		
			<line fill="#FFFFFF" stroke="#FFFFFF" stroke-width="2" stroke-miterlimit="10" x1="171.334" y1="373.782" x2="169.176" y2="357.533"/>
		
			<line fill="#FFFFFF" stroke="#FFFFFF" stroke-width="2" stroke-miterlimit="10" x1="175.506" y1="373.416" x2="173.348" y2="357.167"/>
		
			<line fill="#FFFFFF" stroke="#FFFFFF" stroke-width="2" stroke-miterlimit="10" x1="179.678" y1="373.05" x2="177.52" y2="356.801"/>
		
			<line fill="#FFFFFF" stroke="#FFFFFF" stroke-width="2" stroke-miterlimit="10" x1="183.85" y1="372.684" x2="181.691" y2="356.435"/>
		
			<line fill="#FFFFFF" stroke="#FFFFFF" stroke-width="2" stroke-miterlimit="10" x1="188.021" y1="372.317" x2="185.863" y2="356.068"/>
		
			<line fill="#FFFFFF" stroke="#FFFFFF" stroke-width="2" stroke-miterlimit="10" x1="192.193" y1="371.951" x2="190.036" y2="355.702"/>
		
			<line fill="#FFFFFF" stroke="#FFFFFF" stroke-width="2" stroke-miterlimit="10" x1="196.366" y1="371.585" x2="194.208" y2="355.336"/>
		
			<line fill="#FFFFFF" stroke="#FFFFFF" stroke-width="2" stroke-miterlimit="10" x1="200.537" y1="371.219" x2="198.379" y2="354.97"/>
		
			<line fill="#FFFFFF" stroke="#FFFFFF" stroke-width="2" stroke-miterlimit="10" x1="204.709" y1="370.853" x2="202.551" y2="354.604"/>
		
			<line fill="#FFFFFF" stroke="#FFFFFF" stroke-width="2" stroke-miterlimit="10" x1="208.881" y1="370.486" x2="206.723" y2="354.237"/>
		
			<line fill="#FFFFFF" stroke="#FFFFFF" stroke-width="2" stroke-miterlimit="10" x1="213.053" y1="370.12" x2="210.895" y2="353.871"/>
		
			<line fill="#FFFFFF" stroke="#FFFFFF" stroke-width="2" stroke-miterlimit="10" x1="217.225" y1="369.754" x2="215.067" y2="353.505"/>
		
			<line fill="#FFFFFF" stroke="#FFFFFF" stroke-width="2" stroke-miterlimit="10" x1="221.396" y1="369.388" x2="219.238" y2="353.139"/>
		
			<line fill="#FFFFFF" stroke="#FFFFFF" stroke-width="2" stroke-miterlimit="10" x1="225.568" y1="369.021" x2="223.41" y2="352.772"/>
		
			<line fill="#FFFFFF" stroke="#FFFFFF" stroke-width="2" stroke-miterlimit="10" x1="229.74" y1="368.655" x2="227.582" y2="352.406"/>
		
			<line fill="#FFFFFF" stroke="#FFFFFF" stroke-width="2" stroke-miterlimit="10" x1="233.912" y1="368.289" x2="231.754" y2="352.04"/>
		
			<line fill="#FFFFFF" stroke="#FFFFFF" stroke-width="2" stroke-miterlimit="10" x1="238.084" y1="367.923" x2="235.926" y2="351.674"/>
	</g>
	<g>
		<line fill="none" stroke="#FFFFFF" stroke-miterlimit="10" x1="153.411" y1="367.744" x2="154.927" y2="384.927"/>
	</g>
	<g>
		<line fill="none" stroke="#FFFFFF" stroke-miterlimit="10" x1="148.144" y1="320.89" x2="149.659" y2="338.072"/>
	</g>
	<g>
		<line fill="none" stroke="#FFFFFF" stroke-miterlimit="10" x1="133.443" y1="204.369" x2="134.959" y2="221.552"/>
	</g>
	<g>
		<line fill="none" stroke="#FFFFFF" stroke-miterlimit="10" x1="234.024" y1="513.898" x2="233.258" y2="531.131"/>
	</g>
	<g>
		<line fill="none" stroke="#FFFFFF" stroke-miterlimit="10" x1="245.362" y1="655.023" x2="244.879" y2="672.256"/>
	</g>
	<g>
		<line fill="none" stroke="#FFFFFF" stroke-miterlimit="10" x1="298.625" y1="655.023" x2="298.142" y2="672.256"/>
	</g>
	<g>
		<line fill="none" stroke="#FFFFFF" stroke-miterlimit="10" x1="339.736" y1="655.023" x2="339.253" y2="672.256"/>
	</g>
	<g>
		<line fill="none" stroke="#FFFFFF" stroke-miterlimit="10" x1="339.736" y1="610.396" x2="339.253" y2="627.628"/>
	</g>
	<g>
		<line fill="none" stroke="#FFFFFF" stroke-miterlimit="10" x1="173.481" y1="276.558" x2="156.299" y2="278.073"/>
	</g>
	<g>
		<line fill="none" stroke="#FFFFFF" stroke-miterlimit="10" x1="194.154" y1="397.773" x2="176.972" y2="399.289"/>
	</g>
	<g>
		<line fill="none" stroke="#FFFFFF" stroke-miterlimit="10" x1="268.716" y1="587.862" x2="251.533" y2="587.679"/>
	</g>
	<g>
		<line fill="none" stroke="#FFFFFF" stroke-miterlimit="10" x1="362.02" y1="581.71" x2="344.837" y2="581.526"/>
	</g>
	<g>
		<line fill="none" stroke="#FFFFFF" stroke-miterlimit="10" x1="200.907" y1="448.12" x2="183.725" y2="449.636"/>
	</g>
	<g>
		<line fill="none" stroke="#FFFFFF" stroke-miterlimit="10" x1="170.1" y1="199.447" x2="171.615" y2="216.63"/>
	</g>
	<g>
		<path fill="#FFFFFF" d="M179.71,220.949h2.28v13.868h-1.9v-11.398l-1.121,1.71h-1.919v-0.38L179.71,220.949z"/>
		<path fill="#FFFFFF" d="M190.064,235.008c-3.059,0-4.749-3.04-4.749-7.124c0-4.085,1.69-7.124,4.749-7.124
			c3.04,0,4.75,3.039,4.75,7.124C194.814,231.968,193.104,235.008,190.064,235.008z M190.064,233.184c1.995,0,2.85-2.166,2.85-5.3
			c0-3.135-0.855-5.301-2.85-5.301s-2.85,2.166-2.85,5.301C187.215,231.018,188.07,233.184,190.064,233.184z"/>
		<path fill="#FFFFFF" d="M195.86,232.348h2.28v2.47h-2.28V232.348z"/>
		<path fill="#FFFFFF" d="M204.447,220.76c2.279,0,4.065,1.614,4.046,3.989h-1.9c0-1.425-0.988-2.185-2.223-2.185
			c-2.526,0-3.134,3.306-3.097,5.205c0.646-0.855,1.71-1.69,3.135-1.69c2.754,0,4.369,2.089,4.369,4.464
			c0,2.279-1.653,4.465-4.407,4.465c-1.672,0-3.04-0.836-3.837-2.09c-0.836-1.312-1.083-3.116-1.064-5.034
			C199.508,224.274,200.895,220.76,204.447,220.76z M206.879,230.543c0-1.52-1.045-2.659-2.641-2.659
			c-1.52,0-2.527,1.12-2.527,2.659c0,1.425,1.083,2.641,2.603,2.641C205.834,233.184,206.879,232.062,206.879,230.543z"/>
	</g>
	<g>
		<path fill="#FFFFFF" d="M139.373,255.089h2.28v13.868h-1.9v-11.398l-1.121,1.71h-1.919v-0.38L139.373,255.089z"/>
		<path fill="#FFFFFF" d="M149.728,269.147c-3.059,0-4.749-3.04-4.749-7.124c0-4.085,1.69-7.124,4.749-7.124
			c3.04,0,4.75,3.039,4.75,7.124C154.477,266.107,152.767,269.147,149.728,269.147z M149.728,267.323c1.995,0,2.85-2.166,2.85-5.3
			c0-3.135-0.855-5.301-2.85-5.301s-2.85,2.166-2.85,5.301C146.878,265.157,147.733,267.323,149.728,267.323z"/>
	</g>
	<g>
		<path fill="#FFFFFF" d="M151.587,140.309l-4.065,3.286c2.489,0.134,4.255,1.957,4.255,4.427c0,2.185-1.805,4.465-4.559,4.465
			c-2.66,0-4.56-1.995-4.56-4.274h1.9c0,1.425,1.14,2.469,2.66,2.469c1.52,0,2.66-1.234,2.66-2.659c0-1.71-1.235-2.755-2.85-2.755
			h-1.919v-1.709l3.914-3.249h-5.794v-1.881h7.219L151.587,140.309z"/>
		<path fill="#FFFFFF" d="M161.657,140.309c0,0-2.564,4.958-4.844,11.987h-1.9v-0.38c1.824-5.3,3.933-9.917,4.711-11.607h-7.086
			v-1.881h9.119V140.309z"/>
		<path fill="#FFFFFF" d="M162.418,149.826h2.28v2.47h-2.28V149.826z"/>
		<path fill="#FFFFFF" d="M174.767,140.309l-4.065,3.286c2.489,0.134,4.255,1.957,4.255,4.427c0,2.185-1.805,4.465-4.559,4.465
			c-2.66,0-4.56-1.995-4.56-4.274h1.9c0,1.425,1.14,2.469,2.66,2.469c1.52,0,2.66-1.234,2.66-2.659c0-1.71-1.235-2.755-2.85-2.755
			h-1.919v-1.709l3.914-3.249h-5.794v-1.881h7.219L174.767,140.309z"/>
	</g>
	<g>
		<path fill="#FFFFFF" d="M188.692,277.269h2.28v13.868h-1.9v-11.398l-1.121,1.71h-1.919v-0.38L188.692,277.269z"/>
		<path fill="#FFFFFF" d="M199.56,277.079c2.279,0,4.065,1.614,4.046,3.989h-1.9c0-1.425-0.988-2.185-2.223-2.185
			c-2.526,0-3.134,3.306-3.097,5.205c0.646-0.855,1.71-1.69,3.135-1.69c2.754,0,4.369,2.089,4.369,4.464
			c0,2.279-1.653,4.465-4.407,4.465c-1.672,0-3.04-0.836-3.837-2.09c-0.836-1.312-1.083-3.116-1.064-5.034
			C194.621,280.594,196.007,277.079,199.56,277.079z M201.992,286.862c0-1.52-1.045-2.659-2.641-2.659
			c-1.52,0-2.527,1.12-2.527,2.659c0,1.425,1.083,2.641,2.603,2.641C200.947,289.503,201.992,288.382,201.992,286.862z"/>
		<path fill="#FFFFFF" d="M204.842,288.667h2.28v2.47h-2.28V288.667z"/>
		<path fill="#FFFFFF" d="M216.811,279.149c0,0-2.564,4.958-4.844,11.987h-1.9v-0.38c1.824-5.3,3.933-9.917,4.711-11.607h-7.086
			v-1.881h9.119V279.149z"/>
	</g>
	<g>
		<path fill="#FFFFFF" d="M208.416,390.177h2.28v13.868h-1.9v-11.398l-1.121,1.71h-1.919v-0.38L208.416,390.177z"/>
		<path fill="#FFFFFF" d="M218.771,404.235c-3.059,0-4.749-3.04-4.749-7.124c0-4.085,1.69-7.124,4.749-7.124
			c3.04,0,4.75,3.039,4.75,7.124C223.52,401.195,221.81,404.235,218.771,404.235z M218.771,402.411c1.995,0,2.85-2.166,2.85-5.3
			c0-3.135-0.855-5.301-2.85-5.301s-2.85,2.166-2.85,5.301C215.921,400.245,216.776,402.411,218.771,402.411z"/>
	</g>
	<g>
		<path fill="#FFFFFF" d="M217.754,440.225h2.28v13.868h-1.9v-11.398l-1.121,1.71h-1.919v-0.38L217.754,440.225z"/>
		<path fill="#FFFFFF" d="M228.108,454.283c-3.059,0-4.749-3.04-4.749-7.124c0-4.085,1.69-7.124,4.749-7.124
			c3.04,0,4.75,3.039,4.75,7.124C232.858,451.243,231.148,454.283,228.108,454.283z M228.108,452.459c1.995,0,2.85-2.166,2.85-5.3
			c0-3.135-0.855-5.301-2.85-5.301s-2.85,2.166-2.85,5.301C225.259,450.293,226.114,452.459,228.108,452.459z"/>
	</g>
	<g>
		<path fill="#FFFFFF" d="M270.016,555.008h2.28v13.868h-1.9v-11.398l-1.121,1.71h-1.919v-0.38L270.016,555.008z"/>
		<path fill="#FFFFFF" d="M275.336,558.998c0-2.47,2.09-4.179,4.37-4.179c2.279,0,4.369,1.52,4.369,4.179
			c0,1.71-1.102,2.812-1.899,3.609c-2.28,2.28-4.654,3.325-4.654,4.389h6.364v1.881h-8.739v-0.95c0-2.564,3.419-4.179,5.699-6.459
			c0.646-0.646,1.33-1.234,1.33-2.47c0-1.52-1.235-2.336-2.47-2.336s-2.489,0.816-2.489,2.336v0.57h-1.881V558.998z"/>
		<path fill="#FFFFFF" d="M285.406,566.407h2.28v2.47h-2.28V566.407z"/>
		<path fill="#FFFFFF" d="M293.48,554.819c2.28,0,4.274,1.709,4.274,3.799c0,1.292-0.684,2.355-1.729,3.021
			c1.235,0.665,2.014,1.824,2.014,3.438c0,2.185-1.9,3.99-4.56,3.99s-4.559-1.806-4.559-3.99c0-1.614,0.779-2.773,1.995-3.438
			c-1.026-0.665-1.71-1.729-1.71-3.021C289.206,556.528,291.201,554.819,293.48,554.819z M293.48,567.261
			c1.52,0,2.66-0.949,2.66-2.279c0-1.425-1.14-2.375-2.66-2.375c-1.425,0-2.66,0.95-2.66,2.375
			C290.821,566.312,291.961,567.261,293.48,567.261z M293.48,560.84c1.52,0,2.375-1.082,2.375-2.127c0-1.235-1.045-2.09-2.375-2.09
			c-1.33,0-2.375,0.854-2.375,2.09C291.106,559.758,291.961,560.84,293.48,560.84z"/>
	</g>
	<g>
		<path fill="#FFFFFF" d="M226.854,732.39c0-2.47,2.09-4.179,4.37-4.179s4.369,1.52,4.369,4.179c0,1.71-1.102,2.812-1.899,3.609
			c-2.28,2.28-4.654,3.325-4.654,4.389h6.364v1.881h-8.739v-0.95c0-2.564,3.419-4.179,5.699-6.459c0.646-0.646,1.33-1.234,1.33-2.47
			c0-1.52-1.235-2.336-2.47-2.336s-2.489,0.816-2.489,2.336v0.57h-1.881V732.39z"/>
		<path fill="#FFFFFF" d="M237.303,732.39c0-2.47,2.09-4.179,4.37-4.179c2.279,0,4.369,1.52,4.369,4.179
			c0,1.71-1.102,2.812-1.899,3.609c-2.28,2.28-4.654,3.325-4.654,4.389h6.364v1.881h-8.739v-0.95c0-2.564,3.419-4.179,5.699-6.459
			c0.646-0.646,1.33-1.234,1.33-2.47c0-1.52-1.235-2.336-2.47-2.336s-2.489,0.816-2.489,2.336v0.57h-1.881V732.39z"/>
		<path fill="#FFFFFF" d="M247.373,739.799h2.28v2.47h-2.28V739.799z"/>
		<path fill="#FFFFFF" d="M250.603,736.855c3.325-4.845,5.699-8.454,5.699-8.454h2.47v8.454h1.52v1.805h-1.52v3.609h-1.9v-3.609
			h-6.269V736.855z M256.872,736.855v-6.061c-1.102,1.634-2.622,3.895-4.141,6.061H256.872z"/>
	</g>
	<g>
		<path fill="#FFFFFF" d="M290.051,728.401h2.28v13.868h-1.9v-11.398l-1.121,1.71h-1.919v-0.38L290.051,728.401z"/>
		<path fill="#FFFFFF" d="M294.991,736.855c3.325-4.845,5.699-8.454,5.699-8.454h2.47v8.454h1.52v1.805h-1.52v3.609h-1.9v-3.609
			h-6.269V736.855z M301.26,736.855v-6.061c-1.102,1.634-2.622,3.895-4.141,6.061H301.26z"/>
		<path fill="#FFFFFF" d="M305.631,739.799h2.28v2.47h-2.28V739.799z"/>
		<path fill="#FFFFFF" d="M314.218,728.211c2.279,0,4.065,1.614,4.046,3.989h-1.9c0-1.425-0.988-2.185-2.223-2.185
			c-2.526,0-3.134,3.306-3.097,5.205c0.646-0.855,1.71-1.69,3.135-1.69c2.754,0,4.369,2.089,4.369,4.464
			c0,2.279-1.653,4.465-4.407,4.465c-1.672,0-3.04-0.836-3.837-2.09c-0.836-1.312-1.083-3.116-1.064-5.034
			C309.279,731.726,310.666,728.211,314.218,728.211z M316.65,737.995c0-1.52-1.045-2.659-2.641-2.659
			c-1.52,0-2.527,1.12-2.527,2.659c0,1.425,1.083,2.641,2.603,2.641C315.605,740.635,316.65,739.514,316.65,737.995z"/>
	</g>
	<g>
		<path fill="#FFFFFF" d="M375.305,730.283l-4.065,3.286c2.489,0.134,4.255,1.957,4.255,4.427c0,2.185-1.805,4.465-4.559,4.465
			c-2.66,0-4.56-1.995-4.56-4.274h1.9c0,1.425,1.14,2.469,2.66,2.469c1.52,0,2.66-1.234,2.66-2.659c0-1.71-1.235-2.755-2.85-2.755
			h-1.919v-1.709l3.914-3.249h-5.794v-1.881h7.219L375.305,730.283z"/>
		<path fill="#FFFFFF" d="M380.967,742.46c-2.28,0-4.065-1.615-4.046-3.99h1.899c0,1.425,0.988,2.185,2.223,2.185
			c2.527,0,3.135-3.305,3.097-5.205c-0.627,0.932-1.52,1.691-3.134,1.691c-2.755,0-4.37-2.09-4.37-4.465
			c0-2.279,1.71-4.464,4.464-4.464c1.805,0,3.325,1.083,4.065,2.679c0.57,1.234,0.798,2.792,0.779,4.445
			C385.906,738.946,384.52,742.46,380.967,742.46z M378.536,732.676c0,1.52,1.14,2.641,2.66,2.641c1.52,0,2.507-1.102,2.507-2.641
			c0-1.425-1.083-2.641-2.603-2.641C379.581,730.036,378.536,731.157,378.536,732.676z"/>
		<path fill="#FFFFFF" d="M387.275,739.8h2.28v2.47h-2.28V739.8z"/>
		<path fill="#FFFFFF" d="M395.863,728.212c2.279,0,4.065,1.614,4.046,3.989h-1.9c0-1.425-0.988-2.185-2.223-2.185
			c-2.526,0-3.134,3.306-3.097,5.205c0.646-0.854,1.71-1.69,3.135-1.69c2.754,0,4.369,2.089,4.369,4.464
			c0,2.279-1.653,4.465-4.407,4.465c-1.672,0-3.04-0.836-3.837-2.09c-0.836-1.312-1.083-3.116-1.064-5.034
			C390.923,731.727,392.31,728.212,395.863,728.212z M398.294,737.996c0-1.52-1.045-2.659-2.641-2.659
			c-1.52,0-2.527,1.12-2.527,2.659c0,1.425,1.083,2.641,2.603,2.641C397.25,740.636,398.294,739.515,398.294,737.996z"/>
	</g>
	<g>
		<path fill="#FFFFFF" d="M316.073,555.008h2.28v13.868h-1.9v-11.398l-1.121,1.71h-1.919v-0.38L316.073,555.008z"/>
		<path fill="#FFFFFF" d="M321.393,558.998c0-2.47,2.09-4.179,4.37-4.179c2.279,0,4.369,1.52,4.369,4.179
			c0,1.71-1.102,2.812-1.899,3.609c-2.28,2.28-4.654,3.325-4.654,4.389h6.364v1.881h-8.739v-0.95c0-2.564,3.419-4.179,5.699-6.459
			c0.646-0.646,1.33-1.234,1.33-2.47c0-1.52-1.235-2.336-2.47-2.336s-2.489,0.816-2.489,2.336v0.57h-1.881V558.998z"/>
		<path fill="#FFFFFF" d="M331.463,566.407h2.28v2.47h-2.28V566.407z"/>
		<path fill="#FFFFFF" d="M334.693,563.462c3.325-4.845,5.699-8.454,5.699-8.454h2.47v8.454h1.52v1.805h-1.52v3.609h-1.9v-3.609
			h-6.269V563.462z M340.962,563.462v-6.061c-1.102,1.634-2.622,3.895-4.141,6.061H340.962z"/>
	</g>
	<g>
		<path fill="#FFFFFF" d="M377.57,555.008h2.28v13.868h-1.9v-11.398l-1.121,1.71h-1.919v-0.38L377.57,555.008z"/>
		<path fill="#FFFFFF" d="M391.249,556.889c0,0-2.564,4.958-4.844,11.987h-1.9v-0.38c1.824-5.3,3.933-9.917,4.711-11.607h-7.086
			v-1.881h9.119V556.889z"/>
		<path fill="#FFFFFF" d="M392.01,566.407h2.28v2.47h-2.28V566.407z"/>
		<path fill="#FFFFFF" d="M395.24,563.462c3.325-4.845,5.699-8.454,5.699-8.454h2.47v8.454h1.52v1.805h-1.52v3.609h-1.9v-3.609
			h-6.269V563.462z M401.509,563.462v-6.061c-1.102,1.634-2.622,3.895-4.141,6.061H401.509z"/>
	</g>
	<g>
		<line fill="none" stroke="#FFFFFF" stroke-miterlimit="10" x1="361.069" y1="642.82" x2="344.838" y2="642.82"/>
	</g>
	<g>
		<path fill="#FFFFFF" d="M222.641,822.289h1.995v13.868h-1.995v-6.079h-5.319v6.079h-1.995v-13.868h1.995v5.89h5.319V822.289z"/>
		<path fill="#FFFFFF" d="M235.846,828.178v1.52h-9.119v-1.52H235.846z M235.846,831.597v1.52h-9.119v-1.52H235.846z"/>
		<path fill="#FFFFFF" d="M237.366,826.278c0-2.47,2.09-4.179,4.37-4.179c2.279,0,4.369,1.52,4.369,4.179
			c0,1.71-1.102,2.812-1.899,3.609c-2.28,2.28-4.654,3.325-4.654,4.389h6.363v1.881h-8.738v-0.95c0-2.564,3.419-4.179,5.699-6.459
			c0.646-0.646,1.33-1.234,1.33-2.47c0-1.52-1.235-2.336-2.47-2.336c-1.235,0-2.489,0.816-2.489,2.336v0.57h-1.881V826.278z"/>
		<path fill="#FFFFFF" d="M247.437,833.687h2.279v2.47h-2.279V833.687z"/>
		<path fill="#FFFFFF" d="M250.666,830.743c3.325-4.845,5.699-8.454,5.699-8.454h2.47v8.454h1.52v1.805h-1.52v3.609h-1.899v-3.609
			h-6.27V830.743z M256.936,830.743v-6.061c-1.102,1.634-2.622,3.895-4.142,6.061H256.936z"/>
	</g>
	<g>
		<path fill="#FFFFFF" d="M103.01,41.645h1.995v11.969h5.699V41.645h1.995v11.969h1.52v4.749h-1.995v-2.85h-9.214V41.645z"/>
		<path fill="#FFFFFF" d="M122.294,41.265c4.047,0,7.314,3.268,7.314,7.314c0,4.046-3.268,7.313-7.314,7.313
			c-4.046,0-7.313-3.268-7.313-7.313C114.98,44.533,118.248,41.265,122.294,41.265z M122.294,53.994c3.135,0,5.301-2.28,5.301-5.396
			c0-3.153-2.166-5.434-5.301-5.434c-3.134,0-5.319,2.28-5.319,5.434C116.975,51.713,119.16,53.994,122.294,53.994z"/>
		<path fill="#FFFFFF" d="M141.389,41.645l-5.984,6.82l6.175,7.048h-2.546l-5.148-5.889v5.889h-1.995V41.645h1.995v5.699
			l5.129-5.699H141.389z"/>
		<path fill="#FFFFFF" d="M148.704,41.265c4.047,0,7.314,3.268,7.314,7.314c0,4.046-3.268,7.313-7.314,7.313
			c-4.046,0-7.313-3.268-7.313-7.313C141.391,44.533,144.658,41.265,148.704,41.265z M148.704,53.994
			c3.135,0,5.301-2.28,5.301-5.396c0-3.153-2.166-5.434-5.301-5.434c-3.134,0-5.319,2.28-5.319,5.434
			C143.385,51.713,145.57,53.994,148.704,53.994z"/>
		<path fill="#FFFFFF" d="M158.681,41.645h8.929v13.868h-1.995V43.545h-4.939v8.72c0,1.805-1.234,3.438-3.515,3.438l-0.38-0.19
			v-1.71h0.38c0.95,0,1.521-0.569,1.521-1.52V41.645z"/>
		<path fill="#FFFFFF" d="M170.84,41.645h1.995v5.89h3.42c2.47,0,4.274,1.614,4.274,3.989c0,2.374-1.805,3.989-4.274,3.989h-5.415
			V41.645z M176.35,53.614c1.14,0,2.185-0.665,2.185-2.09s-1.045-2.09-2.185-2.09h-3.515v4.18H176.35z"/>
	</g>
	<g>
		<path fill="#FFFFFF" d="M437.911,41.645h2.279v13.868h-1.899V44.115l-1.121,1.71h-1.919v-0.38L437.911,41.645z"/>
		<path fill="#FFFFFF" d="M450.831,47.535h7.96c-0.399-2.527-2.261-4.37-5.11-4.37c-1.805,0-3.135,0.761-4.085,2.09l-1.329-1.329
			c1.329-1.71,3.419-2.66,5.509-2.66c4.084,0,7.124,3.249,7.124,7.333c0,4.065-3.04,7.295-7.219,7.295c-2.09,0-4.18-0.95-5.51-2.659
			l1.33-1.33c0.95,1.33,2.375,2.09,4.18,2.09c3.001,0,4.825-1.919,5.148-4.56h-7.998V47.535z"/>
		<path fill="#FFFFFF" d="M460.901,41.645h9.688v1.9h-3.838v11.968h-2.014V43.545h-3.837V41.645z"/>
		<path fill="#FFFFFF" d="M474.58,41.645h2.09l4.749,13.868h-1.994l-1.235-3.609h-5.148l-1.216,3.609h-1.994L474.58,41.645z
			 M473.688,50.004h3.856l-1.919-5.699L473.688,50.004z"/>
		<path fill="#FFFFFF" d="M484.556,41.645l4.901,5.699v-5.699h1.994v5.699l4.883-5.699h2.375l-5.795,6.839l5.984,7.029h-2.546
			l-4.901-5.889v5.889h-1.994v-5.889l-4.92,5.889h-2.546l5.984-7.029l-5.795-6.839H484.556z"/>
	</g>
	<g>
		<path fill="#FFFFFF" d="M811.85,45.634c0-2.47,2.09-4.179,4.37-4.179c2.279,0,4.369,1.52,4.369,4.179
			c0,1.71-1.102,2.812-1.899,3.609c-2.28,2.28-4.654,3.325-4.654,4.389h6.364v1.881h-8.739v-0.95c0-2.564,3.419-4.179,5.699-6.459
			c0.646-0.646,1.33-1.234,1.33-2.47c0-1.52-1.235-2.336-2.47-2.336s-2.489,0.816-2.489,2.336v0.57h-1.881V45.634z"/>
		<path fill="#FFFFFF" d="M829.139,47.535h7.96c-0.399-2.527-2.261-4.37-5.11-4.37c-1.805,0-3.135,0.761-4.084,2.09l-1.33-1.329
			c1.33-1.71,3.419-2.66,5.509-2.66c4.084,0,7.124,3.249,7.124,7.333c0,4.065-3.04,7.295-7.219,7.295
			c-2.09,0-4.179-0.95-5.509-2.659l1.33-1.33c0.95,1.33,2.375,2.09,4.179,2.09c3.001,0,4.825-1.919,5.148-4.56h-7.998V47.535z"/>
		<path fill="#FFFFFF" d="M839.209,41.645h9.688v1.9h-3.837v11.968h-2.014V43.545h-3.837V41.645z"/>
		<path fill="#FFFFFF" d="M852.889,41.645h2.089l4.75,13.868h-1.995l-1.235-3.609h-5.148l-1.216,3.609h-1.995L852.889,41.645z
			 M851.996,50.004h3.856l-1.918-5.699L851.996,50.004z"/>
		<path fill="#FFFFFF" d="M862.864,41.645l4.901,5.699v-5.699h1.995v5.699l4.882-5.699h2.375l-5.794,6.839l5.984,7.029h-2.546
			l-4.901-5.889v5.889h-1.995v-5.889l-4.92,5.889h-2.546l5.984-7.029l-5.794-6.839H862.864z"/>
	</g>
	
		<line fill="none" stroke="#FFFFFF" stroke-width="1.9457" stroke-miterlimit="10" x1="1084.34" y1="517.781" x2="1194.055" y2="618.165"/>
	
		<line fill="none" stroke="#FFFFFF" stroke-width="1.9457" stroke-miterlimit="10" x1="1193.168" y1="517.781" x2="1083.453" y2="618.165"/>
	
		<line fill="none" stroke="#FFFFFF" stroke-width="2" stroke-miterlimit="10" x1="479.502" y1="143.742" x2="579.259" y2="324.006"/>
	
		<line fill="none" stroke="#FFFFFF" stroke-width="2" stroke-miterlimit="10" x1="554.571" y1="137.861" x2="504.974" y2="329.679"/>
	
		<line fill="none" stroke="#FFFFFF" stroke-width="1.7188" stroke-miterlimit="10" x1="1279.485" y1="517.56" x2="1194.056" y2="618.165"/>
	
		<line fill="none" stroke="#FFFFFF" stroke-width="2" stroke-miterlimit="10" x1="1190.207" y1="516.656" x2="1281.259" y2="617.798"/>
	
		<line fill="none" stroke="#FFFFFF" stroke-width="2" stroke-miterlimit="10" x1="724.983" y1="665.227" x2="818.108" y2="797.242"/>
	
		<line fill="none" stroke="#FFFFFF" stroke-width="1.9653" stroke-miterlimit="10" x1="816.337" y1="665.227" x2="726.417" y2="797.242"/>
</g>
<g id="Layer_2">
</g>
</svg>
