<?xml version="1.0" encoding="utf-8"?>
<!-- Generator: Adobe Illustrator 16.0.0, SVG Export Plug-In . SVG Version: 6.00 Build 0)  -->
<!DOCTYPE svg PUBLIC "-//W3C//DTD SVG 1.1//EN" "http://www.w3.org/Graphics/SVG/1.1/DTD/svg11.dtd">
<svg version="1.1" xmlns="http://www.w3.org/2000/svg" xmlns:xlink="http://www.w3.org/1999/xlink" x="0px" y="0px"
	 width="1406.107px" height="916px" viewBox="0 0 1406.107 916" enable-background="new 0 0 1406.107 916" xml:space="preserve">
<g id="Layer_1">
	
		<line fill="none" stroke="#FFFFFF" stroke-width="2" stroke-miterlimit="10" x1="1230.195" y1="659.875" x2="1230.195" y2="617.799"/>
	<polygon fill="none" stroke="#FFFFFF" stroke-width="2" stroke-miterlimit="10" points="927.174,517.781 931.882,659.798 
		866.786,659.798 871.139,792.798 1289.479,792.798 1278.354,517.781 	"/>
	
		<line fill="none" stroke="#FFFFFF" stroke-width="2" stroke-miterlimit="10" x1="1284.094" y1="659.798" x2="926.606" y2="659.798"/>
	<polyline fill="none" stroke="#FFFFFF" stroke-width="2" stroke-miterlimit="10" points="964.925,517.781 966.754,593.711 
		1004.038,617.798 1281.259,617.798 	"/>
	
		<line fill="none" stroke="#FFFFFF" stroke-width="2" stroke-miterlimit="10" x1="1011.183" y1="517.781" x2="1013.537" y2="617.798"/>
	
		<line fill="none" stroke="#FFFFFF" stroke-width="2" stroke-miterlimit="10" x1="1191.701" y1="518.147" x2="1194.055" y2="618.165"/>
	
		<line fill="none" stroke="#FFFFFF" stroke-width="2" stroke-miterlimit="10" x1="1190.034" y1="661.421" x2="1193.126" y2="792.798"/>
	<line fill="none" stroke="#FFFFFF" stroke-width="2" stroke-miterlimit="10" x1="993.93" y1="659.875" x2="996.284" y2="792.798"/>
	
		<line fill="none" stroke="#FFFFFF" stroke-width="2" stroke-miterlimit="10" x1="1087.418" y1="659.875" x2="1089.772" y2="792.798"/>
	
		<line fill="none" stroke="#FFFFFF" stroke-width="2" stroke-miterlimit="10" x1="1082.84" y1="517.781" x2="1085.194" y2="617.798"/>
	<rect x="1243.232" y="623.184" fill="none" width="38.027" height="36.048"/>
	<text transform="matrix(1 0 0 1 1243.2314 645.9795)" fill="#FFFFFF" font-family="'Fugue-Regular'" font-size="30">wc</text>
	<g>
		<line fill="none" stroke="#FFFFFF" stroke-miterlimit="10" x1="1222.925" y1="637.917" x2="1237.463" y2="638.053"/>
	</g>
	<g>
		<line fill="none" stroke="#FFFFFF" stroke-miterlimit="10" x1="1215.521" y1="625.349" x2="1215.656" y2="610.811"/>
	</g>
	<g>
		<line fill="none" stroke="#FFFFFF" stroke-miterlimit="10" x1="1215.521" y1="672.63" x2="1215.656" y2="658.092"/>
	</g>
	<g>
		<line fill="none" stroke="#FFFFFF" stroke-miterlimit="10" x1="1138.354" y1="625.349" x2="1138.49" y2="610.811"/>
	</g>
	<g>
		<line fill="none" stroke="#FFFFFF" stroke-miterlimit="10" x1="1050.354" y1="625.349" x2="1050.49" y2="610.811"/>
	</g>
	<g>
		<line fill="none" stroke="#FFFFFF" stroke-miterlimit="10" x1="1038.883" y1="668.381" x2="1039.019" y2="653.843"/>
	</g>
	<g>
		<line fill="none" stroke="#FFFFFF" stroke-miterlimit="10" x1="1097.043" y1="724.113" x2="1082.505" y2="723.977"/>
	</g>
	<g>
		<line fill="none" stroke="#FFFFFF" stroke-miterlimit="10" x1="1001.954" y1="724.113" x2="987.416" y2="723.977"/>
	</g>
	<g>
		<line fill="none" stroke="#FFFFFF" stroke-miterlimit="10" x1="977.513" y1="608.125" x2="986.296" y2="597.541"/>
	</g>
	<polygon fill="none" stroke="#FFFFFF" stroke-width="2" stroke-miterlimit="10" points="981.903,517.781 871.805,517.781 
		814.276,83.107 925.014,83.107 	"/>
	<polygon fill="none" stroke="#FFFFFF" stroke-width="2" stroke-miterlimit="10" points="962.125,364.13 852.545,372.798 
		846.625,328.23 955.478,319.562 	"/>
	<line fill="none" stroke="#FFFFFF" stroke-width="2" stroke-miterlimit="10" x1="930.79" y1="133.417" x2="821.21" y2="142.085"/>
	<path fill="none" stroke="#FFFFFF" stroke-width="2" stroke-miterlimit="10" d="M881.19,325.235c0,0-7.011-50.79-13.678-99.076
		l-3.163-21.21c-4.741-34.343-8.632-65.65-8.632-65.65"/>
	<path fill="none" stroke="#FFFFFF" stroke-width="2" stroke-miterlimit="10" d="M884.516,372.577
		c6.651,48.173,13.646,98.843,13.646,98.843l29.022,9.271h49.866"/>
	
		<line fill="none" stroke="#FFFFFF" stroke-width="2" stroke-miterlimit="10" x1="906.988" y1="324.952" x2="900.324" y2="276.683"/>
	<path fill="none" stroke="#FFFFFF" stroke-width="2" stroke-miterlimit="10" d="M950.072,271.918c0,0-7.573,0.599-17.903,1.416
		l-13.532,1.07c-20.507,1.622-43.489,3.44-43.489,3.44"/>
	<g>
		<line fill="none" stroke="#FFFFFF" stroke-miterlimit="10" x1="855.716" y1="209.351" x2="872.901" y2="207.835"/>
	</g>
	<g>
		<line fill="none" stroke="#FFFFFF" stroke-miterlimit="10" x1="947.476" y1="471.894" x2="948.991" y2="489.077"/>
	</g>
	<g>
		<line fill="none" stroke="#FFFFFF" stroke-miterlimit="10" x1="839.362" y1="148.145" x2="837.503" y2="134.153"/>
	</g>
	<g>
		<line fill="none" stroke="#FFFFFF" stroke-miterlimit="10" x1="923.434" y1="280.95" x2="921.575" y2="266.958"/>
	</g>
	<g>
		
			<line fill="#FFFFFF" stroke="#FFFFFF" stroke-width="2" stroke-miterlimit="10" x1="881.267" y1="343.831" x2="879.077" y2="327.342"/>
		
			<line fill="#FFFFFF" stroke="#FFFFFF" stroke-width="2" stroke-miterlimit="10" x1="885.501" y1="343.459" x2="883.31" y2="326.971"/>
		
			<line fill="#FFFFFF" stroke="#FFFFFF" stroke-width="2" stroke-miterlimit="10" x1="889.735" y1="343.087" x2="887.544" y2="326.599"/>
		
			<line fill="#FFFFFF" stroke="#FFFFFF" stroke-width="2" stroke-miterlimit="10" x1="893.969" y1="342.716" x2="891.778" y2="326.228"/>
		
			<line fill="#FFFFFF" stroke="#FFFFFF" stroke-width="2" stroke-miterlimit="10" x1="898.202" y1="342.344" x2="896.012" y2="325.856"/>
		
			<line fill="#FFFFFF" stroke="#FFFFFF" stroke-width="2" stroke-miterlimit="10" x1="902.436" y1="341.973" x2="900.245" y2="325.484"/>
		
			<line fill="#FFFFFF" stroke="#FFFFFF" stroke-width="2" stroke-miterlimit="10" x1="906.67" y1="341.601" x2="904.48" y2="325.112"/>
		
			<line fill="#FFFFFF" stroke="#FFFFFF" stroke-width="2" stroke-miterlimit="10" x1="910.904" y1="341.229" x2="908.713" y2="324.741"/>
		
			<line fill="#FFFFFF" stroke="#FFFFFF" stroke-width="2" stroke-miterlimit="10" x1="915.138" y1="340.858" x2="912.947" y2="324.369"/>
		
			<line fill="#FFFFFF" stroke="#FFFFFF" stroke-width="2" stroke-miterlimit="10" x1="919.371" y1="340.486" x2="917.181" y2="323.997"/>
		
			<line fill="#FFFFFF" stroke="#FFFFFF" stroke-width="2" stroke-miterlimit="10" x1="923.604" y1="340.115" x2="921.414" y2="323.626"/>
		
			<line fill="#FFFFFF" stroke="#FFFFFF" stroke-width="2" stroke-miterlimit="10" x1="927.838" y1="339.743" x2="925.648" y2="323.254"/>
		
			<line fill="#FFFFFF" stroke="#FFFFFF" stroke-width="2" stroke-miterlimit="10" x1="932.072" y1="339.372" x2="929.881" y2="322.882"/>
		
			<line fill="#FFFFFF" stroke="#FFFFFF" stroke-width="2" stroke-miterlimit="10" x1="936.305" y1="339" x2="934.115" y2="322.511"/>
		
			<line fill="#FFFFFF" stroke="#FFFFFF" stroke-width="2" stroke-miterlimit="10" x1="940.539" y1="338.628" x2="938.348" y2="322.14"/>
		
			<line fill="#FFFFFF" stroke="#FFFFFF" stroke-width="2" stroke-miterlimit="10" x1="944.772" y1="338.257" x2="942.582" y2="321.768"/>
		
			<line fill="#FFFFFF" stroke="#FFFFFF" stroke-width="2" stroke-miterlimit="10" x1="949.005" y1="337.885" x2="946.815" y2="321.396"/>
	</g>
	<g>
		
			<line fill="#FFFFFF" stroke="#FFFFFF" stroke-width="2" stroke-miterlimit="10" x1="884.52" y1="369.338" x2="882.362" y2="353.089"/>
		
			<line fill="#FFFFFF" stroke="#FFFFFF" stroke-width="2" stroke-miterlimit="10" x1="888.692" y1="368.972" x2="886.534" y2="352.723"/>
		
			<line fill="#FFFFFF" stroke="#FFFFFF" stroke-width="2" stroke-miterlimit="10" x1="892.865" y1="368.606" x2="890.706" y2="352.357"/>
		
			<line fill="#FFFFFF" stroke="#FFFFFF" stroke-width="2" stroke-miterlimit="10" x1="897.037" y1="368.24" x2="894.878" y2="351.991"/>
		
			<line fill="#FFFFFF" stroke="#FFFFFF" stroke-width="2" stroke-miterlimit="10" x1="901.209" y1="367.874" x2="899.051" y2="351.625"/>
		
			<line fill="#FFFFFF" stroke="#FFFFFF" stroke-width="2" stroke-miterlimit="10" x1="905.381" y1="367.507" x2="903.223" y2="351.258"/>
		
			<line fill="#FFFFFF" stroke="#FFFFFF" stroke-width="2" stroke-miterlimit="10" x1="909.553" y1="367.141" x2="907.395" y2="350.892"/>
		
			<line fill="#FFFFFF" stroke="#FFFFFF" stroke-width="2" stroke-miterlimit="10" x1="913.726" y1="366.775" x2="911.567" y2="350.526"/>
		
			<line fill="#FFFFFF" stroke="#FFFFFF" stroke-width="2" stroke-miterlimit="10" x1="917.897" y1="366.409" x2="915.739" y2="350.16"/>
		
			<line fill="#FFFFFF" stroke="#FFFFFF" stroke-width="2" stroke-miterlimit="10" x1="922.069" y1="366.042" x2="919.911" y2="349.793"/>
		
			<line fill="#FFFFFF" stroke="#FFFFFF" stroke-width="2" stroke-miterlimit="10" x1="926.241" y1="365.676" x2="924.083" y2="349.427"/>
		
			<line fill="#FFFFFF" stroke="#FFFFFF" stroke-width="2" stroke-miterlimit="10" x1="930.413" y1="365.31" x2="928.255" y2="349.061"/>
		
			<line fill="#FFFFFF" stroke="#FFFFFF" stroke-width="2" stroke-miterlimit="10" x1="934.585" y1="364.944" x2="932.427" y2="348.695"/>
		
			<line fill="#FFFFFF" stroke="#FFFFFF" stroke-width="2" stroke-miterlimit="10" x1="938.757" y1="364.578" x2="936.599" y2="348.329"/>
		
			<line fill="#FFFFFF" stroke="#FFFFFF" stroke-width="2" stroke-miterlimit="10" x1="942.929" y1="364.211" x2="940.771" y2="347.962"/>
		
			<line fill="#FFFFFF" stroke="#FFFFFF" stroke-width="2" stroke-miterlimit="10" x1="947.101" y1="363.845" x2="944.942" y2="347.596"/>
		
			<line fill="#FFFFFF" stroke="#FFFFFF" stroke-width="2" stroke-miterlimit="10" x1="951.272" y1="363.479" x2="949.114" y2="347.23"/>
	</g>
	<polygon fill="none" stroke="#FFFFFF" stroke-width="2" stroke-miterlimit="10" points="909.326,517.781 871.805,517.781 
		869.437,494.104 906.988,494.104 	"/>
	<rect x="1022.104" y="727.835" fill="none" width="37.323" height="16.328"/>
	<text transform="matrix(1 0 0 1 1022.1006 742.2695)" fill="#FFFFFF" font-family="'Fugue-Regular'" font-size="19">24.5</text>
	<rect x="1130.152" y="727.835" fill="none" width="37.323" height="16.328"/>
	<text transform="matrix(1 0 0 1 1130.1484 742.2695)" fill="#FFFFFF" font-family="'Fugue-Regular'" font-size="19">27.7</text>
	<rect x="1222.335" y="727.835" fill="none" width="37.323" height="16.328"/>
	<text transform="matrix(1 0 0 1 1222.3301 742.2695)" fill="#FFFFFF" font-family="'Fugue-Regular'" font-size="19">21.7</text>
	<rect x="912.415" y="727.835" fill="none" width="37.323" height="16.328"/>
	<text transform="matrix(1 0 0 1 912.4111 742.2695)" fill="#FFFFFF" font-family="'Fugue-Regular'" font-size="19">42.5</text>
	<rect x="1025.914" y="554.443" fill="none" width="37.323" height="16.328"/>
	<text transform="matrix(1 0 0 1 1025.9102 568.877)" fill="#FFFFFF" font-family="'Fugue-Regular'" font-size="19">15.3</text>
	<rect x="976.374" y="554.443" fill="none" width="37.323" height="16.328"/>
	<text transform="matrix(1 0 0 1 976.3711 568.877)" fill="#FFFFFF" font-family="'Fugue-Regular'" font-size="19">10</text>
	<rect x="873.093" y="821.722" fill="none" width="124.397" height="29.042"/>
	<text transform="matrix(1 0 0 1 873.0967 836.1572)" fill="#FFFFFF" font-family="'Fugue-Regular'" font-size="19">H=3.56</text>
	<rect x="891.583" y="193.023" fill="none" width="37.325" height="16.328"/>
	<text transform="matrix(1 0 0 1 891.5828 207.458)" fill="#FFFFFF" font-family="'Fugue-Regular'" font-size="19">37</text>
	
		<rect x="1044.285" y="792.798" fill="none" stroke="#FFFFFF" stroke-width="2" stroke-miterlimit="10" width="37.9" height="14.751"/>
	
		<rect x="1218.513" y="792.798" fill="none" stroke="#FFFFFF" stroke-width="2" stroke-miterlimit="10" width="37.9" height="14.751"/>
	
		<rect x="911.842" y="792.798" fill="none" stroke="#FFFFFF" stroke-width="2" stroke-miterlimit="10" width="37.901" height="14.751"/>
	<g>
		<line fill="none" stroke="#FFFFFF" stroke-miterlimit="10" x1="863.228" y1="336.611" x2="860.928" y2="319.301"/>
	</g>
	<g>
		<line fill="none" stroke="#FFFFFF" stroke-miterlimit="10" x1="869.002" y1="304.267" x2="886.313" y2="301.967"/>
	</g>
	<g>
		<line fill="none" stroke="#FFFFFF" stroke-miterlimit="10" x1="869.337" y1="379.452" x2="867.038" y2="362.142"/>
	</g>
	<polygon fill="none" stroke="#FFFFFF" stroke-width="2" stroke-miterlimit="10" points="605.684,522.225 495.59,522.225 
		437.851,87.551 548.795,87.551 	"/>
	<polygon fill="none" stroke="#FFFFFF" stroke-width="2" stroke-miterlimit="10" points="585.907,368.574 476.332,377.242 
		470.412,332.674 579.259,324.006 	"/>
	
		<line fill="none" stroke="#FFFFFF" stroke-width="2" stroke-miterlimit="10" x1="554.571" y1="137.861" x2="444.996" y2="146.529"/>
	<path fill="none" stroke="#FFFFFF" stroke-width="2" stroke-miterlimit="10" d="M504.974,329.679c0,0-7.011-50.79-13.677-99.076
		l-3.163-21.21c-4.74-34.343-8.631-65.65-8.631-65.65"/>
	<path fill="none" stroke="#FFFFFF" stroke-width="2" stroke-miterlimit="10" d="M508.299,377.021
		c6.65,48.173,10.9,78.966,10.9,78.966l31.765,29.148h49.866"/>
	<g>
		<line fill="none" stroke="#FFFFFF" stroke-miterlimit="10" x1="479.502" y1="213.795" x2="496.686" y2="212.279"/>
	</g>
	<g>
		<line fill="none" stroke="#FFFFFF" stroke-miterlimit="10" x1="571.257" y1="476.338" x2="572.772" y2="493.521"/>
	</g>
	<g>
		<line fill="none" stroke="#FFFFFF" stroke-miterlimit="10" x1="463.148" y1="152.589" x2="461.29" y2="138.597"/>
	</g>
	<g>
		
			<line fill="#FFFFFF" stroke="#FFFFFF" stroke-width="2" stroke-miterlimit="10" x1="505.333" y1="348.274" x2="503.143" y2="331.786"/>
		
			<line fill="#FFFFFF" stroke="#FFFFFF" stroke-width="2" stroke-miterlimit="10" x1="509.567" y1="347.903" x2="507.376" y2="331.414"/>
		
			<line fill="#FFFFFF" stroke="#FFFFFF" stroke-width="2" stroke-miterlimit="10" x1="513.8" y1="347.531" x2="511.61" y2="331.043"/>
		
			<line fill="#FFFFFF" stroke="#FFFFFF" stroke-width="2" stroke-miterlimit="10" x1="518.034" y1="347.16" x2="515.843" y2="330.671"/>
		
			<line fill="#FFFFFF" stroke="#FFFFFF" stroke-width="2" stroke-miterlimit="10" x1="522.268" y1="346.788" x2="520.077" y2="330.3"/>
		
			<line fill="#FFFFFF" stroke="#FFFFFF" stroke-width="2" stroke-miterlimit="10" x1="526.501" y1="346.416" x2="524.311" y2="329.928"/>
		
			<line fill="#FFFFFF" stroke="#FFFFFF" stroke-width="2" stroke-miterlimit="10" x1="530.734" y1="346.045" x2="528.544" y2="329.556"/>
		
			<line fill="#FFFFFF" stroke="#FFFFFF" stroke-width="2" stroke-miterlimit="10" x1="534.968" y1="345.673" x2="532.777" y2="329.185"/>
		
			<line fill="#FFFFFF" stroke="#FFFFFF" stroke-width="2" stroke-miterlimit="10" x1="539.201" y1="345.302" x2="537.011" y2="328.813"/>
		
			<line fill="#FFFFFF" stroke="#FFFFFF" stroke-width="2" stroke-miterlimit="10" x1="543.435" y1="344.93" x2="541.244" y2="328.441"/>
		
			<line fill="#FFFFFF" stroke="#FFFFFF" stroke-width="2" stroke-miterlimit="10" x1="547.668" y1="344.559" x2="545.478" y2="328.07"/>
		
			<line fill="#FFFFFF" stroke="#FFFFFF" stroke-width="2" stroke-miterlimit="10" x1="551.901" y1="344.187" x2="549.711" y2="327.698"/>
		
			<line fill="#FFFFFF" stroke="#FFFFFF" stroke-width="2" stroke-miterlimit="10" x1="556.135" y1="343.815" x2="553.944" y2="327.326"/>
		
			<line fill="#FFFFFF" stroke="#FFFFFF" stroke-width="2" stroke-miterlimit="10" x1="560.368" y1="343.444" x2="558.178" y2="326.955"/>
		
			<line fill="#FFFFFF" stroke="#FFFFFF" stroke-width="2" stroke-miterlimit="10" x1="564.602" y1="343.072" x2="562.412" y2="326.583"/>
		
			<line fill="#FFFFFF" stroke="#FFFFFF" stroke-width="2" stroke-miterlimit="10" x1="568.835" y1="342.701" x2="566.645" y2="326.211"/>
		
			<line fill="#FFFFFF" stroke="#FFFFFF" stroke-width="2" stroke-miterlimit="10" x1="573.069" y1="342.329" x2="570.878" y2="325.84"/>
	</g>
	<g>
		
			<line fill="#FFFFFF" stroke="#FFFFFF" stroke-width="2" stroke-miterlimit="10" x1="508.304" y1="373.782" x2="506.146" y2="357.533"/>
		
			<line fill="#FFFFFF" stroke="#FFFFFF" stroke-width="2" stroke-miterlimit="10" x1="512.476" y1="373.416" x2="510.317" y2="357.167"/>
		
			<line fill="#FFFFFF" stroke="#FFFFFF" stroke-width="2" stroke-miterlimit="10" x1="516.647" y1="373.05" x2="514.489" y2="356.801"/>
		
			<line fill="#FFFFFF" stroke="#FFFFFF" stroke-width="2" stroke-miterlimit="10" x1="520.819" y1="372.684" x2="518.661" y2="356.435"/>
		
			<line fill="#FFFFFF" stroke="#FFFFFF" stroke-width="2" stroke-miterlimit="10" x1="524.991" y1="372.317" x2="522.833" y2="356.068"/>
		
			<line fill="#FFFFFF" stroke="#FFFFFF" stroke-width="2" stroke-miterlimit="10" x1="529.163" y1="371.951" x2="527.005" y2="355.702"/>
		
			<line fill="#FFFFFF" stroke="#FFFFFF" stroke-width="2" stroke-miterlimit="10" x1="533.335" y1="371.585" x2="531.177" y2="355.336"/>
		
			<line fill="#FFFFFF" stroke="#FFFFFF" stroke-width="2" stroke-miterlimit="10" x1="537.507" y1="371.219" x2="535.349" y2="354.97"/>
		
			<line fill="#FFFFFF" stroke="#FFFFFF" stroke-width="2" stroke-miterlimit="10" x1="541.679" y1="370.853" x2="539.521" y2="354.604"/>
		
			<line fill="#FFFFFF" stroke="#FFFFFF" stroke-width="2" stroke-miterlimit="10" x1="545.851" y1="370.486" x2="543.692" y2="354.237"/>
		
			<line fill="#FFFFFF" stroke="#FFFFFF" stroke-width="2" stroke-miterlimit="10" x1="550.022" y1="370.12" x2="547.864" y2="353.871"/>
		
			<line fill="#FFFFFF" stroke="#FFFFFF" stroke-width="2" stroke-miterlimit="10" x1="554.194" y1="369.754" x2="552.036" y2="353.505"/>
		
			<line fill="#FFFFFF" stroke="#FFFFFF" stroke-width="2" stroke-miterlimit="10" x1="558.366" y1="369.388" x2="556.208" y2="353.139"/>
		
			<line fill="#FFFFFF" stroke="#FFFFFF" stroke-width="2" stroke-miterlimit="10" x1="562.538" y1="369.021" x2="560.38" y2="352.772"/>
		
			<line fill="#FFFFFF" stroke="#FFFFFF" stroke-width="2" stroke-miterlimit="10" x1="566.71" y1="368.655" x2="564.552" y2="352.406"/>
		
			<line fill="#FFFFFF" stroke="#FFFFFF" stroke-width="2" stroke-miterlimit="10" x1="570.882" y1="368.289" x2="568.724" y2="352.04"/>
		
			<line fill="#FFFFFF" stroke="#FFFFFF" stroke-width="2" stroke-miterlimit="10" x1="575.054" y1="367.923" x2="572.896" y2="351.674"/>
	</g>
	<g>
		<line fill="none" stroke="#FFFFFF" stroke-miterlimit="10" x1="490.381" y1="367.744" x2="491.896" y2="384.927"/>
	</g>
	<g>
		<line fill="none" stroke="#FFFFFF" stroke-miterlimit="10" x1="485.113" y1="320.89" x2="486.628" y2="338.072"/>
	</g>
	<rect x="565.885" y="727.835" fill="none" width="37.323" height="16.328"/>
	<text transform="matrix(1 0 0 1 565.8867 742.269)" fill="#FFFFFF" font-family="'Fugue-Regular'" font-size="19">24.3</text>
	<rect x="686.174" y="554.443" fill="none" width="37.323" height="16.328"/>
	<text transform="matrix(1 0 0 1 686.1748 568.8765)" fill="#FFFFFF" font-family="'Fugue-Regular'" font-size="19">52.2</text>
	<rect x="630.539" y="727.835" fill="none" width="37.323" height="16.328"/>
	<text transform="matrix(1 0 0 1 630.541 742.269)" fill="#FFFFFF" font-family="'Fugue-Regular'" font-size="19">14.6 </text>
	<rect x="690.01" y="727.835" fill="none" width="37.323" height="16.328"/>
	<text transform="matrix(1 0 0 1 690.0127 742.269)" fill="#FFFFFF" font-family="'Fugue-Regular'" font-size="19">14</text>
	<polygon fill="none" stroke="#FFFFFF" stroke-width="2" stroke-miterlimit="10" points="552.157,522.225 556.865,664.242 
		543.825,662.225 548.177,795.225 818.108,797.242 816.504,522.225 	"/>
	
		<line fill="none" stroke="#FFFFFF" stroke-width="2" stroke-miterlimit="10" x1="817.333" y1="664.242" x2="551.589" y2="664.242"/>
	<polyline fill="none" stroke="#FFFFFF" stroke-width="2" stroke-miterlimit="10" points="589.907,522.225 591.737,598.155 
		629.021,622.242 816.691,622.242 	"/>
	
		<line fill="none" stroke="#FFFFFF" stroke-width="2" stroke-miterlimit="10" x1="618.912" y1="664.318" x2="621.266" y2="797.242"/>
	<line fill="none" stroke="#FFFFFF" stroke-width="2" stroke-miterlimit="10" x1="673.622" y1="697.98" x2="675.38" y2="797.242"/>
	
		<line fill="none" stroke="#FFFFFF" stroke-width="2" stroke-miterlimit="10" x1="726.292" y1="664.318" x2="728.646" y2="797.242"/>
	
		<line fill="none" stroke="#FFFFFF" stroke-width="2" stroke-miterlimit="10" x1="761.042" y1="664.318" x2="761.042" y2="622.243"/>
	<rect x="773.693" y="627.628" fill="none" width="38.027" height="36.048"/>
	<text transform="matrix(1 0 0 1 773.6938 650.4229)" fill="#FFFFFF" font-family="'Fugue-Regular'" font-size="30">wc</text>
	<g>
		<line fill="none" stroke="#FFFFFF" stroke-miterlimit="10" x1="602.496" y1="612.569" x2="611.278" y2="601.984"/>
	</g>
	
		<line fill="none" stroke="#FFFFFF" stroke-width="2" stroke-miterlimit="10" x1="726.293" y1="696.548" x2="618.748" y2="696.548"/>
	<g>
		<line fill="none" stroke="#FFFFFF" stroke-miterlimit="10" x1="699.884" y1="689.015" x2="699.884" y2="705.246"/>
	</g>
	<g>
		<line fill="none" stroke="#FFFFFF" stroke-miterlimit="10" x1="661.183" y1="653.575" x2="661.183" y2="669.807"/>
	</g>
	<g>
		<line fill="none" stroke="#FFFFFF" stroke-miterlimit="10" x1="742.227" y1="655.856" x2="742.227" y2="672.088"/>
	</g>
	<g>
		<line fill="none" stroke="#FFFFFF" stroke-miterlimit="10" x1="768.874" y1="642.817" x2="752.643" y2="642.817"/>
	</g>
	<g>
		<line fill="none" stroke="#FFFFFF" stroke-miterlimit="10" x1="644.838" y1="689.015" x2="644.838" y2="705.246"/>
	</g>
	<g>
		<line fill="none" stroke="#FFFFFF" stroke-miterlimit="10" x1="576.688" y1="655.855" x2="576.688" y2="672.087"/>
	</g>
	<rect x="549.082" y="821.722" fill="none" width="124.394" height="29.042"/>
	<text transform="matrix(1 0 0 1 549.0835 836.1567)" fill="#FFFFFF" font-family="'Fugue-Regular'" font-size="19">H=3.58</text>
	<path fill="none" stroke="#FFFFFF" stroke-width="2" stroke-miterlimit="10" d="M214,522.225c-27.634,0-55.379,0-55.379,0
		l-57.74-434.674h110.945l56.889,434.674"/>
	<polygon fill="none" stroke="#FFFFFF" stroke-width="2" stroke-miterlimit="10" points="213.986,522.225 218.694,664.242 
		208.342,664.242 212.694,797.242 439.694,797.242 439.694,522.225 	"/>
	
		<line fill="none" stroke="#FFFFFF" stroke-width="2" stroke-miterlimit="10" x1="439.126" y1="663.676" x2="213.418" y2="663.676"/>
	
		<line fill="none" stroke="#FFFFFF" stroke-width="2" stroke-miterlimit="10" x1="439.126" y1="622.242" x2="260.895" y2="622.242"/>
	<polyline fill="none" stroke="#FFFFFF" stroke-width="2" stroke-miterlimit="10" points="260.895,606.459 327.979,606.459 
		327.979,622.242 	"/>
	<line fill="none" stroke="#FFFFFF" stroke-width="2" stroke-miterlimit="10" x1="258.54" y1="522.225" x2="260.895" y2="622.242"/>
	
		<line fill="none" stroke="#FFFFFF" stroke-width="1.8443" stroke-miterlimit="10" x1="305.976" y1="522.225" x2="308.329" y2="607.277"/>
	
		<line fill="none" stroke="#FFFFFF" stroke-width="2" stroke-miterlimit="10" x1="276.001" y1="664.318" x2="278.355" y2="797.242"/>
	
		<line fill="none" stroke="#FFFFFF" stroke-width="2" stroke-miterlimit="10" x1="325.623" y1="664.318" x2="327.977" y2="797.242"/>
	<line fill="none" stroke="#FFFFFF" stroke-width="2" stroke-miterlimit="10" x1="350.456" y1="522.225" x2="353.8" y2="664.318"/>
	<polygon fill="none" stroke="#FFFFFF" stroke-width="2" stroke-miterlimit="10" points="248.938,368.574 139.362,377.242 
		133.442,332.674 242.29,324.006 	"/>
	
		<line fill="none" stroke="#FFFFFF" stroke-width="2" stroke-miterlimit="10" x1="227.929" y1="204.369" x2="118.638" y2="213.037"/>
	
		<line fill="none" stroke="#FFFFFF" stroke-width="2" stroke-miterlimit="10" x1="231.615" y1="248.353" x2="160.747" y2="253.712"/>
	<line fill="none" stroke="#FFFFFF" stroke-width="2" stroke-miterlimit="10" x1="257.186" y1="419.84" x2="188.182" y2="425.299"/>
	
		<line fill="none" stroke="#FFFFFF" stroke-width="2" stroke-miterlimit="10" x1="171.058" y1="329.679" x2="154.567" y2="210.217"/>
	
		<line fill="none" stroke="#FFFFFF" stroke-width="2" stroke-miterlimit="10" x1="195.654" y1="476.336" x2="180.708" y2="376.359"/>
	<line fill="none" stroke="#FFFFFF" stroke-width="2" stroke-miterlimit="10" x1="261.338" y1="471.14" x2="195.654" y2="476.336"/>
	<rect x="386.296" y="627.628" fill="none" width="46.246" height="36.048"/>
	<text transform="matrix(1 0 0 1 386.2969 650.4229)" fill="#FFFFFF" font-family="'Fugue-Regular'" font-size="30">wc</text>
	<g>
		
			<line fill="#FFFFFF" stroke="#FFFFFF" stroke-width="2" stroke-miterlimit="10" x1="168.081" y1="348.274" x2="165.89" y2="331.786"/>
		
			<line fill="#FFFFFF" stroke="#FFFFFF" stroke-width="2" stroke-miterlimit="10" x1="172.314" y1="347.903" x2="170.124" y2="331.414"/>
		
			<line fill="#FFFFFF" stroke="#FFFFFF" stroke-width="2" stroke-miterlimit="10" x1="176.547" y1="347.531" x2="174.357" y2="331.043"/>
		
			<line fill="#FFFFFF" stroke="#FFFFFF" stroke-width="2" stroke-miterlimit="10" x1="180.781" y1="347.16" x2="178.591" y2="330.671"/>
		
			<line fill="#FFFFFF" stroke="#FFFFFF" stroke-width="2" stroke-miterlimit="10" x1="185.015" y1="346.788" x2="182.824" y2="330.3"/>
		
			<line fill="#FFFFFF" stroke="#FFFFFF" stroke-width="2" stroke-miterlimit="10" x1="189.248" y1="346.416" x2="187.058" y2="329.928"/>
		
			<line fill="#FFFFFF" stroke="#FFFFFF" stroke-width="2" stroke-miterlimit="10" x1="193.481" y1="346.045" x2="191.291" y2="329.556"/>
		
			<line fill="#FFFFFF" stroke="#FFFFFF" stroke-width="2" stroke-miterlimit="10" x1="197.715" y1="345.673" x2="195.524" y2="329.185"/>
		
			<line fill="#FFFFFF" stroke="#FFFFFF" stroke-width="2" stroke-miterlimit="10" x1="201.948" y1="345.302" x2="199.758" y2="328.813"/>
		
			<line fill="#FFFFFF" stroke="#FFFFFF" stroke-width="2" stroke-miterlimit="10" x1="206.182" y1="344.93" x2="203.991" y2="328.441"/>
		
			<line fill="#FFFFFF" stroke="#FFFFFF" stroke-width="2" stroke-miterlimit="10" x1="210.415" y1="344.559" x2="208.225" y2="328.07"/>
		
			<line fill="#FFFFFF" stroke="#FFFFFF" stroke-width="2" stroke-miterlimit="10" x1="214.648" y1="344.187" x2="212.458" y2="327.698"/>
		
			<line fill="#FFFFFF" stroke="#FFFFFF" stroke-width="2" stroke-miterlimit="10" x1="218.882" y1="343.815" x2="216.691" y2="327.326"/>
		
			<line fill="#FFFFFF" stroke="#FFFFFF" stroke-width="2" stroke-miterlimit="10" x1="223.115" y1="343.444" x2="220.925" y2="326.955"/>
		
			<line fill="#FFFFFF" stroke="#FFFFFF" stroke-width="2" stroke-miterlimit="10" x1="227.349" y1="343.072" x2="225.158" y2="326.583"/>
		
			<line fill="#FFFFFF" stroke="#FFFFFF" stroke-width="2" stroke-miterlimit="10" x1="231.583" y1="342.701" x2="229.392" y2="326.211"/>
		
			<line fill="#FFFFFF" stroke="#FFFFFF" stroke-width="2" stroke-miterlimit="10" x1="235.816" y1="342.329" x2="233.625" y2="325.84"/>
	</g>
	<g>
		
			<line fill="#FFFFFF" stroke="#FFFFFF" stroke-width="2" stroke-miterlimit="10" x1="171.334" y1="373.782" x2="169.176" y2="357.533"/>
		
			<line fill="#FFFFFF" stroke="#FFFFFF" stroke-width="2" stroke-miterlimit="10" x1="175.506" y1="373.416" x2="173.348" y2="357.167"/>
		
			<line fill="#FFFFFF" stroke="#FFFFFF" stroke-width="2" stroke-miterlimit="10" x1="179.678" y1="373.05" x2="177.52" y2="356.801"/>
		
			<line fill="#FFFFFF" stroke="#FFFFFF" stroke-width="2" stroke-miterlimit="10" x1="183.85" y1="372.684" x2="181.691" y2="356.435"/>
		
			<line fill="#FFFFFF" stroke="#FFFFFF" stroke-width="2" stroke-miterlimit="10" x1="188.021" y1="372.317" x2="185.863" y2="356.068"/>
		
			<line fill="#FFFFFF" stroke="#FFFFFF" stroke-width="2" stroke-miterlimit="10" x1="192.193" y1="371.951" x2="190.036" y2="355.702"/>
		
			<line fill="#FFFFFF" stroke="#FFFFFF" stroke-width="2" stroke-miterlimit="10" x1="196.366" y1="371.585" x2="194.208" y2="355.336"/>
		
			<line fill="#FFFFFF" stroke="#FFFFFF" stroke-width="2" stroke-miterlimit="10" x1="200.537" y1="371.219" x2="198.379" y2="354.97"/>
		
			<line fill="#FFFFFF" stroke="#FFFFFF" stroke-width="2" stroke-miterlimit="10" x1="204.709" y1="370.853" x2="202.551" y2="354.604"/>
		
			<line fill="#FFFFFF" stroke="#FFFFFF" stroke-width="2" stroke-miterlimit="10" x1="208.881" y1="370.486" x2="206.723" y2="354.237"/>
		
			<line fill="#FFFFFF" stroke="#FFFFFF" stroke-width="2" stroke-miterlimit="10" x1="213.053" y1="370.12" x2="210.895" y2="353.871"/>
		
			<line fill="#FFFFFF" stroke="#FFFFFF" stroke-width="2" stroke-miterlimit="10" x1="217.225" y1="369.754" x2="215.067" y2="353.505"/>
		
			<line fill="#FFFFFF" stroke="#FFFFFF" stroke-width="2" stroke-miterlimit="10" x1="221.396" y1="369.388" x2="219.238" y2="353.139"/>
		
			<line fill="#FFFFFF" stroke="#FFFFFF" stroke-width="2" stroke-miterlimit="10" x1="225.568" y1="369.021" x2="223.41" y2="352.772"/>
		
			<line fill="#FFFFFF" stroke="#FFFFFF" stroke-width="2" stroke-miterlimit="10" x1="229.74" y1="368.655" x2="227.582" y2="352.406"/>
		
			<line fill="#FFFFFF" stroke="#FFFFFF" stroke-width="2" stroke-miterlimit="10" x1="233.912" y1="368.289" x2="231.754" y2="352.04"/>
		
			<line fill="#FFFFFF" stroke="#FFFFFF" stroke-width="2" stroke-miterlimit="10" x1="238.084" y1="367.923" x2="235.926" y2="351.674"/>
	</g>
	<g>
		<line fill="none" stroke="#FFFFFF" stroke-miterlimit="10" x1="153.411" y1="367.744" x2="154.927" y2="384.927"/>
	</g>
	<g>
		<line fill="none" stroke="#FFFFFF" stroke-miterlimit="10" x1="148.144" y1="320.89" x2="149.659" y2="338.072"/>
	</g>
	<g>
		<line fill="none" stroke="#FFFFFF" stroke-miterlimit="10" x1="133.443" y1="204.369" x2="134.959" y2="221.552"/>
	</g>
	<g>
		<line fill="none" stroke="#FFFFFF" stroke-miterlimit="10" x1="234.024" y1="513.898" x2="233.258" y2="531.131"/>
	</g>
	<g>
		<line fill="none" stroke="#FFFFFF" stroke-miterlimit="10" x1="245.362" y1="655.023" x2="244.879" y2="672.256"/>
	</g>
	<g>
		<line fill="none" stroke="#FFFFFF" stroke-miterlimit="10" x1="298.625" y1="655.023" x2="298.142" y2="672.256"/>
	</g>
	<g>
		<line fill="none" stroke="#FFFFFF" stroke-miterlimit="10" x1="339.736" y1="655.023" x2="339.253" y2="672.256"/>
	</g>
	<g>
		<line fill="none" stroke="#FFFFFF" stroke-miterlimit="10" x1="339.736" y1="610.396" x2="339.253" y2="627.628"/>
	</g>
	<g>
		<line fill="none" stroke="#FFFFFF" stroke-miterlimit="10" x1="173.481" y1="276.558" x2="156.299" y2="278.073"/>
	</g>
	<g>
		<line fill="none" stroke="#FFFFFF" stroke-miterlimit="10" x1="194.154" y1="397.773" x2="176.972" y2="399.289"/>
	</g>
	<g>
		<line fill="none" stroke="#FFFFFF" stroke-miterlimit="10" x1="268.716" y1="587.862" x2="251.533" y2="587.679"/>
	</g>
	<g>
		<line fill="none" stroke="#FFFFFF" stroke-miterlimit="10" x1="362.02" y1="581.71" x2="344.837" y2="581.526"/>
	</g>
	<g>
		<line fill="none" stroke="#FFFFFF" stroke-miterlimit="10" x1="200.907" y1="448.12" x2="183.725" y2="449.636"/>
	</g>
	<g>
		<line fill="none" stroke="#FFFFFF" stroke-miterlimit="10" x1="170.1" y1="199.447" x2="171.615" y2="216.63"/>
	</g>
	<rect x="176.098" y="220.383" fill="none" width="37.322" height="16.328"/>
	<text transform="matrix(1 0 0 1 176.1006 234.8174)" fill="#FFFFFF" font-family="'Fugue-Regular'" font-size="19">10.6</text>
	<rect x="135.76" y="254.522" fill="none" width="37.322" height="16.328"/>
	<text transform="matrix(1 0 0 1 135.7637 268.957)" fill="#FFFFFF" font-family="'Fugue-Regular'" font-size="19">10</text>
	<rect x="142.085" y="137.861" fill="none" width="37.323" height="16.328"/>
	<text transform="matrix(1 0 0 1 142.0889 152.2959)" fill="#FFFFFF" font-family="'Fugue-Regular'" font-size="19">37.3</text>
	<rect x="185.081" y="276.703" fill="none" width="37.322" height="16.328"/>
	<text transform="matrix(1 0 0 1 185.083 291.1367)" fill="#FFFFFF" font-family="'Fugue-Regular'" font-size="19">16.7</text>
	<rect x="204.804" y="389.611" fill="none" width="37.322" height="16.328"/>
	<text transform="matrix(1 0 0 1 204.8066 404.0449)" fill="#FFFFFF" font-family="'Fugue-Regular'" font-size="19">10</text>
	<rect x="214.142" y="439.659" fill="none" width="37.323" height="16.328"/>
	<text transform="matrix(1 0 0 1 214.1445 454.0928)" fill="#FFFFFF" font-family="'Fugue-Regular'" font-size="19">10</text>
	<rect x="266.404" y="554.443" fill="none" width="37.323" height="16.328"/>
	<text transform="matrix(1 0 0 1 266.4067 568.8765)" fill="#FFFFFF" font-family="'Fugue-Regular'" font-size="19">12.8</text>
	<rect x="225.902" y="727.835" fill="none" width="37.323" height="16.328"/>
	<text transform="matrix(1 0 0 1 225.9038 742.269)" fill="#FFFFFF" font-family="'Fugue-Regular'" font-size="19">22.4</text>
	<rect x="286.439" y="727.835" fill="none" width="37.323" height="16.328"/>
	<text transform="matrix(1 0 0 1 286.4414 742.269)" fill="#FFFFFF" font-family="'Fugue-Regular'" font-size="19">14.6</text>
	<rect x="365.803" y="727.835" fill="none" width="37.323" height="16.328"/>
	<text transform="matrix(1 0 0 1 365.8062 742.27)" fill="#FFFFFF" font-family="'Fugue-Regular'" font-size="19">39.6</text>
	<rect x="312.461" y="554.443" fill="none" width="37.323" height="16.328"/>
	<text transform="matrix(1 0 0 1 312.4634 568.8765)" fill="#FFFFFF" font-family="'Fugue-Regular'" font-size="19">12.4</text>
	<rect x="373.958" y="554.443" fill="none" width="37.323" height="16.328"/>
	<text transform="matrix(1 0 0 1 373.9604 568.8765)" fill="#FFFFFF" font-family="'Fugue-Regular'" font-size="19">17.4</text>
	<g>
		<line fill="none" stroke="#FFFFFF" stroke-miterlimit="10" x1="361.069" y1="642.82" x2="344.838" y2="642.82"/>
	</g>
	<rect x="213.805" y="821.722" fill="none" width="124.394" height="29.042"/>
	<text transform="matrix(1 0 0 1 213.8066 836.1567)" fill="#FFFFFF" font-family="'Fugue-Regular'" font-size="19">H=2.4</text>
	<rect x="101.488" y="41.079" fill="none" width="124.394" height="29.042"/>
	<text transform="matrix(1 0 0 1 101.4902 55.5132)" fill="#FFFFFF" font-family="'Fugue-Regular'" font-size="19">ЦОКОЛЬ</text>
	<rect x="434.3" y="41.079" fill="none" width="124.394" height="29.042"/>
	<text transform="matrix(1 0 0 1 434.3018 55.5132)" fill="#FFFFFF" font-family="'Fugue-Regular'" font-size="19">1 ЭТАЖ</text>
	<rect x="810.896" y="41.079" fill="none" width="124.397" height="29.042"/>
	<text transform="matrix(1 0 0 1 810.8999 55.5132)" fill="#FFFFFF" font-family="'Fugue-Regular'" font-size="19">2 ЭТАЖ</text>
	
		<line fill="none" stroke="#FFFFFF" stroke-width="1.9457" stroke-miterlimit="10" x1="1084.34" y1="517.781" x2="1194.055" y2="618.165"/>
	
		<line fill="none" stroke="#FFFFFF" stroke-width="1.9457" stroke-miterlimit="10" x1="1193.168" y1="517.781" x2="1083.453" y2="618.165"/>
	
		<line fill="none" stroke="#FFFFFF" stroke-width="2" stroke-miterlimit="10" x1="479.502" y1="143.742" x2="579.259" y2="324.006"/>
	
		<line fill="none" stroke="#FFFFFF" stroke-width="2" stroke-miterlimit="10" x1="554.571" y1="137.861" x2="504.974" y2="329.679"/>
	
		<line fill="none" stroke="#FFFFFF" stroke-width="1.7188" stroke-miterlimit="10" x1="1279.485" y1="517.56" x2="1194.056" y2="618.165"/>
	
		<line fill="none" stroke="#FFFFFF" stroke-width="2" stroke-miterlimit="10" x1="1190.207" y1="516.656" x2="1281.259" y2="617.798"/>
	
		<line fill="none" stroke="#FFFFFF" stroke-width="2" stroke-miterlimit="10" x1="724.983" y1="665.227" x2="818.108" y2="797.242"/>
	
		<line fill="none" stroke="#FFFFFF" stroke-width="1.9653" stroke-miterlimit="10" x1="816.337" y1="665.227" x2="726.417" y2="797.242"/>
</g>
<g id="Layer_2">
</g>
</svg>
