<?xml version="1.0" encoding="utf-8"?>
<!-- Generator: Adobe Illustrator 16.0.0, SVG Export Plug-In . SVG Version: 6.00 Build 0)  -->
<!DOCTYPE svg PUBLIC "-//W3C//DTD SVG 1.1//EN" "http://www.w3.org/Graphics/SVG/1.1/DTD/svg11.dtd">
<svg version="1.1" id="Layer_1" xmlns="http://www.w3.org/2000/svg" xmlns:xlink="http://www.w3.org/1999/xlink" x="0px" y="0px"
	 width="84.949px" height="84.95px" viewBox="0 0 84.949 84.95" enable-background="new 0 0 84.949 84.95" xml:space="preserve">
<path fill="#1BB472" d="M35.918,40.148c-1.769,0-2.718,1.304-2.718,2.886s0.949,2.886,2.718,2.886c1.582,0,2.701-1.304,2.701-2.886
	S37.5,40.148,35.918,40.148z M26.239,40.148c-1.582,0-2.699,1.304-2.699,2.886s1.117,2.886,2.699,2.886c1.769,0,2.7-1.304,2.7-2.886
	S28.008,40.148,26.239,40.148z M-2.307-2.307v89.563h89.562V-2.307H-2.307z M20.353,47.41h-1.954V35.454h-5.213V47.41H11.23V33.592
	h9.122V47.41z M26.332,47.595c-0.911,0-1.861-0.372-2.42-0.931l-0.094-0.093l-0.111,0.093v4.692h-1.843V38.658h1.676l0.167,0.745
	l0.111,0.094l0.094-0.094c0.559-0.559,1.49-0.93,2.42-0.93c2.421,0,4.47,1.861,4.47,4.561
	C30.802,45.735,28.753,47.595,26.332,47.595z M40.294,47.41h-1.675l-0.187-0.745l-0.094-0.093l-0.094,0.093
	c-0.558,0.559-1.488,0.931-2.42,0.931c-2.421,0-4.468-1.86-4.468-4.562c0-2.699,2.047-4.561,4.468-4.561
	c0.932,0,1.862,0.371,2.42,0.93l0.094,0.094l0.094-0.094l0.187-0.745h1.675V47.41z M47.366,47.41l-3.725-3.724v3.724h-1.86v-8.752
	h1.86v3.539l3.538-3.539h2.42l-4.207,4.208l4.395,4.544H47.366z M57.517,40.334h-2.794v7.075H52.86v-7.075h-2.792v-1.677h7.448
	V40.334z M65.706,47.41h-1.825v-5.958l-3.481,5.958h-2.141v-8.752h1.825v5.958l3.481-5.958h2.141V47.41z M72.585,47.41l-3.725-3.724
	v3.724h-1.862v-8.752h1.862v3.539l3.537-3.539h2.421l-4.208,4.208l4.395,4.544H72.585z"/>
</svg>
